<?xml version="1.0" encoding="utf-8"?>
<!-- Designed by Vexels.com - 2019 All Rights Reserved - https://vexels.com/terms-and-conditions/  -->
<svg version="1.1" id="Layer_1" xmlns="http://www.w3.org/2000/svg" xmlns:xlink="http://www.w3.org/1999/xlink" x="0px" y="0px"
	 viewBox="0 0 1200 1200" enable-background="new 0 0 1200 1200" xml:space="preserve">
<g>
	<path fill="none" d="M517.044,392.392c2.211-3.451,4.369-6.996,6.488-10.699c1.533-2.68,2.716-5.293,4.157-8.161
		c-1.439,2.865-2.651,5.515-4.16,8.162C521.437,385.366,519.273,388.917,517.044,392.392z"/>
	<path fill="none" d="M898.942,652.006c-0.875-0.115-1.753-0.238-2.619-0.32c-1.794-0.169-3.437-0.32-5.052-0.448
		c1.613,0.13,3.255,0.282,5.051,0.45C897.189,651.768,898.067,651.891,898.942,652.006z"/>
	<path fill="none" d="M881.856,651.152c0.674-0.056,1.287-0.059,1.926-0.086c-0.639,0.026-1.251,0.029-1.924,0.083
		c-1.765,0.141-3.444-0.042-5.074-0.427C878.412,651.112,880.089,651.299,881.856,651.152z"/>
	<path fill="none" d="M869.782,647.806c-0.737-0.418-1.472-0.852-2.206-1.309c-0.285-0.177-0.574-0.365-0.865-0.529
		c0.284,0.181,0.568,0.383,0.854,0.555C868.304,646.968,869.042,647.393,869.782,647.806z"/>
	<path fill="none" d="M914.437,656.528c-0.83-0.398-1.65-0.803-2.513-1.173c-1.644-0.704-3.343-1.253-5.059-1.739
		c1.715,0.487,3.415,1.036,5.059,1.74C912.787,655.725,913.607,656.13,914.437,656.528z"/>
	<path fill="none" d="M792.677,729.583c6.989-5.808,13.322-11.8,19.923-18.2c6.602-6.4,13.323-12.945,19.385-20.122
		c6.062-7.177,11.914-15.549,16.431-23.657c4.519-8.108,9.706-14.749,15.698-21.424c0.021-0.023,0.04-0.033,0.061-0.055
		c-0.008,0.008-0.016,0.007-0.024,0.015c0.265-1.345,1.038-1.619-0.301-3.04c-1.339-1.421-3.425-3.361-5.158-5.037
		c-6.159-5.96-12.446-12.09-17.741-18.969c-3.983-5.175-8.032-10.23-12.363-15.151c-5.957-6.768-11.766-13.338-17.037-20.833
		c-1.042-1.481-2.343-3.098-4.508-2.161c0.236-0.183,0.417-0.379,0.552-0.581c-0.135,0.2-0.316,0.392-0.552,0.568
		c-0.189,5.671,0.034,11.379-0.187,17.036c-0.3,7.636-1.373,14.984-4.078,22.174c-5.835,15.511-14.458,27.586-27.168,38.285
		c-7.405,6.233-15.554,10.116-25.04,12.07c-0.649,0.586-1.4,0.685-1.989,0.036c-2.185-2.412-4.232-4.96-6.193-7.506
		c-3.799-4.929-8.314-8.294-14.267-9.909c-2.027-0.55-4.034-1.063-6.04-1.569c3.712,1.276,7.342,2.93,10.846,5.22
		c19.999,13.07,26.576,35.072,34.08,56.955c3.089,9.008,6.356,17.824,9.872,26.46c1.636-1.699,5.536-3.241,6.81-4.01
		C786.944,734.213,789.804,731.97,792.677,729.583z"/>
	<path fill="none" d="M932.949,671.372c-2.34-3.082-4.946-5.79-7.846-8.156C928.003,665.582,930.609,668.291,932.949,671.372z"/>
	<path fill="none" d="M953.162,748.581c-0.777-2.829-1.353-5.721-1.766-8.71c-0.339-2.45-0.64-4.899-0.945-7.348
		c0.305,2.449,0.605,4.898,0.943,7.347C951.806,742.859,952.383,745.752,953.162,748.581z"/>
	<path fill="none" d="M957.152,758.644c-0.065-0.121-0.133-0.241-0.197-0.363c-0.061-0.113-0.1-0.23-0.16-0.343
		c0.06,0.113,0.099,0.23,0.16,0.343C957.019,758.403,957.088,758.523,957.152,758.644z"/>
	<path fill="none" d="M945.516,700.516c-0.044-0.192-0.07-0.385-0.114-0.577c-0.128-0.556-0.294-1.093-0.431-1.645
		c0.136,0.552,0.303,1.089,0.431,1.645C945.446,700.131,945.472,700.325,945.516,700.516z"/>
	<path fill="none" d="M807.627,578.743c0.168,0.32,0.273,0.64,0.234,0.949C807.9,579.383,807.796,579.063,807.627,578.743z"/>
	<path fill="none" d="M528.424,372.102c1.701-3.206,3.989-6.514,7.159-8.721c0.141-0.098,0.306-0.104,0.46-0.167
		c-0.153,0.063-0.319,0.068-0.46,0.166C532.418,365.579,530.112,368.91,528.424,372.102z"/>
	<path fill="none" d="M586.914,531.922c1.101,2.644,2.216,5.282,3.334,7.92c-0.439-1.049-0.848-2.099-1.29-3.148
		C588.29,535.107,587.594,533.512,586.914,531.922z"/>
	<path fill="none" d="M625.074,608.645c-0.251-0.245-0.506-0.484-0.759-0.726c0.876,1.112,1.766,2.219,2.714,3.305
		c6.119,7.019,12.906,12.817,20.245,17.674c-3.689-2.652-7.256-5.59-10.704-8.933C632.67,616.185,628.936,612.411,625.074,608.645z"
		/>
	<path fill="none" d="M804.733,575.121c-2.357-2.858-4.717-5.687-7.269-8.403C800.009,569.422,802.375,572.26,804.733,575.121z"/>
	<path fill="none" d="M763.808,533.474c0.087,0.075,0.177,0.147,0.264,0.221c-0.347-0.294-0.663-0.574-1-0.865
		C763.32,533.044,763.561,533.261,763.808,533.474z"/>
	<path fill="none" d="M533.161,389.605c-0.272,1.885,0.106,3.564,1.154,5.56c0.053,0.102,0.1,0.207,0.153,0.309
		c-0.053-0.103-0.099-0.208-0.152-0.311C533.275,393.14,532.892,391.48,533.161,389.605z"/>
	<path fill="none" d="M534.897,384.669c-0.315,0.699-0.629,1.396-0.914,2.049c-0.359,0.821-0.613,1.575-0.77,2.292
		c0.156-0.712,0.41-1.464,0.769-2.288C534.268,386.065,534.582,385.369,534.897,384.669z"/>
	<path fill="none" d="M737.462,524.517c0.065,0.158,0.126,0.31,0.19,0.475C737.592,524.834,737.526,524.67,737.462,524.517z"/>
	<path fill="none" d="M785.672,554.39c3.92,4.045,7.817,8.11,11.696,12.218c-0.001-0.001-0.001-0.001-0.002-0.002
		C793.471,562.474,789.588,558.429,785.672,554.39z"/>
	<path fill="none" d="M539.407,364.866c-0.136-0.604-0.53-1.034-0.994-1.364C538.877,363.832,539.271,364.263,539.407,364.866
		c0.863,3.823,0.644,7.41-0.717,11.009c-0.681,1.799-1.499,3.69-2.327,5.54c0.827-1.849,1.645-3.736,2.327-5.539
		C540.053,372.271,540.27,368.692,539.407,364.866z"/>
	<path fill="none" d="M737.547,531.319c0.6-0.991,0.874-2.167,0.83-3.24C738.402,529.115,738.136,530.308,737.547,531.319z"/>
	<path fill="none" d="M732.338,532.593c0.879,0.491,1.866,0.696,2.91,0.455C734.198,533.277,733.214,533.077,732.338,532.593z"/>
	<path fill="none" d="M618.906,355.674c-0.149-0.167-0.298-0.334-0.448-0.501C618.608,355.34,618.757,355.507,618.906,355.674z"/>
	<path fill="none" d="M775.227,543.728c2.549,2.583,5.086,5.171,7.612,7.764c-2.36-2.421-4.702-4.832-7.122-7.288
		C775.575,544.059,775.379,543.879,775.227,543.728z"/>
	<path fill="none" d="M725.602,523.039c0.779,1.492,1.557,2.983,2.417,4.46c0.796,1.365,1.468,2.593,2.634,3.792
		c-1.169-1.208-1.837-2.426-2.632-3.791C727.159,526.022,726.381,524.531,725.602,523.039z"/>
	<path fill="none" d="M641.974,383.526c2.885,3.709,5.783,7.399,8.79,10.938c3.022,3.556,5.969,7.203,8.887,10.874
		c-2.918-3.672-5.864-7.318-8.883-10.873C647.763,390.928,644.861,387.236,641.974,383.526z"/>
	<path fill="none" d="M632.766,371.851c0.012,0.015,0.025,0.03,0.038,0.046c0.532,0.65,1.051,1.319,1.579,1.976
		c-0.527-0.656-1.045-1.326-1.577-1.975C632.793,371.882,632.779,371.867,632.766,371.851z"/>
	<path fill="none" d="M714.641,497.77c0.73,1.791,1.459,3.581,2.175,5.398c2.07,5.257,4.166,10.336,6.528,15.323
		c-2.361-4.987-4.454-10.065-6.526-15.323C716.102,501.352,715.371,499.561,714.641,497.77z"/>
	<path fill="none" d="M671.63,421.086c6.203,8.554,12.099,17.287,17.59,26.088c2.271,3.64,4.4,7.28,6.458,10.926
		c-2.059-3.647-4.187-7.286-6.457-10.926C683.733,438.374,677.834,429.641,671.63,421.086z"/>
	<path fill="none" d="M501.665,414.002c-1.978,2.549-4.014,5.096-6.084,7.647C497.67,419.075,499.7,416.53,501.665,414.002z"/>
	<path fill="none" d="M552.33,441.236c-2.883-8.573-5.735-17.103-8.954-25.495C546.579,424.186,549.412,432.776,552.33,441.236z"/>
	<path fill="none" d="M516.796,392.783c-4.428,6.875-9.136,13.434-14.131,19.932C507.702,406.173,512.364,399.671,516.796,392.783z"
		/>
	<path fill="#93A1E5" d="M495.581,421.649c2.07-2.551,4.105-5.098,6.084-7.647c0.333-0.429,0.67-0.859,1-1.287
		c4.996-6.498,9.704-13.057,14.131-19.932c0.083-0.129,0.165-0.261,0.248-0.39c2.229-3.475,4.393-7.026,6.486-10.698
		c1.509-2.647,2.721-5.297,4.16-8.162c0.181-0.361,0.331-0.685,0.523-1.057c0.064-0.124,0.145-0.249,0.211-0.373
		c1.689-3.193,3.994-6.523,7.159-8.721c0.141-0.098,0.306-0.104,0.46-0.166c0.804-0.332,1.68-0.205,2.371,0.287
		c0.464,0.33,0.858,0.76,0.994,1.364c0.863,3.826,0.646,7.405-0.717,11.01c-0.682,1.803-1.5,3.69-2.327,5.539
		c-0.498,1.114-0.989,2.197-1.466,3.254c-0.315,0.699-0.629,1.396-0.915,2.053c-0.359,0.824-0.613,1.576-0.769,2.288
		c-0.045,0.206-0.023,0.394-0.052,0.595c-0.269,1.876,0.114,3.536,1.155,5.558c0.053,0.103,0.099,0.208,0.152,0.311
		c3.41,6.541,6.286,13.353,8.908,20.266c3.219,8.392,6.071,16.922,8.954,25.495c0.56,1.625,1.119,3.25,1.691,4.862
		c10.273,28.995,21.13,57.589,32.893,85.824c0.68,1.59,1.376,3.186,2.044,4.772c0.442,1.049,0.851,2.099,1.29,3.148
		c5.267,12.425,10.698,24.789,16.37,37.075c5.112,11.078,10.21,21.506,17.698,31.003c0.253,0.241,0.508,0.481,0.759,0.726
		c3.862,3.766,7.595,7.539,11.495,11.32c3.448,3.343,7.015,6.281,10.704,8.933c10.241,6.777,21.591,11.664,34.011,14.971
		c13.721,3.655,27.791,3.214,40.795,7.682c2.006,0.506,4.013,1.019,6.04,1.569c5.953,1.615,10.468,4.98,14.267,9.909
		c1.962,2.546,4.008,5.095,6.193,7.506c0.589,0.649,1.34,0.55,1.989-0.036c9.486-1.954,17.635-5.836,25.04-12.07
		c12.71-10.7,21.333-22.774,27.168-38.285c2.705-7.189,3.779-14.538,4.078-22.174c0.22-5.656-0.002-11.365,0.187-17.036
		c0.236-0.176,0.417-0.368,0.552-0.568c0.146-0.217,0.238-0.443,0.267-0.676c0.038-0.309-0.066-0.629-0.234-0.949
		c-0.078-0.146-0.137-0.291-0.258-0.436c-0.886-1.07-1.76-2.123-2.636-3.185c-2.359-2.861-4.724-5.699-7.269-8.403
		c-0.033-0.036-0.063-0.074-0.096-0.109c-3.879-4.108-7.777-8.173-11.696-12.218c-0.932-0.962-1.893-1.935-2.832-2.898
		c-2.526-2.593-5.063-5.181-7.612-7.764c-2.969-2.954-7.56-7.016-10.362-9.348c-0.281-0.234-0.518-0.452-0.792-0.684
		c-0.087-0.075-0.177-0.146-0.264-0.221c-0.248-0.213-0.489-0.43-0.735-0.644c-2.189-1.893-4.222-3.724-5.961-5.177
		c-8.065-6.745-16.374-11.037-24.007-17.814c-0.874-0.776-2.153,0.015-1.645,1.251c1.624,3.947,3.405,7.467,5.225,11.645
		c0.203,0.468,0.492,1.096,0.777,1.782c0.064,0.154,0.13,0.318,0.19,0.475c0.297,0.759,0.572,1.573,0.71,2.363
		c0.037,0.211,0.01,0.482,0.016,0.725c0.044,1.074-0.231,2.25-0.83,3.24c-0.391,0.671-0.872,1.267-1.563,1.562
		c-0.251,0.107-0.491,0.113-0.737,0.167c-1.043,0.241-2.031,0.036-2.91-0.455c-0.527-0.291-1.028-0.637-1.462-1.058
		c-0.083-0.081-0.144-0.162-0.222-0.243c-1.166-1.199-1.838-2.428-2.634-3.792c-0.86-1.478-1.638-2.969-2.417-4.46
		c-0.787-1.506-1.538-3.025-2.259-4.548c-2.361-4.987-4.458-10.066-6.528-15.323c-0.716-1.816-1.445-3.607-2.175-5.398
		c-5.597-13.73-11.679-26.766-18.963-39.669c-2.059-3.647-4.188-7.286-6.458-10.926c-5.491-8.802-11.387-17.534-17.59-26.088
		c-3.871-5.339-7.877-10.586-11.979-15.748c-2.918-3.672-5.865-7.318-8.887-10.874c-3.007-3.539-5.906-7.229-8.79-10.938
		c-2.519-3.238-5.039-6.473-7.591-9.654c-0.528-0.657-1.046-1.326-1.579-1.976c-0.013-0.015-0.026-0.03-0.038-0.046
		c-4.509-5.51-9.13-10.9-13.86-16.177c-0.149-0.167-0.298-0.334-0.448-0.501c-14.415-16.04-29.868-30.994-46.486-44.786
		c-5.62-4.664-11.507-9.046-17.24-12.918c-5.733-3.871-10.746-7.934-16.955-10.311c-7.599-2.908-15.461-1.828-22.344,1.872
		c-8.398,4.513-14.384,10.907-20.064,18.305c-17.746,23.109-33.954,47.215-49.872,71.508c-3.325,5.286-6.643,10.577-9.905,15.883
		c-4.444,7.227-9.372,14.442-13.972,21.658c-1.438,2.254-2.779,4.56-4.264,6.881c-2.527,3.952-4.688,7.997-7.524,11.879
		c-10.384,14.211-20.668,28.604-30.848,43.073c-1.462,2.078-3.945,3.361-4.643,6.038c4.33-0.082,6.374,3.056,8.359,6.273
		c5.473,8.873,12.459,14.813,20.653,20.944c2.194,1.642,4.4,3.04,7.221,2.602c0.749-0.117,1.539-0.731,2.067-1.298
		c7.5-8.045,15.337-16.259,23.109-24.426c19.74-21.826,40.149-42.616,58.537-65.098
		C494.726,422.714,495.145,422.185,495.581,421.649z"/>
	<path fill="#93A1E5" d="M956.955,758.281c-0.061-0.113-0.1-0.23-0.16-0.343c-1.59-3.039-2.755-6.154-3.634-9.358
		c-0.778-2.829-1.355-5.722-1.768-8.71c-0.338-2.449-0.638-4.898-0.943-7.347c-1.338-10.726-2.54-21.434-4.934-32.007
		c-0.044-0.192-0.07-0.385-0.114-0.577c-0.128-0.556-0.294-1.093-0.431-1.645c-1.941-7.887-4.643-15.356-8.913-22.404
		c-0.971-1.603-2.021-3.087-3.109-4.518c-2.34-3.081-4.946-5.79-7.846-8.156c-3.196-2.607-6.75-4.809-10.667-6.689
		c-0.83-0.398-1.65-0.803-2.513-1.172c-1.644-0.704-3.344-1.253-5.059-1.74c-2.617-0.742-5.278-1.263-7.922-1.61
		c-0.875-0.115-1.753-0.238-2.62-0.319c-1.795-0.167-3.438-0.32-5.051-0.45c-2.46-0.195-4.878-0.279-7.489-0.172
		c-0.639,0.027-1.252,0.03-1.926,0.086c-1.767,0.147-3.444-0.04-5.072-0.431c-2.421-0.572-4.727-1.624-7.002-2.915
		c-0.74-0.413-1.478-0.839-2.218-1.283c-0.286-0.172-0.57-0.374-0.854-0.555c-0.824-0.465-1.673-0.715-2.535,0.157
		c-0.021,0.022-0.04,0.031-0.061,0.055c-5.992,6.675-11.179,13.316-15.698,21.424c-4.517,8.109-10.37,16.48-16.431,23.657
		c-6.062,7.177-12.783,13.722-19.385,20.122c-6.601,6.4-12.934,12.392-19.923,18.2c-2.873,2.387-5.734,4.63-8.99,6.594
		c-1.274,0.769-5.174,2.311-6.81,4.01c6.428,15.79,13.796,30.926,22.51,45.466c11.968-1.451,23.114-5.314,34.495-9.029
		c15.129-4.938,29.973-9.971,45.212-14.671c5.952-1.836,11.965-2.743,18.31-2.145c9.525,0.899,18.403,1.927,28.006,4.165
		c9.602,2.237,19.728,5.363,29.25,8.979c3.433,1.304,6.679,1.599,9.561-1.197c-1.012-1.959-2.068-3.903-3.127-5.846
		c-1.318-2.419-2.641-4.837-3.943-7.265C957.088,758.523,957.019,758.403,956.955,758.281z"/>
	<path fill="#3F3E40" d="M791.722,844.131c16.544-4.153,33.24-7.189,49.488-12.608c5.905-1.97,11.65-3.911,17.768-5.712
		c6.118-1.801,12.073-4.477,17.774-7.676c2.288-1.283,4.792-2.375,6.014-4.897c-2.642-2.127-5.397-0.709-8.108,0.037
		c-5.931,1.632-11.389,3.428-17.13,5.092c-7.833,2.27-15.576,4.412-23.417,6.528c-6.271,1.693-12.517,3.314-18.834,4.812
		c-7.899,1.874-15.923,3.056-23.76,5.24c-16.656,4.641-33.363,9.264-50.121,13.579c-6.79,1.748-13.665,3.393-20.644,3.92
		c-9.211,0.696-18.346,0.978-27.53,1.431c-15.782,0.779-31.033,2.988-46.638,5.749c-15.604,2.762-31.054,7.181-46.842,9.468
		c-11.184,1.621-22.289,3.982-33.611,5.06c-20.393,1.94-40.849,4.131-61.244,6.408c-9.666,1.079-19.379,1.733-29.007,3.257
		c-14.485,2.292-28.359,6.409-42.418,10.688c-2.843,0.865-5.488,2.16-7.471,4.539c-0.643,0.771-0.126,2.373,0.773,2.572
		c0.899,0.199,1.638,0.351,2.398,0.191c7.24-1.53,14.177-3.055,21.368-4.815c10.671-2.611,20.603-5.393,31.722-7.169
		c11.119-1.776,22.982-3.339,34.456-4.756c19.47-2.404,39.086-5.138,58.635-7.602c16.309-2.055,32.51-5.359,48.71-8.269
		c6.637-1.192,13.188-2.875,19.876-3.875c15.317-2.29,30.581-3.264,46.071-3.1c6.769,0.071,13.511,0.192,20.28,0.167
		c2.157-0.008,4.331-0.188,6.444-0.605c9.82-1.939,19.629-3.793,29.365-6.103C761.366,852.056,776.484,847.956,791.722,844.131z"/>
	<path fill="#3F3E40" d="M736.255,900.646c0.801,0.291,2.65,0.845,3.825,0.874c11.826,0.295,26.264,1.185,37.501,1.278
		c19.253,0.16,36.242-0.05,54.821-1.716c2.841-0.255,5.38-0.266,8.093-0.29c17.663-0.159,35.05-1.327,52.668-2.331
		c10.316-0.588,20.288-2.171,30.459-4.565c12.314-2.898,22.389-8.228,31.06-17.569c1.272-1.371,2.418-3.046,3.222-4.555
		c0.803-1.509,0.373-2.588-0.715-3.673c-1.087-1.085-2.648-0.303-3.484,0.385c-0.836,0.688-1.145,1.246-1.605,1.898
		c-3.578,5.091-8.011,8.538-13.662,10.892c-8.356,3.483-16.993,5.173-25.769,6.881c-17.692,3.443-35.271,4.125-53.219,3.98
		c-9.776-0.079-19.436-0.334-29.176,0.367c-21.863,1.573-43.67,3.058-65.598,3.367c-7.822,0.11-15.628,0.773-23.467,1.297
		c-1.878,0.126-3.768,0.41-5.281,1.612c-0.201,0.16-0.66,0.234-0.516,0.587C735.557,899.718,735.456,900.354,736.255,900.646z"/>
	<path fill="#3F3E40" d="M297.522,910.478c8.391-3.045,16.742-6.068,25.047-9.395c4.785-1.917,9.437-3.789,13.707-6.94
		c28.631-21.128,53.261-39.771,68.679-73.795c18.838-41.568,19.918-87.936,12.498-133.059
		c-4.084-24.842-13.281-46.442-25.054-68.535c-4.447-8.348-9.826-16.46-17.764-22.194c11.077-19.988,19.708-42.396,33.044-60.879
		c23.503-32.575,53.354-59.396,79.895-88.671c7.548-8.326,14.234-16.246,20.906-24.198c6.672-7.952,11.65-14.895,17.49-22.889
		c1.334-1.827,2.623-1.608,3.535,0.35c1.482,3.181,2.855,6.444,3.945,9.922c7.162,22.85,14.237,46.031,20.83,69.052
		c2.804,9.798,6.281,18.94,10.727,28.038c1.595,3.262,2.884,6.549,4.328,9.855c3.441,7.881,6.724,15.806,10.153,23.69
		c1.882,4.325,3.623,8.568,5.576,12.881c4.594,10.149,7.408,20.351,12.769,30.397c21.008,39.359,50.742,63.945,94.473,74.139
		c15.43,3.597,30.412,2.956,43.046,13.167c5.593,4.52,8.699,10.22,11.933,16.324c11.9,22.455,19.913,45.656,26.382,70.191
		c-68.783-9.632-134.721,5.102-203.17,10.822c-27.516,2.299-54.556,1.927-80.434,12.657c-3.935,1.631-7.548,4.953-5.857,9.128
		c0.565,1.396,1.904,1.936,3.256,2.508c28.344,11.989,55.223,14.087,85.011,6.474c4.056-1.036,7.57-3.618,6.942-7.886
		c-31.446,6.139-60.317,5.107-91.21-3.361c31.849-8.377,63.726-13.238,96.42-17.485c62.079-8.065,123.088-14.031,185.624-7.438
		c2.258,0.238,4.559,0.825,6.288,2.019c1.728,1.194,2.602,2.771,3.6,4.399c7.323,11.939,14.502,23.785,21.734,35.806
		c-36.558-10.718-73.633-4.984-111.01-7.86c-29.041-2.234-56.795-11.197-86.027-12.296c-6.205-0.233-12.228,0.515-17.402,4.339
		c46.638,7.44,92.969,14.28,140.253,15.961c19.007,0.676,37.724-0.174,56.699,2.878c11.999,1.93,22.879,6.108,32.045,14.283
		c1.435,1.279,2.636,3.173,4.689,2.563c4.263-1.269,1.466-6.858-0.512-9.285c-0.196-0.242-0.502-0.575-0.751-0.886
		c-7.672-9.551-14.375-19.448-20.469-29.613c-8.714-14.54-16.083-29.676-22.51-45.466c-3.516-8.636-6.783-17.452-9.872-26.46
		c-7.504-21.883-14.081-43.885-34.08-56.955c-3.504-2.29-7.134-3.944-10.846-5.22c-13.004-4.469-27.074-4.028-40.795-7.682
		c-12.42-3.307-23.771-8.194-34.011-14.971c-7.339-4.857-14.126-10.655-20.245-17.674c-0.947-1.086-1.837-2.193-2.714-3.305
		c-7.488-9.497-12.585-19.925-17.698-31.003c-5.671-12.286-11.103-24.65-16.37-37.075c-1.118-2.637-2.233-5.276-3.334-7.92
		c-11.763-28.235-22.62-56.829-32.893-85.824c-0.572-1.612-1.13-3.237-1.691-4.862c-2.917-8.46-5.75-17.05-8.954-25.495
		c-2.622-6.914-5.497-13.725-8.908-20.266c-0.053-0.102-0.1-0.208-0.153-0.309c-1.047-1.996-1.425-3.675-1.154-5.56
		c0.029-0.201,0.007-0.388,0.052-0.595c0.157-0.716,0.411-1.471,0.77-2.292c0.285-0.653,0.599-1.35,0.914-2.049
		c0.476-1.056,0.968-2.14,1.466-3.254c0.828-1.85,1.646-3.741,2.327-5.54c1.361-3.599,1.581-7.186,0.717-11.009
		c-0.136-0.603-0.53-1.034-0.994-1.364c-0.691-0.492-1.566-0.619-2.371-0.287c-0.153,0.063-0.319,0.069-0.46,0.167
		c-3.17,2.207-5.458,5.514-7.159,8.721c-0.066,0.124-0.147,0.249-0.211,0.373c-0.192,0.372-0.342,0.696-0.523,1.057
		c-1.441,2.868-2.624,5.48-4.157,8.161c-2.12,3.702-4.277,7.248-6.488,10.699c-0.083,0.129-0.165,0.261-0.248,0.39
		c-4.431,6.888-9.094,13.39-14.131,19.932c-0.33,0.428-0.667,0.859-1,1.287c-1.964,2.528-3.994,5.073-6.084,7.647
		c-0.435,0.536-0.855,1.065-1.296,1.604c-18.388,22.482-38.797,43.272-58.537,65.098c-3.918,4.332-7.818,8.69-11.661,13.126
		c-12.018,13.871-24.942,29.41-35.159,45.196c-10.217,15.786-15.584,34.038-24.632,50.457c-1.697,3.081-3.469,5.562-6.804,7.012
		c-1.391,0.604-2.088,1.868-1.795,3.388c0.291,1.52,1.057,2.44,2.518,3.067c2.785,1.194,4.108-0.233,7.167-0.518
		c26.159-2.435,40.494,70.879,42.17,85.478c7.571,65.953,1.624,119.315-44.595,165.589
		c-48.552,48.611-108.936,54.143-173.627,45.546c-10.909-1.45-19.986-5.864-30.096-10.571
		c-34.606-16.112-60.97-42.864-81.111-74.849c-9.638-15.306-11.018-30.605-13.094-47.811c-2.76-22.877-2.423-45.883,3.051-68.286
		c4.967-20.322,12.471-39.71,23.476-57.103c11.829-18.693,27.658-31.863,43.28-46.934c3.378-3.259,7.268-5.978,11.26-8.477
		c2.107-1.319,4.342-2.425,6.446-3.778c9.593-6.168,19.334-12.067,29.509-17.197c7.139-3.599,13.894-5.797,21.56-8.734
		c7.666-2.936,15.489-8.391,24.259-7.283c4.211,0.532,7.367,3.198,10.898,5.357c14.766,9.025,30.725,13.644,46.538,20.699
		c15.814,7.055,28.8,19.262,45.27,25.721c2.07,0.812,4.855,0.958,7.599,0.131c0.333-0.1,2.508-1.093,2.393-2.51
		c-0.116-1.416-0.206-2.524-1.772-3.561c-1.566-1.036-3.605-2.261-5.454-3.283c-14.527-8.027-28.933-17.213-43.782-24.516
		c-14.85-7.304-30.781-10.866-45.416-18.439c-5.569-2.882-10.527-6.824-15.415-10.502c-2.483-1.869-4.537-1.071-7.096-0.432
		c-2.559,0.639-4.837,0.929-7.169,1.847c-4.971,1.957-10.096,2.382-14.972,4.912c-59.572,30.905-108.112,62.033-135.757,127.602
		c-23.958,56.821-16.534,123.486,21.931,173.408c3.072,3.988,6.709,6.955,10.06,10.046c8.884,8.192,17.159,16.508,26.985,23.558
		c7.867,5.644,16.683,10.414,25.527,14.355c12.752,5.682,26.27,11.349,39.763,13.63c13.494,2.281,26.124,4.072,39.375,4.936
		c20.831,1.359,40.453-1.825,60.817-5.473C291.392,912.583,294.474,911.584,297.522,910.478z"/>
	<path fill="#3F3E40" d="M721.623,898.659c-16.427,2.905-34.47,3.353-50.638,3.328c-10.538-0.016-22.085,0.211-31.101,0.351
		c-11.495,0.178-21.284,0.006-31.319-0.317c-25.799-0.83-49.377,0.901-74.529,4.383c-2.991,0.414-5.729,1.229-8.709,1.867
		c-0.536,0.115-0.925,0.288-1.526,0.598c-0.602,0.31-1.368,1.008-0.946,1.715c0.421,0.706,1.307,1.091,1.737,1.377
		c0.429,0.285,0.57,0.167,0.836,0.145c5.413-0.429,10.763-0.883,16.131-1.464c11.031-1.192,22.019-2.42,33.121-2.356
		c12.982,0.074,25.934,0.745,38.913,0.83c17.847,0.116,35.669,0.075,53.525-0.083c8.11-0.072,16.188-0.24,24.297-0.866
		c10.273-0.793,20.346-2.177,30.452-4.415c2.105-0.466,4.203-0.899,5.78-2.557c0.323-0.339,0.503-0.963,0.446-1.422
		c-0.059-0.458-0.482-0.932-0.866-1.06C725.396,898.103,723.44,898.337,721.623,898.659z"/>
	<path fill="#3F3E40" d="M1129.07,755.321c3.738,3.669,6.786,7.581,8.449,12.625c4.976,15.094,5.807,28.942,1.622,44.308
		c-1.512,5.554-3.188,10.811-3.773,16.523c-0.358,3.501-1.176,6.917-1.578,10.4c-0.402,3.483-2.441,6.759-4.61,9.025
		c-2.168,2.267-4.636,4.406-6.123,6.364c-1.487,1.958-0.692,3.065,1.345,3.709c2.036,0.644,4.752-0.033,6.742-1.536
		c5.575-4.208,9.85-8.923,10.974-16.074c1.714-10.904,3.439-22.904,5.955-33.174c0.708-2.892,0.917-6.402,0.866-7.86
		c-0.426-11.928-1.847-23.131-6.08-33.361c-4.233-10.231-11.27-14.861-19.622-20.928c-0.467-0.34-1.872,0.071-2.08,0.45
		c-0.207,0.379,0.079,1.609,0.511,2.102C1123.929,750.48,1126.59,752.888,1129.07,755.321z"/>
	<path fill="#3F3E40" d="M1039.063,903.943c3.766,0.518,7.482,0.963,11.266,1.087c7.321,0.239,14.508,0.299,21.866,0.443
		c4.66,0.091,8.893-0.273,13.563-1.55c6.594-1.802,12.805-3.383,19.864-2.413c15.479,2.127,27.388-2.145,39.46-11.811
		c2.488-1.993,3.844-4.427,4.388-7.495c1.801-10.168-1.128-18.02-6.798-26.464c-0.409-0.609-1.436-0.838-1.94-0.385
		c-0.505,0.454-0.455,1.02-0.36,1.481c0.93,4.524,2.911,8.696,3.342,13.336c0.687,7.367-0.886,12.961-7.487,17.248
		c-9.859,6.403-20.142,9.178-32.017,8.561c-4.092-0.213-7.982-0.03-12.033,0.958c-10.117,2.467-19.981,3.602-30.381,2.664
		c-0.268-0.024-0.639-0.016-0.782-0.012c-0.142,0.004-0.005,0.026-0.034,0.026c-4.613-0.04-9.17-0.196-13.778-0.083
		c-2.692,0.066-5.337,0.528-8.014,0.934c-1.042,0.158-1.99,1.145-1.85,2.067C1037.479,903.458,1038.396,903.851,1039.063,903.943z"
		/>
	<path fill="#3F3E40" d="M1063.485,825.949c-5.355-0.315-10.849-0.532-15.87-2.472c-1.954-0.755-4.331-1.833-6.09-1.612
		c-1.76,0.221-1.769,0.674-1.844,2.295c-0.076,1.621,1.566,3.438,3.061,4.307c4.018,2.333,9.361,3.627,13.463,3.485
		c2.11-0.073,3.316,0.049,4.432,0.029c6.451-0.121,10.166-2.647,12.726-8.176c2.562-5.529,1.96-10.231-0.8-15.443
		c-1.108-2.091-3.52-3.747-2.578-6.375c0.942-2.629,3.991-2.149,6.154-3.156c6.678-3.106,11.682-7.249,15.979-13.255
		c1.281-1.79,2.206-3.646,2.198-5.947c-0.003-0.491-0.253-0.921-0.677-1.431c-0.424-0.51-1.51-0.584-2.102-0.29
		c-0.593,0.293-0.993,0.501-1.381,0.861c-5.973,5.568-12.508,8.976-20.117,11.725c-2.518,0.911-4.966,2.314-6.972,3.978
		c-3.645,3.025-4.243,5.617-1.932,9.802c1.683,3.048,4.062,5.557,6.175,8.542c2.114,2.985,2.701,6.263,1.178,9.809
		C1067.556,824.794,1065.96,826.094,1063.485,825.949z"/>
	<path fill="#3F3E40" d="M1024.676,889.157c1.193-0.138,2.851-1.143,3.552-1.347c0.703-0.204,0.661-0.179,0.911-0.241
		c2.578-0.647,5.709-1.831,7.89-2.65c2.179-0.819,3.516-1.351,5.415-1.99c3.185-1.071,5.902-1.888,9.217-2.509
		c3.316-0.62,6.442-0.548,9.93-1.468c3.487-0.921,6.964-2.469,10.57-3.887c8.768-3.449,17.191-5.368,26.758-4.102
		c2.393,0.317,4.816,0.733,7.11-0.497c0.659-0.354,1.413-0.722,1.54-1.716c0.128-0.994-0.684-1.806-1.876-2.017
		c-3.702-0.655-7.294-1.843-11.126-2.168c-9.467-0.803-18.069-0.05-26.831,3.855c-4.053,1.806-7.81,3.339-12.224,4.265
		c-4.412,0.926-8.969,2.059-13.052,4.138c-6.511,3.317-13.318,6.009-20.089,8.532c-1.222,0.456-1.646,0.965-0.993,2.106
		C1022.033,888.601,1023.483,889.296,1024.676,889.157z"/>
	<path fill="#3F3E40" d="M979.65,883.206c5.249,0.435,11.048,0.631,15.923-0.7c4.876-1.331,8.877-1.951,13.588-2.443
		c2.472-0.258,4.938-0.46,7.175-1.067c6.431-1.745,7.789-8.138,3.905-13.081c-1.009-1.283-1.832-1.587-3.2-2.629
		c-1.367-1.041-3.833-2.401-5.325-3.431c-4.996-3.445-6.26-5.529-7.249-11.422c-3.248,4.072-3.892,7.613-0.846,11.947
		c1.922,2.735,4.796,4.388,7.279,6.31c1.431,1.109,3.302,2.39,4.325,3.413c1.024,1.023,0.45,2.285-0.437,2.75
		c-0.887,0.465-2.063,0.607-3.107,0.695c-10.535,0.881-20.506,4.03-30.807,6.262c-0.522,0.113-1.056,0.2-1.501,0.549
		c-0.444,0.35-0.782,0.54-0.942,1.238C978.269,882.295,978.841,883.14,979.65,883.206z"/>
	<path fill="#3F3E40" d="M466.454,911.978c-8.695,0.396-17.873,0.249-26.494-1.705c-1.523-0.345-3.463-0.427-4.734-0.476
		c-1.272-0.049-1.53,0.716-1.558,1.383c-0.028,0.667,0.133,1.201,0.527,1.42c5.206,2.902,8.841,4.916,15.145,5.978
		c6.306,1.062,13.452,1.503,20.624,1.145c2.317-0.116,7.082-0.271,9.883-0.546c2.801-0.276,7.005-0.781,9.451-1.368
		c2.446-0.587,4.708-0.996,4.723-3.6c0.015-2.605-2.76-2.973-5.963-2.915C481.759,911.407,473.535,911.655,466.454,911.978z"/>
	<path fill="#3F3E40" d="M993.179,843.768c4.788-0.01,6.964,1.006,10.795-0.692c0.94-0.417,1.012-1.03,0.23-1.97
		c-0.783-0.94-2.572-1.863-4.151-2.109c-5.249-0.82-10.581-2.162-15.94-2.671c-7.561-0.718-13.425,2.296-19.246,6.704
		c-1.964,1.486-3.221,4.238-3.768,5.98c-0.843,2.682-1.474,6.294,1.147,7.336c2.621,1.042,4.661-1.063,5.897-3.023
		c2.736-4.337,7.408-6.37,11.746-7.704C984.227,844.283,989.732,843.775,993.179,843.768z"/>
	<path fill="#3F3E40" d="M515.433,289.03c6.884-3.699,14.745-4.78,22.344-1.872c6.209,2.377,11.223,6.44,16.955,10.311
		c5.734,3.872,11.62,8.254,17.24,12.918c16.618,13.792,32.07,28.746,46.486,44.786c0.15,0.167,0.299,0.334,0.448,0.501
		c4.729,5.277,9.351,10.667,13.86,16.177c0.013,0.016,0.027,0.031,0.04,0.047c0.531,0.649,1.05,1.319,1.577,1.975
		c2.552,3.18,5.071,6.416,7.591,9.654c2.887,3.71,5.79,7.402,8.794,10.939c3.019,3.555,5.965,7.202,8.883,10.873
		c4.103,5.162,8.108,10.409,11.979,15.748c6.203,8.554,12.102,17.288,17.591,26.089c2.27,3.64,4.398,7.279,6.457,10.926
		c7.283,12.903,13.365,25.939,18.963,39.669c0.73,1.791,1.461,3.582,2.177,5.399c2.072,5.257,4.165,10.335,6.526,15.323
		c0.721,1.523,1.472,3.042,2.259,4.548c0.779,1.492,1.557,2.983,2.419,4.461c0.795,1.365,1.463,2.583,2.632,3.791
		c0.078,0.081,0.139,0.162,0.222,0.243c0.434,0.422,0.935,0.767,1.462,1.058c0.876,0.484,1.86,0.684,2.91,0.455
		c0.246-0.054,0.486-0.059,0.737-0.167c0.69-0.294,1.172-0.891,1.563-1.562c0.589-1.011,0.855-2.205,0.83-3.24
		c-0.006-0.244,0.021-0.514-0.016-0.725c-0.138-0.789-0.413-1.603-0.71-2.363c-0.064-0.165-0.124-0.317-0.19-0.475
		c-0.285-0.685-0.574-1.314-0.777-1.782c-1.82-4.178-3.601-7.698-5.225-11.645c-0.508-1.236,0.771-2.027,1.645-1.251
		c7.633,6.777,15.942,11.069,24.007,17.814c1.738,1.453,3.772,3.285,5.961,5.177c0.336,0.291,0.653,0.571,1,0.865
		c0.275,0.233,0.511,0.451,0.792,0.684c2.802,2.332,7.394,6.394,10.362,9.348c0.152,0.151,0.347,0.332,0.49,0.477
		c2.419,2.455,4.762,4.867,7.122,7.288c0.939,0.963,1.9,1.936,2.832,2.898c3.917,4.039,7.8,8.084,11.694,12.216
		c0.001,0.001,0.001,0.001,0.002,0.002c0.034,0.036,0.064,0.074,0.096,0.109c2.552,2.716,4.913,5.545,7.269,8.403
		c0.876,1.062,1.75,2.115,2.636,3.185c0.12,0.145,0.18,0.291,0.258,0.436c0.169,0.32,0.273,0.64,0.234,0.949
		c-0.029,0.233-0.121,0.459-0.267,0.676c-0.135,0.203-0.316,0.398-0.552,0.581c2.165-0.938,3.467,0.68,4.508,2.161
		c5.271,7.496,11.081,14.065,17.037,20.833c4.332,4.921,8.38,9.976,12.363,15.151c5.295,6.879,11.582,13.008,17.741,18.969
		c1.733,1.676,3.82,3.616,5.158,5.037c1.339,1.421,0.566,1.695,0.301,3.04c0.008-0.008,0.016-0.007,0.024-0.015
		c0.862-0.872,1.711-0.622,2.535-0.157c0.291,0.165,0.58,0.352,0.865,0.529c0.734,0.457,1.469,0.891,2.206,1.309
		c2.276,1.291,4.581,2.343,7.002,2.915c1.63,0.385,3.31,0.568,5.074,0.427c0.674-0.054,1.285-0.056,1.924-0.083
		c2.611-0.107,5.029-0.023,7.489,0.172c1.615,0.128,3.257,0.279,5.052,0.448c0.866,0.082,1.744,0.205,2.619,0.32
		c2.645,0.347,5.305,0.868,7.922,1.61c1.716,0.486,3.415,1.035,5.059,1.739c0.863,0.369,1.683,0.775,2.513,1.173
		c3.917,1.88,7.471,4.082,10.667,6.689c2.899,2.365,5.506,5.074,7.846,8.156c1.087,1.431,2.137,2.915,3.109,4.518
		c4.271,7.048,6.972,14.517,8.913,22.404c0.136,0.552,0.303,1.089,0.431,1.645c0.044,0.192,0.07,0.385,0.114,0.577
		c2.394,10.573,3.596,21.281,4.934,32.007c0.305,2.449,0.606,4.898,0.945,7.348c0.414,2.989,0.989,5.881,1.766,8.71
		c0.879,3.203,2.044,6.319,3.634,9.358c0.06,0.113,0.099,0.23,0.16,0.343c0.064,0.121,0.132,0.242,0.197,0.363
		c1.302,2.428,2.625,4.846,3.943,7.265c1.06,1.943,2.118,3.887,3.141,5.846c5.6,2.833,10.648,5.834,16.923,6.835
		c3,0.479,4.644,1.387,6.438,4.19c1.795,2.803,4.669,5.921,7.217,8.308c1.041,0.975,2.018,2.218,2.972,0.63
		c0.956-1.588-0.418-3.02-1.272-4.37c-2.003-3.17-4.205-6.259-5.394-9.915c-3.141-9.648-5.076-19.153-5.178-29.345
		c-0.021-2.163,0.126-4.243,0.678-6.432c0.554-2.19,1.84-3.629,4.194-4.339c5.088-1.534,10.502-1.947,15.855-2.56
		c3.322-0.38,6.277-0.762,8.953-3.017c1.569-1.323,3.099-1.717,5.202-1.813c4.9-0.223,8.178-1.235,10.002-6.243
		c0.085-0.233,0.005-0.144,0.531-0.769c0.527-0.625,2.318-1.491,3.346-0.666c1.027,0.825,1.625,1.432,2.502,2.137
		c9.412,7.556,18.196,11.036,30.377,9.854c1.237-0.12,3.068-0.113,4.314,0.089c10.938,1.777,21.002,3.206,30.608,8.994
		c1.59,0.957,3.549,1.699,5.313,1.375c1.764-0.324,2.805-1.871,2.164-3.558c-0.64-1.687-2.041-3.154-3.779-4.005
		c-7.636-3.739-14.86-7.3-23.387-8.939c-7.092-1.363-13.727-1.567-20.571,1.419c-1.827,0.797-3.637,0.47-5.446-0.362
		c-4.966-2.283-9.861-4.279-14.289-7.563c-1.931-1.432-3.831-2.875-6.043-3.995c-2.214-1.119-4.917-1.606-7.224-0.517
		c-3.647,1.722-4.701,4.974-6.493,8.285c-3.923-0.299-6.59-0.153-10.203,1.355c-3.613,1.508-7.449,0.191-11.089,1.501
		c-1.257,0.452-2.404,1.254-3.368,2.143c-2.066,1.9-4.022,1.898-6.64,1.595c-8.444-0.978-13.041,2.306-14.243,10.748
		c-0.345,2.426-0.033,4.875,0.17,7.272c0.428,5.075,1.305,10.247,1.831,15.248c0.333,3.16-0.572,3.53-3.567,2.897
		c-0.929-0.196-2.078-0.37-3.127-0.794c-3.624-1.462-5.839-2.776-7.206-6.978c-1.367-4.202-2.911-9.258-3.191-14.047
		c-0.663-11.267-2.217-23.471-3.811-34.452c-1.595-10.981-4.44-20.431-8.534-30.43c-1.665-4.064-3.402-8.005-6.217-11.323
		c-10.523-12.404-22.43-20.175-38.13-24.236c-7.108-1.838-14.344-2.895-21.467-3.615c-9.975-1.008-17.074-5.138-23.601-12.381
		c-10.12-11.233-19.045-22.154-29.141-33.6c-3.675-4.165-8.699-10.571-12.153-14.885c-9.717-12.138-19.448-23.151-29.823-34.346
		c-14.932-16.113-31.413-29.628-49.489-42.036c-1.208-0.829-2.338-1.853-3.302-2.905c-3.873-4.222-8.914-8.517-12.533-12.587
		c-3.619-4.07-5.172-7.958-7.731-12.471c-2.559-4.513-5.565-10.87-7.803-15.161c-11.098-21.29-23.487-40.478-38.611-58.644
		c-10.942-13.143-21.748-26.146-32.452-39.272c-17.976-22.044-37.591-41.823-59.814-59.368
		c-9.059-7.152-18.375-13.272-28.475-18.477c-8.519-4.391-17.027-6.544-26.446-5.972c-6.445,0.392-11.972,2.476-17.389,5.53
		c-5.415,3.054-10.077,6.835-14.431,11.118c-8.986,8.838-15.97,18.856-22.835,29.359c-1.509,2.308-2.849,4.522-4.312,6.938
		c-35.294,58.265-69.969,116.164-112.106,170.019c-4.886,6.245-10.845,12.574-18.294,16.285c-7.447,3.711-16.001,3.431-24.189,2.741
		c-23.762-2.003-46.885-7.108-70.763-7.767c-5.542-0.153-11.184,0.393-16.342,2.948c-5.157,2.555-8.793,7.488-8.876,13.222
		c-0.038,2.662,2.281,5.264,4.686,3.807c1.027-0.623,0.911-1.888,1.455-2.997c4.305-8.765,13.928-9.05,22.622-8.135
		c16.977,1.787,33.289,4.266,50.309,5.459c12.004,0.841,23.565,2.876,35.552-1.554c11.987-4.429,22.944-14.481,31.187-24.452
		c32.294-39.069,59.024-81.78,86.639-123.925c15.917-24.293,32.126-48.399,49.872-71.508
		C501.049,299.938,507.035,293.543,515.433,289.03z"/>
</g>
</svg>
