<?xml version="1.0" encoding="utf-8"?>
<!-- Designed by Vexels.com - 2019 All Rights Reserved - https://vexels.com/terms-and-conditions/  -->
<svg version="1.1" id="Layer_1" xmlns="http://www.w3.org/2000/svg" xmlns:xlink="http://www.w3.org/1999/xlink" x="0px" y="0px"
	 viewBox="0 0 1200 1200" enable-background="new 0 0 1200 1200" xml:space="preserve">
<g>
	<path fill="none" d="M602.304,941.108c0.341-1.452,0.677-2.906,1.003-4.362C602.981,938.202,602.646,939.656,602.304,941.108z"/>
	<path fill="none" d="M607.022,918.3c0.211-1.171,0.437-2.339,0.64-3.512C607.459,915.961,607.234,917.129,607.022,918.3z"/>
	<path fill="none" d="M600.662,947.8c-0.492,1.935-0.972,3.872-1.495,5.799c0.278-1.035,0.564-2.073,0.835-3.107
		C600.235,949.597,600.435,948.695,600.662,947.8z"/>
	<path fill="none" d="M604.763,929.962c0.29-1.401,0.586-2.8,0.862-4.203C605.349,927.162,605.054,928.561,604.763,929.962z"/>
	<path fill="none" d="M506.802,670.439c7.243,23.43,14.488,46.86,21.567,70.338C521.29,717.299,514.046,693.869,506.802,670.439z"/>
	<path fill="none" d="M413.095,642.489c1.069-0.685,2.135-1.381,3.205-2.061c10.063-6.389,19.855-13.196,29.963-19.508
		c9.315-5.816,19.587-8.567,30.617-8.287c6.239-17.301,11.904-34.807,15.529-52.838c6.501-32.344,5.864-64.6-2.66-96.581
		c-1.982-7.436-4.285-14.799-4.787-22.548c3.823-1.254,7.677-2.307,11.557-3.176c-3.88,0.869-7.734,1.922-11.557,3.176
		c-14.241,1.079-26.094,8.969-38.032,15.718c-6.194,3.502-12.175,7.355-18.122,11.263c-20.318,13.351-42.168,23.12-65.513,29.538
		c-3.215,0.884-6.849,1.181-9.034,4.334c21.494,45.452,42.689,91.028,58.43,138.9C413.227,641.148,413.313,641.856,413.095,642.489z
		"/>
	<path fill="#93A1E5" d="M819.591,445.12c-22.213,4.734-45.192,4.973-68.172,3.065c-34.438-2.859-67.97-11.367-102.239-15.009
		c-21.822-2.32-43.615-6.021-65.669-2.87c-17.085,2.441-34.172,4.251-51.495,3.882c-11.979-0.256-23.856,0.694-35.498,3.301
		c-3.88,0.869-7.734,1.922-11.557,3.176c0.501,7.749,2.805,15.113,4.787,22.548c8.524,31.981,9.161,64.237,2.66,96.581
		c-3.625,18.031-9.29,35.537-15.529,52.838h0.001c8.404,2.602,13.172,8.311,16.352,15.303c1.06,2.331,1.943,4.804,2.725,7.352
		c3.601,11.721,7.222,23.436,10.844,35.151c7.243,23.43,14.488,46.86,21.567,70.338c3.539,11.739,7.037,23.49,10.473,35.26
		c6.607,22.631,13.857,45.311,13.131,69.46c-0.454,22.437,1.234,44.991,2.25,67.394c0.483,10.642,0.931,21.345,1.159,32.056
		c0.367,12.42,0.413,24.847-0.283,37.291c-0.016,0.29,0.564,0.612,0.865,0.92c11.184,3.205,22.396,2.6,33.613,0.264
		c3.614-9.581,6.713-19.294,9.398-29.111c0.064-0.238,0.128-0.476,0.192-0.714c0.523-1.927,1.003-3.864,1.495-5.799
		c0.566-2.226,1.116-4.456,1.642-6.692c0.341-1.452,0.677-2.906,1.003-4.362c0.506-2.257,0.988-4.519,1.456-6.785
		c0.291-1.401,0.586-2.8,0.862-4.203c0.489-2.482,0.947-4.969,1.397-7.459c0.211-1.171,0.437-2.339,0.64-3.512
		c0.635-3.662,1.239-7.329,1.799-11.002c2.739-17.943,4.253-35.96,0.146-53.963c-9.655-42.324-11.349-85.273-10.395-128.476
		c0.57-25.852-0.192-51.672-1.477-77.534c-1.613-32.48-14.435-62.949-15.138-95.566c-0.274-12.697-0.646-14.687,11.524-16.903
		c2.328-0.424,4.691-0.638,7.055-0.714c46.157-1.482,91.229-10.693,136.381-19.158c27.925-5.236,55.72-13.452,83.953-14.096
		c47.69-1.087,94.212-8.848,140.767-17.589c2.761-10.87,2.748-21.613-1.47-32.164c-12.358-1.535-24.701-3.196-37.074-4.584
		C888.942,439.138,854.414,437.7,819.591,445.12z"/>
	<path fill="#93A1E5" d="M344.943,687.302c3.831-1.31,7.602-2.82,11.309-4.542c1.854-0.861,3.692-1.775,5.513-2.743
		c9.108-4.84,17.808-11.037,26.05-18.769c7.674-7.199,16.435-13.094,25.28-18.759c0.218-0.633,0.132-1.341-0.404-2.071
		c-15.741-47.871-36.936-93.448-58.43-138.9l0,0c-18.777,2.909-37.436,6.371-55.851,10.962c-6.139,1.53-12.251,3.186-18.331,4.989
		c-0.183,23.324-7.913,43.776-23.338,61.296c-9.068,10.302-11.999,11.081-24.668,6.542c-3.638-1.303-7.26-2.645-10.887-3.968
		c-0.762-0.016-1.524-0.034-2.287-0.051c-0.59,0.248-1.154,0.484-1.873,0.786c-1.55,4,1.925,5.363,4.606,6.911
		c9.873,5.703,20.67,8.21,31.969,8.434c9.052,0.18,17.938,1.194,26.662,3.64c20.173,5.656,37.5,35.313,23.232,61.518
		c-5.843,10.732-17.597,11.396-28.211,12.355c-9.018,0.815-17.79-2.103-26.609-3.861c-5.85-1.167-11.399-3.883-17.554-3.493
		c0.2,2.601-0.716,5.4,1.37,7.663c11.248,5.623,23.652,7.244,35.618,10.417c9.484,2.514,18.804,5.646,28.186,8.496
		C313.335,694.584,329.62,692.543,344.943,687.302z"/>
	<path fill="#3F3E40" d="M1092.455,435.253c-18.004,1.817-35.57,7.172-53.726,7.162c-36.657-0.02-73.155-3.237-109.639-6.487
		c-20.602-1.835-41.18-4.256-61.922-3.326c-7.313,0.327-14.788,0.266-21.878,1.81c-52.118,11.35-103.764,4.27-155.31-3.868
		c-23.864-3.767-47.841-6.295-71.82-8.935c-18.638-2.052-36.964,1.578-55.341,3.736c-12.863,1.511-25.684,2.825-38.671,2.081
		c-32.664-1.871-62.406,6.206-88.239,26.773c-32.365,25.767-70.29,37.707-110.263,44.378c-15.319,2.556-30.623,4.891-45.326,10.139
		c-2.798,0.999-5.79,1.751-9.366,0.99c-2.725-10.684,0.584-21.243,2.542-31.537c3.893-20.459,5.235-41.667,3.654-62.448
		c-1.6-21.005-7.123-41.796-5.561-62.981c1.681-22.801,0.69-45.796-2.918-68.372c-3.685-23.051-9.657-45.671-13.795-68.663
		c-0.041-0.232-0.083-0.464-0.124-0.696c-5.429-30.421-8.106-61.759-19.923-90.312c-2.584-6.242-5.614-12.348-9.669-17.751
		c-1.107-1.477-2.471-2.959-4.134-3.608c-4.909-3.205-11.136-0.583-11.343,5.946c-0.244,7.734,1.195,15.357,2.741,22.898
		c0.636,3.102,1.224,6.224,2.05,9.282c0.622,2.305,0.33,12.291,3.768,9.599c1.286-13.159,0.221-26.574-2.345-39.519
		c-0.119-0.603-0.235-1.25,0.011-1.814c0.135-0.309,0.341-0.535,0.597-0.692c0.414-0.256,0.959-0.314,1.522-0.26
		c3.389,2.609,5.681,6.503,7.571,10.402c19.123,39.44,19.396,84.327,29.403,126.3c3.676,15.415,6.242,31.274,8.342,47.002
		c1.981,14.841,1.173,30.35,1.712,45.407c1.088,30.356,4.821,60.77,4.821,91.146c0.516,20.384-2.747,40.337-6.614,60.212
		c-1.582,8.13-1.934,16.241-1.101,24.411c0.635,6.245,2.689,11.727,10.867,14.386c-0.884-5.875-3.383-13.664,7.053-10.579
		c6.08-1.803,12.192-3.458,18.331-4.989c18.415-4.591,37.074-8.053,55.851-10.962l0,0c2.185-3.153,5.819-3.45,9.034-4.334
		c23.345-6.419,45.196-16.187,65.513-29.538c5.946-3.908,11.927-7.761,18.122-11.263c11.938-6.749,23.79-14.64,38.032-15.718
		c3.823-1.254,7.677-2.307,11.557-3.176c11.641-2.607,23.519-3.557,35.498-3.301c17.323,0.37,34.41-1.44,51.495-3.882
		c22.053-3.151,43.846,0.551,65.669,2.87c34.269,3.642,67.802,12.15,102.239,15.009c22.98,1.908,45.959,1.669,68.172-3.065
		c34.823-7.421,69.351-5.982,104.143-2.08c12.373,1.388,24.716,3.049,37.074,4.584c26.658,0.59,53.375-1.015,79.959,2.122
		c12.217,1.442,24.007-1.581,35.925-3.235c7.678-1.066,15.284-2.841,22.989-3.472c14.937-1.223,29.565-0.859,39.626,13.094
		c0.983,1.364,2.471,2.41,3.856,3.426c1.674,1.229,3.626,3.187,5.645,1.274c2.805-2.658-0.003-4.565-1.594-6.389
		C1132.595,437.692,1113.884,433.091,1092.455,435.253z"/>
	<path fill="#3F3E40" d="M737.557,511.472c-45.151,8.465-90.224,17.676-136.381,19.158c-2.365,0.076-4.727,0.29-7.055,0.714
		c-12.17,2.216-11.798,4.206-11.524,16.903c0.703,32.617,13.525,63.086,15.138,95.566c1.285,25.863,2.047,51.682,1.477,77.534
		c-0.954,43.203,0.741,86.152,10.395,128.476c4.107,18.003,2.593,36.02-0.146,53.963c-0.56,3.673-1.164,7.34-1.799,11.002
		c-0.203,1.173-0.429,2.341-0.64,3.512c-0.45,2.489-0.908,4.977-1.397,7.459c-0.276,1.403-0.572,2.802-0.862,4.203
		c-0.468,2.265-0.95,4.527-1.456,6.785c-0.326,1.456-0.661,2.909-1.003,4.362c-0.526,2.236-1.076,4.465-1.642,6.692
		c-0.227,0.896-0.427,1.798-0.66,2.692c-0.271,1.034-0.557,2.071-0.835,3.107c-0.064,0.238-0.128,0.476-0.192,0.714
		c-4.607,17.083-10.004,34.394-12.259,52.102c-2.614,20.516,0.105,41.539,4.514,61.608c1.755,7.988,3.174,15.192-8.809,18.587
		c11.319,2.63,14.902,0.967,16.547-6.302c1.071-4.73,0.17-9.436-0.984-14.072c-7.394-29.7-5.605-58.863,4.153-87.855
		c9.359-27.809,17.244-55.979,18.944-85.588c0.776-13.494,0.646-26.835-3.103-39.755c-9.867-34.011-10.73-68.821-10.363-103.819
		c0.341-32.749,3.327-65.479,0.902-98.246c-1.561-21.082-3.914-42.015-10.596-62.278c-3.648-11.061-5.895-22.512-6.497-34.215
		c-0.626-12.197-0.468-12.766,11.09-13.881c41.684-4.021,82.667-12.532,123.843-19.651c26.3-4.547,52.701-8.594,78.928-13.709
		c16.378-3.194,33.536-2.137,50.185-4.241c38.475-4.861,76.845-10.531,115.001-17.556c19.236-3.542,38.45-4.757,57.679,0.613
		c9.198,2.569,18.605,2.398,28.205,1.436c23.151-2.322,46.388-3.797,69.586-5.666c4.691-0.378,9.363-0.987,15.829-1.681
		c-3.35-1.891-6.37-2.691-9.213-3.046c-17.227-2.15-34.694-1.405-51.873,1.089c-17.276,2.508-34.53,4.94-51.666,0.338
		c-22.343-6.001-44.535-1.456-66.739,1.264c-46.555,8.74-93.076,16.502-140.767,17.589
		C793.278,498.02,765.483,506.237,737.557,511.472z"/>
	<path fill="#3F3E40" d="M551.974,845.497c0.725-24.149-6.524-46.83-13.131-69.46c-3.436-11.769-6.934-23.52-10.473-35.26
		c-7.08-23.478-14.324-46.908-21.567-70.338c-3.622-11.715-7.243-23.43-10.844-35.151c-0.782-2.548-1.666-5.021-2.725-7.352
		c-3.18-6.992-7.948-12.701-16.352-15.303h-0.001c-11.029-0.28-21.302,2.47-30.617,8.287c-10.107,6.311-19.9,13.119-29.963,19.508
		c-1.07,0.68-2.136,1.376-3.205,2.061c-8.845,5.665-17.606,11.56-25.28,18.759c-8.242,7.732-16.943,13.929-26.05,18.769
		c-1.821,0.968-3.659,1.882-5.513,2.743c-3.707,1.722-7.478,3.232-11.309,4.542c-15.324,5.241-31.609,7.282-48.647,6.851
		c-4.161,3.021-8.565,5.768-12.437,9.127c-3.641,3.159-5.833,7.309-4.925,13.698c7.797-4.979,14.148-11.557,23.019-13.183
		c8.466-1.552,16.937-3.143,25.459-4.335c24.493-3.427,43.549-17.97,63.114-31.155c19.284-12.996,38.218-26.514,58.365-38.17
		c5.569-3.222,11.374-6.202,17.383-8.461c10.626-3.995,16.363-1.4,20.034,9.278c2.791,8.122,4.865,16.528,6.724,24.926
		c7.272,32.871,17.524,64.832,29.502,96.235c8.006,20.99,13.686,42.609,19.077,64.347c2.903,11.706,3.851,23.616,3.697,35.604
		c-0.334,26.139,0.246,52.295,1.779,78.391c2.076,35.321-0.713,70.468-6.907,106.54c-0.133,0.778,0.774,1.297,1.388,0.802
		c6.078-4.902,6.583-11.646,7.969-17.792c5.55-24.611,6.383-49.857,5.847-75.057c-0.228-10.711-0.676-21.414-1.159-32.056
		C553.208,890.489,551.52,867.934,551.974,845.497z"/>
	<path fill="#3F3E40" d="M231.122,667.577c-2.569-1.513-5.08-2.001-5.848,1.711c-0.694,3.354-1.057,6.84-1.041,10.265
		c0.038,8.703-1.176,17.213-3.624,25.522c-6.174,20.956-6.971,42.518-6.515,64.061c0.742,35.008-4.206,68.512-20.165,100.269
		c-13.679,27.219-19.227,57.016-24.33,86.824c-2.617,15.286-5.548,30.535-8.937,45.667c-3.234,14.439-10.134,27.725-19.511,39.122
		c-4.693,5.703-9.055,9.856-15.395,13.361c-8.269,4.572-16.188,9.962-24.238,14.915c-7.758,4.773-15.742,9.757-20.935,17.241
		c-0.545,0.786-0.994,2.007-0.217,2.564c0.403,0.289,0.954,0.222,1.441,0.122c4.504-0.925,8.481-3.486,12.28-6.077
		c5.96-4.065,11.795-8.34,18.074-11.894c4.898-2.773,10.034-5.102,14.985-7.774c1.146-0.618,2.282-1.255,3.403-1.92
		c6.403-3.796,10.549-8.266,15.039-13.99c9.536-12.156,16.29-26.258,20.535-41.08c4.51-15.751,7.604-31.847,10.361-47.996
		c5.751-33.667,14.284-66.419,28.724-97.63c12.332-26.655,15.431-55.573,16.074-84.522c0.538-24.226,1.62-48.224,8.601-71.585
		c2.896-9.69,2.193-19.638,2.611-29.515C230.406,672.977,231.322,670.178,231.122,667.577z"/>
	<path fill="#3F3E40" d="M144.478,1077.883c-1.801-0.061-3.547,0.308-5.261,0.686c-8.586,1.893-17.066,3.79-25.326,6.378
		c-1.422,0.446-2.839,0.912-4.248,1.402c-5.055,1.759-10.777,3.283-14.599,6.715c8.036,1.71,15.119,0.01,22.274-1.536
		c10.158-2.194,19.344-6.81,30.143-7.368c1.875-0.097,3.444-0.577,3.412-2.317C150.825,1079.323,146.836,1077.963,144.478,1077.883z
		"/>
	<path fill="#3F3E40" d="M221.189,581.339c1.021-6.996,0.763-14.028-2.904-20.11c-17.049-28.274-11.841-57.062-2.759-86.145
		c11.379-36.441,18.057-74.05,17.711-111.963c-0.167-18.218-0.266-36.436-0.645-54.651c-0.381-18.317-1.042-36.633-2.336-54.91
		c-0.523-7.374-1.115-14.791-1.718-22.129c-0.661-8.06-2.418-16.312-5.153-24.054c-0.439-1.243-2.145-5.997-4.255-10.517
		c-5.102-15.19-9.778-30.5-11.975-46.515c-0.034-0.25-0.377-0.323-0.49-0.098c-4.485,8.986-1.16,26.736,6.599,42.433
		c2.268,5.302,4.389,10.667,5.811,16.248c2.159,8.48,2.669,17.281,3.168,26.017c0.822,14.372,1.563,28.62,1.591,43.003
		c0.009,4.212-0.01,8.424-0.035,12.636c-0.122,20.113,1.543,40.163,3.858,60.143c2.898,25.004-5.339,48.998-8.218,73.483
		c-3.022,25.71-12.007,50.225-17.603,75.459c-4.712,21.241-3.137,40.931,8.102,59.78c3.967,6.654,7.195,13.779,7.457,21.805
		c0.5,0.012,1.002,0.022,1.502,0.034c0.763,0.017,1.525,0.035,2.287,0.051C221.187,581.339,221.188,581.339,221.189,581.339z"/>
	<path fill="#3F3E40" d="M466.684,1088.89c18.742-10.504,38.483-18.17,55.673-30.779c2.824-2.071,0.099-6.469-2.964-4.77
		c-0.019,0.011-0.038,0.022-0.057,0.032c-20.08,11.215-40.834,20.978-62.403,28.994c-1.352,0.502-2.644,1.141-3.89,1.865
		c-2.298,1.336-5.166,2.764-5.016,5.77c0.193,3.844,3.733,4.041,6.579,4.884c9.611,2.845,19.416,3.523,29.373,2.953
		c27.936-1.6,54.963-9.63,82.891-11.812C533.124,1075.252,500.227,1089.733,466.684,1088.89z"/>
	<path fill="#3F3E40" d="M85.848,718.898c1.403-2.034-0.2-4.262-1.872-5.61c-7.547-6.083-11.05-15.356-17.741-22.12
		c-15.127-15.292-14.908-25.029,1.164-38.758c0.334-0.286,0.09-0.834-0.342-0.755c-5.22,0.949-7.683,0.305-7.694-7.214
		c-0.035-22.774,8.018-40.14,28.692-50.829c0.753-0.389,1.421-0.981,2.043-1.57c0.223-0.212,0.191-0.693,0.512-2.055
		c-6.867-0.489-12.467,2.203-17.748,5.604c-17.394,11.202-25.52,34.731-18.246,54.217c1.251,3.353,0.752,5.118-0.722,7.825
		c-6.491,11.914-4.804,26.636,4.593,36.424c4.241,4.418,7.248,9.551,10.707,14.452c2.737,3.88,5.863,7.501,9.92,10.095
		C81.236,719.96,83.849,721.793,85.848,718.898z"/>
	<path fill="#3F3E40" d="M186.952,569.129c-7.305-0.721-14.715-2.036-22.038-1.052c-7.608,1.023-14.944,3.544-22.602,4.28
		c-7.116,0.685-14.372-0.171-21.429,1.177c-7.07,1.351-13.784,5.638-19.195,10.247c4.572,1.483,7.64,0.188,10.773-0.586
		c9.419-2.326,19.062-3.274,28.693-4.113c9.908-0.862,19.358-4.642,29.34-4.935c6.256-0.183,12.467,1.02,18.56,2.455
		c2.109,0.497,4.274,1.051,6.004,2.354c4.133,3.114,4.838,9.701,5.453,14.477c0.379,2.949,0.221,5.946,0.537,8.901
		c0.111,1.033,2.726,8.766,2.695,8.81C215.29,593.978,205.84,570.994,186.952,569.129z"/>
	<path fill="#3F3E40" d="M266.073,757.834c-9.626,46.054-23.161,91-37.58,135.721c-4.867,15.099-11.185,29.523-18.41,43.632
		c-0.074,0.144-0.147,0.288-0.221,0.433c-7.972,15.607-15.116,31.633-21.478,47.961c-6.219,15.96-12.314,32.265-15.588,49.122
		c-1.817,9.356-1.14,18.921-2.154,28.354c-0.951,8.852-3.046,17.801-7.062,25.79c-0.378,0.752-1.237,1.919-1.828,3.026
		c-0.843,1.585-1.135,3.046,1.33,2.985c2.466-0.061,5.608-2.944,6.763-4.94c6.156-10.639,7.326-22.382,7.437-34.439
		c0.079-8.416-0.212-16.937,1.477-25.231c1.647-8.088,3.892-16.092,6.524-23.934c5.357-15.953,12.405-31.285,20.152-46.205
		c18.024-34.715,30.504-71.152,42.124-108.186c7.47-23.81,17.917-46.661,21.977-71.564c2.702-16.576,5.267-33.142,6.958-49.834
		c-0.878-0.269-1.759-0.538-2.637-0.807C271.231,739.084,268.058,748.335,266.073,757.834z"/>
	<path fill="#3F3E40" d="M99.416,715.897c8.844,5.615,12.678,13.213,14.168,23.218c1.075,7.223,5.184,13.097,13.174,15.248
		c-5.149-9.099-7.912-18.772-9.97-28.766c-1.099-5.345-5.458-8.603-9.71-11.649c-3.171-2.271-8.072-5.128-7.022-8.557
		c4.369-14.278-9.178-30.526,5.814-43.372c-12.204,6.476-15.176,12.012-12.553,23.338c0.906,3.908,1.447,7.431-0.039,11.289
		C90.21,704.609,92.691,711.628,99.416,715.897z"/>
	<path fill="#3F3E40" d="M163.379,694.628c14.115-2.248,27.329-6.165,31.294-22.429c1.52-6.241,5.51-8.052,11.203-8.524
		c4.053-0.336,8.545,1.491,13.131-2.493c-6.306-3.437-12.222-5.005-18.712-4.705c-6.348,0.293-11.497,3.362-12.278,9.465
		c-1.938,15.137-12.566,19.25-25.043,21.732c-2.45,0.487-5.296,0.361-6.616,3.669C157.331,694.995,160.603,695.069,163.379,694.628z
		"/>
	<path fill="#3F3E40" d="M141.618,726.768c-1.288,1.128-2.748,2.086-3.896,3.337c-1.136,1.24-2.407,2.842-1.354,4.564
		c1.473,2.408,3.595,1.524,5.557,0.483c7.89-4.191,14.351-9.308,14.775-19.376c0.385-9.179-4.697-14.375-12.198-17.832
		c-6.744-3.109-11.378-7.564-11.845-15.367c0.714-2.729,2.015-5.423,0.082-9.091c-4.216,3.053-5.335,6.816-4.482,11.469
		c-0.48,8.575,2.915,14.478,10.776,18.667C152.159,710.616,152.638,717.11,141.618,726.768z"/>
</g>
</svg>
