<?xml version="1.0" encoding="utf-8"?>
<!-- Designed by Vexels.com - 2019 All Rights Reserved - https://vexels.com/terms-and-conditions/  -->
<svg version="1.1" id="Layer_1" xmlns="http://www.w3.org/2000/svg" xmlns:xlink="http://www.w3.org/1999/xlink" x="0px" y="0px"
	 viewBox="0 0 1200 1200" enable-background="new 0 0 1200 1200" xml:space="preserve">
<g>
	<path fill="none" d="M83.964,990.322c2.318,2.675,4.754,5.295,7.288,7.866c2.732,2.771,5.579,5.402,8.516,7.924
		c-2.937-2.522-5.784-5.153-8.516-7.924C88.718,995.618,86.281,992.998,83.964,990.322z"/>
	<path fill="none" d="M118.255,1020.18c3.191,2.209,6.42,4.371,9.66,6.517c2.908,1.926,5.842,3.672,8.804,5.246
		c-2.962-1.574-5.897-3.321-8.804-5.247C124.675,1024.551,121.446,1022.389,118.255,1020.18z"/>
	<path fill="none" d="M214.676,825.671c15.038-4.037,28.011-12.373,42.494-17.333c0.093,0.19,0.146,0.401,0.229,0.597
		c-0.45-4.1-0.504-8.129-0.586-11.186c-0.659-24.486,1.072-49.036,5.161-73.187c1.237-7.308,3.61-14.21,6.672-20.848
		c-1.535,2.995-3,6.033-4.324,9.158c-36.13,0.409-72.258,1.788-107.747-7.844c-26.76-7.263-54.418-11.822-77.303-29.213
		c-2.116-2.73-3.191-5.487-3.615-8.256c-1.32,15.498-1.865,31.047-0.615,46.736c1.024,12.852,3.232,25.58,4.237,38.432
		c1.789,22.878,8.763,52.794,4.138,75.378c-4.937,24.108-12.882,47.539-18.296,71.512c5.413-23.973,13.36-47.402,18.3-71.502
		C127.338,836.141,171.014,837.391,214.676,825.671z"/>
	<path fill="none" d="M530.156,1002.925c2.677,0.673,5.347,1.437,8.003,2.301c3.167,1.03,6.233,2.443,9.329,3.762
		c-3.096-1.319-6.162-2.732-9.329-3.762C535.503,1004.362,532.833,1003.598,530.156,1002.925z"/>
	<path fill="none" d="M569.406,998.325c-1.381,5.005-2.259,10.095-5.588,14.277c26.844,12.427,56.059,13.57,84.635,17.429
		c29.104,3.93,58.018-0.105,86.695-4.766c47.126-7.658,94.229-15.539,141.162-24.289c30.602-5.705,57.116,1.507,81.4,20.299
		c14.769,11.428,19.275,11.464,30.114-3.004c5.596-7.47,11.9-14.422,18.919-20.582c10.218-8.966,21.921-16.146,34.551-21.177
		c11.858-4.724,24.663-6.216,36.802-10.031c9.701-3.049,19.07-6.922,28.599-10.44c8.913-3.29,18.03-6.823,25.594-12.715
		c5.348-4.167,9.708-10.006,10.711-16.71c0.122-0.815,0.165-1.737-0.366-2.366c-0.371-0.439-0.946-0.639-1.498-0.8
		c-3.7-1.083-6.608-0.671-10.248-0.352c-4.293,0.374-8.964-0.314-13.258-0.594c-8.845-0.575-17.665-1.466-26.482-2.37
		c-17.658-1.812-35.371-3.703-53.149-3.321c-5.015,0.108-10.027,0.395-15.017,0.906c-16.112,1.65-31.959,4.008-47.715,7.323
		c-41.061,8.639-82.553,13.37-124.231,18.316c-58.11,6.898-114.562-0.189-171.414-7.416c-16.836-2.14-33.73-5.005-49.988-9.967
		c-16.609-5.069-32.25-13.671-48.92-19.128c-0.742-0.243-1.48-0.502-2.221-0.75c1,0.724,2.027,1.361,2.999,2.171
		C579.52,938.56,577.546,968.842,569.406,998.325z"/>
	<path fill="none" d="M526.967,891.642c-0.005-0.001-0.009-0.001-0.014-0.002c-15.121-1.589-30.341-2.492-45.527-3.574
		c15.186,1.082,30.407,1.986,45.528,3.575C526.959,891.641,526.962,891.641,526.967,891.642z"/>
	<path fill="none" d="M82.546,610.241c-0.059,0.448-0.146,0.885-0.202,1.333c-1.841,14.628-3.916,29.218-5.509,43.835
		c1.034-4.117,2.306-8.205,2.573-12.21C80.143,632.185,81.14,621.182,82.546,610.241z"/>
	<path fill="none" d="M453.282,849.488c-7.989-1.843-15.971-3.721-23.982-5.482c-22.346-4.913-44.628-10.117-66.888-15.417
		c22.26,5.3,44.542,10.503,66.887,15.417C437.31,845.767,445.293,847.645,453.282,849.488z"/>
	<path fill="none" d="M329.032,820.592c-11.124-2.673-22.249-5.346-33.38-7.994c-1.807-0.43-3.489-1.381-5.18-2.28
		c1.69,0.898,3.373,1.85,5.18,2.28C306.783,815.246,317.907,817.919,329.032,820.592z"/>
	<path fill="none" d="M255.156,315.461c0.221-0.669,0.022-1.47-0.776-2.457l-0.016-0.1c0.004,0.033,0.013,0.102,0.013,0.102
		C255.176,313.992,255.376,314.792,255.156,315.461z"/>
	<path fill="none" d="M198.266,582.684c24.367-3.522,44.742-11.059,56.834-33.864c1.914,0.305,3.797,0.714,5.68,1.122
		c-12.091-3.732-24.123-7.655-36.027-11.945c-2.921-1.052-5.992-2.139-9.06-1.656c6.392-2.918,13.744-3.142,20.675-1.98
		c6.93,1.161,13.561,3.629,20.196,5.943c26.373,9.198,53.447,15.557,80.743,21.311c34.137,7.195,68.488,13.447,102.346,21.916
		c56.258,14.072,113.025,20.04,169.969,26.981c15.324,1.868,30.991,0.883,46.498,1.312c36.128,1.001,72.202,0.83,107.567,11.203
		c34.926,10.244,70.323,7.281,105.348-1.486c4.819-1.206,9.551-4.063,14.969-1.989c-10.11,9.622-16.246,10.842-54.599,16.919
		c-19.025,3.013-37.483-2.276-56.003-2.866c-1.869-0.06-3.334,1.712-2.93,3.536c0.459,2.068,1.68,3.248,3.264,4.123
		c70.293,38.816,151.911-16.027,154.449-72.693c2.224-49.616-23.212-107.336-75.475-120.512
		c-38.945-9.818-71.16,2.653-98.245,30.488c-12.483,12.829-25.159,25.969-30.254,43.579c-2.435,8.419-9.865,28.679,0.856,34.236
		c0.936,0.484,1.886,0.931,2.853,1.34c5.441,2.6,5.136,4.814-0.447,6.674c-13.751,4.231-35.316-1.644-49.163-3.888
		c-17.589-2.851-34.976-6.961-51.978-12.293c-26.358-8.266-51.742-19.831-79.29-23.81c-20.671-2.985-41.64-3.351-62.364-5.947
		c-50.656-6.343-99.044-26.287-144.077-49.637c-32.448-16.828-64.29-36.571-100.177-43.516c-3.878-0.75-8.622-2.219-9.347-6.002
		c-12.16-12.934-27.885-19.242-44.528-23.85c4.298-6.656,10.441-11.282,16.577-15.918c-6.137,4.636-12.281,9.261-16.582,15.918
		c-35.042,17.874-51.715,50.489-65.904,84.342c-9.369,22.354-15.936,45.882-23.757,68.885
		C124.673,577.904,158.186,588.478,198.266,582.684z M849.139,610.158c19.753-3.778,37.317-14.567,58.113-15.365
		C889.656,605.671,871.374,614.858,849.139,610.158z M915.257,577.101c-0.089,4.231-4.455,3.95-7.456,4.227
		c-19.622,1.811-38.307,9.659-58.243,7.814c19.372-5.494,37.277-14.793,57.266-16.371
		C910.268,572.499,915.383,571.118,915.257,577.101z M907.487,552.726c-28.297-4.807-56.532,5.422-87.776,0.431
		C875.198,539.645,893.048,539.423,907.487,552.726z M759.176,535.128c7.533-4.543,15.424-8.444,23.313-12.32
		c2.68-1.317,5.322-2.712,7.924-4.179c5.678-3.201,11.242-6.707,16.413-10.651c2.435-1.857,5.009-3.478,7.371-5.455
		c2.214-1.853,4.364-3.781,6.603-5.603c0.046-0.038,0.093-0.075,0.139-0.112c4.739-3.839,10.178-7.091,16.56-5.932
		c4.423,0.804,7.049,4.576,7.773,9.514c0.458,3.127-0.647,6.292-2.21,9.038c-7.174,12.614-23.228,18.189-30.252,30.888
		c-4.111,3.974-2.724-4.505-2.231-7.05c0.494-2.545,1.994-4.785,3.701-6.735c5.979-6.829,14.693-10.883,20.401-17.94
		c2.419-2.991,4.818-7.674,2.611-11.445c-2.895-4.947-9.61,1.842-12.274,3.966c-3.07,2.447-5.976,5.093-8.786,7.832
		c-4.455,4.342-8.395,9.445-13.379,13.181c-3.854,2.891-8.014,5.351-12.306,7.532c-5.402,2.746-11.011,5.056-16.63,7.315
		c-2.808,1.128-5.619,2.243-8.417,3.394c-2.572,1.058-5.396,1.991-7.508,3.864c-1.771,1.569-3.34,3.315-5.471,4.415
		c-2.155,1.112-4.582,1.7-7.009,1.661C740.372,548.898,753.982,538.261,759.176,535.128z"/>
	<path fill="none" d="M453.282,849.488c4.693,1.082,9.392,2.136,14.097,3.163C462.673,851.624,457.974,850.57,453.282,849.488z"/>
	<path fill="none" d="M647.88,918.738c47.606,9.771,95.983,13.582,144.175,18.419c21.724,2.181,44.049,1.634,65.816-0.545
		c44.41-4.445,87.962-14.42,131.436-24.346c14.328-3.27,29.422-1.604,47.194-7.523c-7.317-0.839-10.867-1.403-14.437-1.632
		c-45.362-2.906-90.697,0.66-135.447,6.048c-93.315,11.238-184.048-2.883-274.757-21.246c-10.824-2.191-19.569-10.31-31.055-10.252
		c1.152,6.182,2.305,12.363,3.454,18.545C604.462,906.536,625.564,914.158,647.88,918.738z"/>
	<path fill="none" d="M297.968,853.473c-4.569-0.575-9.149-1.062-13.898-1.544C288.819,852.411,293.399,852.898,297.968,853.473z"/>
	<path fill="none" d="M266.72,814.84c-0.004,0.273-0.038,0.541-0.038,0.814c-0.001,0.692,0.144,6.651-0.361,9.31
		C268.071,821.638,267.286,818.175,266.72,814.84z"/>
	<path fill="none" d="M261.001,821.522c0.444,0.86,1.002,1.673,1.702,2.425C262.048,823.235,261.514,822.389,261.001,821.522z"/>
	<path fill="none" d="M308.043,564.522c-5.239-1.449-10.434-3.073-15.623-4.724c5.941,2.097,11.919,4.085,18.001,5.73
		C309.798,565.146,309.055,564.802,308.043,564.522z"/>
	<path fill="none" d="M265.551,826.202C265.551,826.202,265.551,826.202,265.551,826.202c-1.063-0.579-1.993-1.328-2.808-2.207
		C263.506,824.806,264.384,825.568,265.551,826.202z"/>
	<path fill="none" d="M298.484,657.186c1.043-1.547,2.071-3.097,3.067-4.651c0.001-0.002,0.003-0.003,0.003-0.005
		c-0.001,0.002-0.002,0.003-0.003,0.005C300.549,654.098,299.512,655.639,298.484,657.186z"/>
	<path fill="none" d="M272.849,1029.664c-13.785,2.618-27.549,5.381-41.363,7.886C245.3,1035.045,259.064,1032.282,272.849,1029.664
		z"/>
	<path fill="none" d="M312.376,863.995c19.885,4,39.942,7.048,60.028,9.929C352.319,871.044,332.261,867.995,312.376,863.995z"/>
	<path fill="none" d="M372.404,873.924c13.391,1.92,26.794,3.766,40.166,5.768C399.198,877.69,385.795,875.845,372.404,873.924z"/>
	<path fill="none" d="M269.162,850.42c1.029,1.158,1.708,2.105,2.255,2.799C270.87,852.525,270.191,851.578,269.162,850.42z"/>
	<path fill="none" d="M233.995,418.989c4.686-0.02,9.352,0.244,13.982,0.863C243.364,418.969,238.731,418.338,233.995,418.989z"/>
	<path fill="none" d="M530.156,1002.925c-5.357-1.347-10.754-2.332-16.174-3.033
		C519.402,1000.593,524.799,1001.578,530.156,1002.925z"/>
	<path fill="#93A1E5" d="M266.321,824.965c-0.172,0.901-0.416,1.429-0.768,1.238c0,0-0.001,0-0.001-0.001c0,0,0,0,0,0.001
		c-1.167-0.635-2.045-1.396-2.808-2.207c-0.014-0.015-0.026-0.033-0.041-0.048c-0.7-0.752-1.258-1.565-1.702-2.425
		c-2.074-3.504-3.104-8.064-3.602-12.587c-0.083-0.195-0.135-0.407-0.229-0.597c-14.484,4.96-27.456,13.296-42.494,17.333
		c-43.662,11.72-87.338,10.47-131.254,2.444c-4.94,24.099-12.886,47.528-18.3,71.502c-1.805,7.991-3.328,16.043-4.364,24.2
		c-0.478,3.762-0.677,7.424-0.619,10.993c0.058,3.569,0.371,7.044,0.919,10.432c1.643,10.164,5.39,19.545,10.627,28.312
		c3.492,5.845,7.645,11.417,12.278,16.768c2.318,2.675,4.754,5.295,7.288,7.866c2.732,2.771,5.579,5.402,8.516,7.924
		c5.873,5.043,12.105,9.65,18.488,14.068c3.191,2.209,6.42,4.371,9.66,6.517c2.908,1.926,5.842,3.672,8.804,5.247
		c11.849,6.297,24.15,9.839,37.032,11.074c6.441,0.618,13.026,0.659,19.773,0.18c3.373-0.239,6.787-0.609,10.243-1.101
		c9.277-1.322,18.509-2.878,27.719-4.548c13.814-2.505,27.577-5.268,41.363-7.886c13.785-2.618,27.594-5.091,41.498-7.017
		c53.027-7.344,105.074-21.467,158.765-23.87c2.724-0.122,5.45-0.221,8.178-0.286c5.456-0.132,10.92-0.132,16.373,0.076
		c5.454,0.208,10.898,0.624,16.319,1.325c5.42,0.701,10.817,1.686,16.174,3.033c2.677,0.673,5.347,1.437,8.003,2.301
		c3.167,1.03,6.233,2.443,9.329,3.762c5.158,2.199,10.398,4.139,16.33,3.614c3.329-4.182,4.206-9.272,5.588-14.277
		c8.14-29.482,10.114-59.764,12.088-90.057c-0.973-0.81-1.999-1.446-2.999-2.171c-16.945-5.676-33.601-12.569-51.527-14.455
		c-0.005,0-0.009-0.001-0.013-0.001c-15.121-1.589-30.342-2.492-45.528-3.575c-12.427-0.886-24.831-1.89-37.137-3.496
		c-3.907-0.51-7.804-1.08-11.688-1.727c-6.666-1.109-13.345-2.149-20.032-3.15c-13.372-2.002-26.776-3.848-40.166-5.768
		c-20.086-2.881-40.143-5.929-60.028-9.929c-13.257-2.666-26.437-5.755-39.497-9.499c-0.5-0.144-0.914-0.584-1.461-1.278
		c-0.547-0.694-1.226-1.641-2.255-2.799c5.243,0.551,10.16,1.027,14.908,1.508c4.748,0.482,9.328,0.969,13.898,1.544
		c20.138,2.532,40.279,5.048,60.419,7.565c60.42,7.552,120.839,15.123,181.187,23.22c15.157,2.034,29.804,7.871,44.682,11.947
		c0.001,0.001,0.001,0.001,0.003,0.001c-1.149-6.182-2.302-12.363-3.454-18.545c-7.959-6.384-16.887-10.424-26.168-12.936
		c-9.281-2.512-18.916-3.498-28.288-3.772c-20.157-0.591-39.645-4.087-58.97-8.302c-4.705-1.026-9.404-2.081-14.097-3.163
		c-7.989-1.843-15.972-3.721-23.982-5.482c-22.345-4.913-44.627-10.117-66.887-15.417c-11.13-2.65-22.255-5.323-33.38-7.997
		c-11.124-2.673-22.249-5.346-33.38-7.994c-1.807-0.43-3.489-1.382-5.18-2.28c-0.563-0.299-1.128-0.593-1.698-0.859
		c-6.313-3.488-13.338-3.458-20.244-4.021c-0.564,0.585-0.965,1.191-1.291,1.808c-0.272,2.518-0.479,5.046-0.52,7.595
		C267.286,818.175,268.071,821.638,266.321,824.965z"/>
	<path fill="#93A1E5" d="M156.576,705.027c35.489,9.632,71.616,8.253,107.747,7.844c1.324-3.125,2.789-6.163,4.324-9.158
		c7.638-16.562,19.664-31.433,29.838-46.527c1.028-1.547,2.065-3.088,3.067-4.651c0.001-0.002,0.003-0.003,0.003-0.005
		c5.76-8.985,11.072-18.671,13.368-29.188c2.509-11.499-0.33-23.387-1.526-34.862c-0.525-5.032-0.768-10.094-0.729-15.153
		c0.028-3.774,0.305-6.232-2.247-7.798c-6.082-1.645-12.06-3.634-18.001-5.73c-6.777-2.156-13.54-4.367-20.359-6.364
		c-3.778-1.107-7.52-2.331-11.281-3.492c-1.884-0.408-3.766-0.817-5.68-1.122c-12.092,22.805-32.467,30.342-56.834,33.864
		c-40.08,5.793-73.593-4.781-101.383-34.024v0c-6.85,20.145-11.591,40.486-14.336,61.58c-1.406,10.942-2.403,21.944-3.138,32.958
		c-0.268,4.004-1.539,8.092-2.573,12.21c-0.441,4.047-0.83,8.097-1.176,12.15c0.424,2.768,1.499,5.526,3.615,8.256
		C102.159,693.205,129.817,697.764,156.576,705.027z"/>
	<path fill="#93A1E5" d="M203.126,379.515c-6.137,4.636-12.279,9.261-16.577,15.918c16.643,4.607,32.368,10.915,44.528,23.85
		c-0.021-0.11-0.073-0.202-0.086-0.316c1.004-0.037,2.002,0.026,3.004,0.022c4.737-0.651,9.369-0.02,13.982,0.863
		c3.195,0.427,6.368,1.021,9.528,1.706c1.449,0.191,2.902,0.339,4.364,0.38c-8.609-24.048-26.61-39.276-48.105-51.219v0
		C210.487,373.949,206.809,376.734,203.126,379.515z"/>
	<path fill="#3F3E40" d="M277.214,185.325l0.171-0.629c16.302-13.371,31.073-29.395,54.801-29.055
		c14.813,0.213,29.675-1.207,44.449-0.503c24.137,1.153,45.587,6.704,55.525,33.328c2.788,7.468,6.519,18.073,19.05,19.971
		c-0.036-11.61-8.529-18.109-11.438-26.936c-7.542-22.895-24.739-32.91-47.445-36.798c-17.531-3.002-34.706,0.783-52.057,0.614
		c-29.368-0.286-50.083,13.748-63.241,39.602l0.03-0.019C277.089,184.891,277.214,185.325,277.214,185.325z"/>
	<path fill="#3F3E40" d="M446.23,331.858c0.847,4.644,0.726,8.552-3.858,11.859c-15.29,11.029-23.739,27.914-34.696,42.543
		c-4.954,6.616-9.302,6.979-16.3,5.731c-7.794-1.39-13.753-8.305-23.177-7.873c20.702,23.859,28.914,23.003,48.986,1.102
		c8.853-9.661,13.516-25.336,23.455-29.654c19.517-8.479,15.141-20.719,12.488-34.751c-2.681-14.173-3.215-27.851,5.464-40.987
		c3.704-5.607,5.215-13.391,5.594-20.303c0.668-12.205,4.622-25.588-10.075-38.882c4.574,20.888,3.387,38.319-2.193,54.298
		C445.315,293.846,442.668,312.332,446.23,331.858z"/>
	<path fill="#3F3E40" d="M324.201,427.346c16.179,10.01,34.846,14.231,49.652,25.623c24.995,19.232,53.432,30.94,83.453,38.867
		c16.848,4.449,34.038,9.306,52.254,6.66c-1.038-4.403-3.863-4.929-6.155-5.284c-45.33-7.019-85.726-26.374-125.025-48.933
		C361.742,434.728,343.803,427.819,324.201,427.346z"/>
	<path fill="#3F3E40" d="M233.995,418.989c-1.002,0.004-2-0.058-3.004-0.022c0.014,0.114,0.066,0.206,0.086,0.316
		c0.724,3.783,5.469,5.252,9.347,6.002c35.887,6.945,67.728,26.688,100.177,43.516c45.032,23.35,93.421,43.294,144.077,49.637
		c20.724,2.596,41.693,2.962,62.364,5.947c27.547,3.978,52.932,15.544,79.29,23.81c17.002,5.332,34.389,9.442,51.978,12.293
		c13.847,2.245,35.412,8.12,49.163,3.888c5.584-1.859,5.888-4.074,0.447-6.674c-0.966-0.409-1.916-0.856-2.853-1.34
		c-10.721-5.557-3.291-25.817-0.856-34.236c5.095-17.611,17.772-30.75,30.254-43.579c27.085-27.836,59.299-40.307,98.245-30.488
		c52.264,13.176,77.699,70.896,75.475,120.512c-2.538,56.665-84.156,111.509-154.449,72.693c-1.584-0.875-2.805-2.055-3.264-4.123
		c-0.404-1.824,1.062-3.596,2.93-3.536c18.52,0.59,36.978,5.88,56.003,2.866c38.353-6.076,44.489-7.297,54.599-16.919
		c-5.418-2.074-10.15,0.783-14.969,1.989c-35.025,8.767-70.422,11.73-105.348,1.486c-35.366-10.372-71.44-10.202-107.567-11.203
		c-15.507-0.429-31.174,0.556-46.498-1.312c-56.944-6.94-113.71-12.909-169.969-26.981c-33.857-8.469-68.208-14.721-102.346-21.916
		c-27.297-5.754-54.37-12.113-80.743-21.311c-6.635-2.314-13.266-4.782-20.196-5.943c-6.931-1.161-14.282-0.937-20.675,1.98
		c3.067-0.483,6.138,0.604,9.06,1.656c11.905,4.29,23.937,8.213,36.027,11.945c3.761,1.161,7.503,2.385,11.281,3.492
		c6.819,1.997,13.582,4.208,20.359,6.364c5.188,1.651,10.384,3.275,15.623,4.724c1.012,0.28,1.755,0.625,2.378,1.007
		c2.551,1.567,2.275,4.025,2.247,7.798c-0.039,5.059,0.204,10.121,0.729,15.153c1.196,11.475,4.035,23.364,1.526,34.862
		c-2.296,10.518-7.608,20.204-13.368,29.188c-0.001,0.002-0.002,0.003-0.003,0.005c-0.996,1.554-2.024,3.104-3.067,4.651
		c-10.173,15.093-22.2,29.965-29.838,46.527c-3.061,6.638-5.435,13.54-6.672,20.848c-4.089,24.151-5.82,48.701-5.161,73.187
		c0.082,3.057,0.136,7.086,0.586,11.186c0.498,4.523,1.528,9.083,3.602,12.587c0.513,0.867,1.047,1.712,1.702,2.425
		c0.014,0.016,0.026,0.033,0.041,0.048c0.815,0.879,1.744,1.628,2.808,2.206c0.001,0,0.001,0,0.001,0.001
		c0.352,0.191,0.597-0.337,0.768-1.238c0.505-2.66,0.36-8.618,0.361-9.31c0-0.273,0.033-0.542,0.038-0.814
		c0.041-2.549,0.248-5.076,0.52-7.595c0.488-4.515,1.139-9.007,1.341-13.549c0.343-7.752-0.969-15.54-0.622-23.32
		c0.488-10.934,1.707-21.849,3.968-32.563c4.018-19.04,11.461-37.991,23.124-53.66c11.914-16.005,23.672-33.135,27.691-53.036
		c3.409-16.872,2.917-46.336-2.553-62.873c31.018,8.359,62.841,14.442,94.628,18.825c28.307,3.901,55.008,15.44,83.145,18.603
		c58.38,6.563,116.518,16.761,175.704,14.461c16.742-0.651,33.577,1.111,50.37,1.785c9.344,0.374,16.577,3.767,23.603,10.809
		c22.624,22.676,51.405,34.459,82.672,31.397c36.648-3.589,71.47-22.428,91.348-53.939c19.92-31.575,19.742-67.481,5.893-101.199
		c-13.049-31.772-38.958-63.826-75.205-67.923c-56.088-13.654-105.45,20.972-132.258,66.602c-2.776,4.725-5.6,11.805-11.232,13.749
		c-6.635,2.291-16.92-0.837-23.536-1.734c-24.147-3.275-47.578-10.2-71.24-15.798c-27.468-6.498-56.035-11.252-83.838-6.381
		c23.448,2.538,46.731,6.616,69.647,12.2c35.526,8.656,70.609,20.994,107.313,21.309c1.493,0.013,2.87,0.887,3.398,2.284
		c3.563,9.46,1.286,13.496,1.715,16.074c0.981,5.889-6.282,4.881-11.09,4.379c-38.185-3.989-76.552-13.344-112.255-26.964
		c-25.152-9.597-52.629-10.454-79.298-13.109c-46.03-4.582-89.898-15.551-131.683-35.667
		c-28.208-13.581-54.695-30.586-83.197-43.538c-11.966-5.438-24.475-10.133-37.288-12.911c-3.16-0.685-6.333-1.279-9.528-1.706
		C243.346,419.232,238.681,418.969,233.995,418.989z"/>
	<path fill="#3F3E40" d="M745.514,550.306c2.427,0.039,4.854-0.548,7.009-1.661c2.131-1.1,3.7-2.846,5.471-4.415
		c2.112-1.872,4.936-2.805,7.508-3.864c2.798-1.151,5.609-2.266,8.417-3.394c5.619-2.259,11.228-4.569,16.63-7.315
		c4.292-2.182,8.452-4.642,12.306-7.532c4.984-3.736,8.924-8.84,13.379-13.181c2.81-2.739,5.717-5.385,8.786-7.832
		c2.665-2.125,9.379-8.913,12.274-3.966c2.207,3.771-0.192,8.454-2.611,11.445c-5.708,7.057-14.423,11.11-20.401,17.94
		c-1.707,1.95-3.207,4.19-3.701,6.735c-0.493,2.545-1.88,11.024,2.231,7.05c7.024-12.7,23.077-18.274,30.252-30.888
		c1.563-2.746,2.667-5.912,2.21-9.038c-0.724-4.939-3.35-8.71-7.773-9.514c-6.382-1.159-11.821,2.093-16.56,5.932
		c-0.046,0.037-0.093,0.075-0.139,0.112c-2.239,1.822-4.389,3.75-6.603,5.603c-2.363,1.978-4.936,3.598-7.371,5.455
		c-5.171,3.944-10.735,7.45-16.413,10.651c-2.602,1.466-5.244,2.862-7.924,4.179c-7.889,3.876-15.78,7.778-23.313,12.32
		C753.982,538.261,740.372,548.898,745.514,550.306z"/>
	<path fill="#3F3E40" d="M430.533,214.85c-9.971-10.461-9.976-10.303-21.644-10.686c-15.104-0.496-29.155,5.184-43.839,7.156
		c-14.74,1.978-28.88-5.148-47.559-3.059c23.536,15.529,45.281,14.766,67.05,9.635C399.435,214.384,414.087,211.174,430.533,214.85z
		"/>
	<path fill="#3F3E40" d="M295.828,272.17c-2.433,12.489-6.768,23.06-20.456,27.573c17.318,0.765,22.91-3.154,28.043-19.127
		c3.739-11.637,6.031-23.893,17.414-31.291c3.021-1.963,7.705-4.347,3.843-8.715c-2.984-3.374-7.267-1.441-10.551,0.79
		C303.261,248.777,298.207,259.959,295.828,272.17z"/>
	<path fill="#3F3E40" d="M907.487,552.726c-14.439-13.303-32.289-13.081-87.776,0.431
		C850.955,558.148,879.19,547.919,907.487,552.726z"/>
	<path fill="#3F3E40" d="M258.976,251.236c-3.834,5.339-4.366,14.673,5.153,20.407c4.258-7.965,2.502-16.781,7.352-23.782
		c11.819-17.06,8.671-34.639-1.225-51.925C272.693,215.999,271.158,234.269,258.976,251.236z"/>
	<path fill="#3F3E40" d="M354.362,379.374c-31.696,3.919-50.545,20.736-47.717,43.195
		C315.133,399.912,335.813,390.774,354.362,379.374z"/>
	<path fill="#3F3E40" d="M849.558,589.143c19.935,1.845,38.621-6.003,58.243-7.814c3.002-0.277,7.367,0.003,7.456-4.227
		c0.127-5.983-4.988-4.602-8.433-4.33C886.835,574.35,868.93,583.649,849.558,589.143z"/>
	<path fill="#3F3E40" d="M907.253,594.793c-20.796,0.798-38.36,11.587-58.113,15.365
		C871.374,614.858,889.656,605.671,907.253,594.793z"/>
	<path fill="#3F3E40" d="M393.94,242.633c-21.024,8.206-38.577,2.116-56.386-3.183C355.064,256.648,375.169,257.944,393.94,242.633z
		"/>
	<path fill="#3F3E40" d="M346.409,364.313c-5.056-15.558-14.161-24.774-17.118-36.665
		C325.608,342.43,330.67,353.404,346.409,364.313z"/>
	<path fill="#3F3E40" d="M149.193,1050.043c27.494,11.511,54.659,5.149,81.805-0.673c79.684-17.089,159.761-31.734,241.013-39.023
		c18.051-1.619,36.767-2.255,53.769,3.892c23.816,8.612,48.016,14.476,72.798,19.19c38.964,7.412,77.693,12.125,117.499,6.32
		c49.923-7.281,99.685-15.553,148.912-26.276c31.701-6.905,59.972-4.057,85.978,15.755c2.058,1.567,4.023,3.277,6.19,4.675
		c11.179,7.209,19.896,7.136,30.076-1.208c4.948-4.057,9.086-9.175,13.258-14.094c9.305-10.967,19.919-21.001,32.376-28.312
		c13.905-8.161,29.452-10.62,44.572-15.619c1.35-0.447,2.697-0.904,4.041-1.372c13.839-4.82,27.45-10.442,40.592-16.949
		c2.739-1.356,5.469-2.729,8.158-4.18c7.613-4.108,15.389-9.453,18.167-17.646c1.869-5.512,3.268-15.885-2.787-19.221
		c-4.673-2.577-10.671-0.719-15.676-0.569c-22.185,0.667-43.481-6.534-65.514-7.048c-1.881-0.044-4.966-0.34-5.428-1.41
		c-5.125-11.866-16.215-8.692-25.093-9.615c-13.478-1.401-27.142-1.994-40.686-1.585c-46.531,1.406-92.998,3.889-139.464,7.112
		c-55.622,3.858-111.025,0.294-166.274-8.668c-33.339-5.408-66.277-10.609-96.96-25.554c-12.226-5.955-25.436-9.227-38.447-13.163
		c-22.639-6.85-46.302-4.129-69.089-9.21c-48.593-10.833-97.493-20.159-146.62-28.273c-15.858-2.619-31.088-9.032-47.586-7.86
		c0.57,0.266,1.134,0.56,1.698,0.859c1.69,0.898,3.373,1.849,5.18,2.28c11.131,2.648,22.255,5.321,33.38,7.994
		c11.125,2.673,22.25,5.347,33.38,7.997c22.26,5.3,44.542,10.503,66.888,15.417c8.011,1.761,15.993,3.64,23.982,5.482
		c4.693,1.082,9.392,2.136,14.097,3.163c19.325,4.215,38.813,7.711,58.97,8.302c9.372,0.275,19.006,1.26,28.288,3.772
		c9.281,2.512,18.209,6.552,26.168,12.936c11.486-0.058,20.231,8.061,31.055,10.252c90.709,18.363,181.442,32.484,274.757,21.246
		c44.75-5.388,90.085-8.954,135.447-6.048c3.57,0.229,7.119,0.793,14.437,1.632c-17.772,5.92-32.866,4.253-47.194,7.523
		c-43.474,9.925-87.026,19.901-131.436,24.346c-21.766,2.179-44.092,2.726-65.816,0.545c-48.192-4.837-96.569-8.648-144.175-18.419
		c-22.315-4.58-43.417-12.202-63.621-22.532c-0.001-0.001-0.001-0.001-0.003-0.001c-14.878-4.076-29.525-9.913-44.682-11.947
		c-60.348-8.097-120.767-15.667-181.187-23.22c-20.14-2.517-40.281-5.033-60.419-7.565c-4.569-0.575-9.149-1.062-13.898-1.544
		c-4.748-0.482-9.666-0.958-14.908-1.508c1.029,1.157,1.708,2.105,2.255,2.799c0.547,0.694,0.961,1.134,1.461,1.278
		c13.061,3.744,26.241,6.833,39.497,9.499c19.885,4,39.942,7.048,60.028,9.929c13.391,1.92,26.794,3.766,40.166,5.768
		c6.687,1.001,13.366,2.042,20.032,3.15c3.884,0.646,7.781,1.216,11.688,1.727c12.306,1.607,24.709,2.611,37.137,3.496
		c15.186,1.082,30.406,1.985,45.527,3.574c0.005,0.001,0.009,0.001,0.014,0.002c17.926,1.886,34.582,8.779,51.527,14.455
		c0.741,0.248,1.479,0.507,2.221,0.75c16.67,5.457,32.311,14.059,48.92,19.128c16.258,4.962,33.152,7.827,49.988,9.967
		c56.851,7.227,113.304,14.314,171.414,7.416c41.678-4.946,83.17-9.678,124.231-18.316c15.756-3.315,31.603-5.673,47.715-7.323
		c4.99-0.511,10.002-0.797,15.017-0.906c17.778-0.381,35.491,1.509,53.149,3.321c8.816,0.904,17.636,1.795,26.482,2.37
		c4.294,0.279,8.965,0.968,13.258,0.594c3.64-0.318,6.548-0.731,10.248,0.352c0.552,0.161,1.127,0.361,1.498,0.8
		c0.531,0.63,0.488,1.551,0.366,2.366c-1.004,6.704-5.363,12.543-10.711,16.71c-7.564,5.893-16.681,9.425-25.594,12.715
		c-9.528,3.518-18.897,7.39-28.599,10.44c-12.139,3.816-24.944,5.307-36.802,10.031c-12.63,5.031-24.333,12.211-34.551,21.177
		c-7.019,6.16-13.322,13.111-18.919,20.582c-10.839,14.468-15.345,14.432-30.114,3.004c-24.284-18.792-50.799-26.004-81.4-20.299
		c-46.933,8.75-94.036,16.631-141.162,24.289c-28.676,4.661-57.591,8.696-86.695,4.766c-28.576-3.86-57.791-5.002-84.635-17.429
		c-5.932,0.524-11.173-1.415-16.33-3.614c-3.096-1.319-6.162-2.732-9.329-3.762c-2.656-0.864-5.326-1.628-8.003-2.301
		c-5.357-1.347-10.754-2.332-16.174-3.033c-5.421-0.701-10.866-1.116-16.319-1.325c-5.453-0.208-10.917-0.208-16.373-0.076
		c-2.729,0.066-5.455,0.164-8.178,0.286c-53.69,2.402-105.738,16.526-158.765,23.87c-13.904,1.926-27.712,4.399-41.498,7.017
		c-13.785,2.618-27.549,5.381-41.363,7.886c-9.21,1.67-18.442,3.226-27.719,4.548c-3.456,0.493-6.87,0.862-10.243,1.101
		c-6.747,0.479-13.333,0.438-19.773-0.18c-12.882-1.236-25.183-4.777-37.032-11.074c-2.962-1.574-5.897-3.321-8.804-5.246
		c-3.24-2.146-6.469-4.308-9.66-6.517c-6.382-4.418-12.614-9.025-18.488-14.068c-2.937-2.521-5.784-5.152-8.516-7.924
		c-2.534-2.571-4.97-5.191-7.288-7.866c-4.633-5.351-8.786-10.923-12.278-16.768c-5.237-8.767-8.984-18.148-10.627-28.312
		c-0.548-3.388-0.862-6.863-0.919-10.432c-0.058-3.569,0.141-7.231,0.619-10.993c1.037-8.157,2.559-16.209,4.364-24.2
		c5.413-23.974,13.359-47.404,18.296-71.512c4.625-22.584-2.349-52.5-4.138-75.378c-1.005-12.853-3.213-25.58-4.237-38.432
		c-1.25-15.689-0.704-31.238,0.615-46.736c0.346-4.053,0.734-8.103,1.176-12.15c1.593-14.617,3.669-29.207,5.509-43.835
		c0.056-0.448,0.144-0.885,0.202-1.333c2.745-21.095,7.487-41.435,14.336-61.58v0c7.821-23.003,14.388-46.531,23.757-68.885
		c14.189-33.853,30.862-66.469,65.904-84.342c4.301-6.656,10.446-11.282,16.582-15.918c3.682-2.782,7.361-5.567,10.638-8.796v0
		c14.35-18.392,33.834-31.918,47.88-50.591c9.328-11.276-3.71-9.692-7.672-13.338c-12.585-5.268-21.791-15.335-18.126-28.211
		c6.446-22.638-2.968-50.218,24.048-67.208c-17.221-2.592-21.468,0.493-27.531,13.755c-6.418,14.038-3.241,29.109-5.923,43.549
		c-4.447,23.951,3.765,36.545,26.928,43.519c0.241,0.19,0.533,0.377,0.878,0.56c-0.4,1.516-0.8,3.031-1.205,4.551
		c-31.026,30.11-59.213,63.339-96.145,86.978c-10.514,6.73-17.901,16.426-24.25,27.252c-26.136,44.562-41.205,93.422-53.311,142.952
		c-14.554,59.548-15.446,120.359-9.36,181.278c4.482,44.875,1.457,89.063-12.113,132.35c-3.083,9.833-5.521,20.033-6.759,30.246
		c-2.201,18.17-1.794,36.702,7.633,52.857C79.912,1007.507,110.25,1033.737,149.193,1050.043z M254.38,313.004
		c0.798,0.988,0.998,1.788,0.776,2.457c0.22-0.669,0.019-1.469-0.78-2.455c0,0.001-0.009-0.069-0.013-0.102L254.38,313.004z"/>
</g>
</svg>
