<?xml version="1.0" encoding="utf-8"?>
<!-- Designed by Vexels.com - 2019 All Rights Reserved - https://vexels.com/terms-and-conditions/  -->
<svg version="1.1" id="Layer_1" xmlns="http://www.w3.org/2000/svg" xmlns:xlink="http://www.w3.org/1999/xlink" x="0px" y="0px"
	 viewBox="0 0 1200 1200" enable-background="new 0 0 1200 1200" xml:space="preserve">
<g>
	<path fill="none" d="M1055.813,450.704c17.58,11.728,22.561,30.746,32.885,46.235c-1.842-14.982-4.614-29.829-7.586-44.648
		c-0.834-5.47-1.667-10.94-2.501-16.41C1070.482,438.704,1063.036,442.801,1055.813,450.704z"/>
	<path fill="none" d="M921.863,219.779c0.271-0.506,0.568-0.985,0.818-1.512C922.431,218.795,922.134,219.273,921.863,219.779z"/>
	<path fill="none" d="M918.872,224.548c0.345-0.469,0.689-0.937,1.018-1.424C919.562,223.611,919.217,224.079,918.872,224.548z"/>
	<polygon fill="none" points="901.385,242.379 901.385,242.379 901.393,242.371 	"/>
	<path fill="none" d="M915.582,228.589c0.298-0.326,0.583-0.663,0.873-0.998C916.165,227.926,915.879,228.263,915.582,228.589z"/>
	<path fill="none" d="M965.365,355.089c33.233-3.402,66.461-6.858,99.689-10.291c-1.112-8.112-2.132-16.229-2.51-24.375
		c-1.463-31.341-6.589-62.754-11.119-93.772c-0.448-3.067-1.061-6.106-1.643-9.151c-0.253,3.419-1.922,5.959-4.155,9.4
		c-8.291,12.771-17.058,23.578-28.674,33.45c-12.25,10.409-25.605,19.454-39.522,27.474c-11.284,6.501-22.991,12.579-35.562,16.172
		c-5.708,1.631-29.283,7.778-31.337-2.244c-0.225-1.098-0.084-2.234,0.034-3.348c0.788-7.325,0.825-15.672-0.506-23.698
		c-0.167,6.941-1.089,13.859-2.115,20.154c-1.503,9.228-5.329,17.616-8.251,26.583c-6.009,18.437-8.676,37.785-2.071,56.456
		c0.726,6.612,1.192,13.197,1.5,19.771c-0.18-9.483-0.75-18.988-1.791-28.546C919.363,361.306,942.207,357.459,965.365,355.089z"/>
	<path fill="none" d="M898.433,245.794c-0.454,0.569-0.958,1.102-1.378,1.696C897.476,246.896,897.979,246.363,898.433,245.794
		L898.433,245.794z"/>
	<path fill="none" d="M928.218,673.879c-4.454,25.807-10.162,51.678-3.384,78.223c6.566-29.511,11.529-59.267,19.776-89.123
		C935.427,663.58,929.373,667.196,928.218,673.879z"/>
	<path fill="#93A1E5" d="M564.523,383.961c51.512-7.808,100.957-20.836,146.173-47.526c35.295-20.835,74.729-33.119,110.36-53.296
		c17.773-10.064,35.801-19.677,53.66-29.59c13.307-7.385,24.289-17.587,34.545-28.693c3.917-4.243,6.786-9.92,15.523-12.058
		c-0.565,1.965-1.291,3.762-2.102,5.469c-0.251,0.527-0.547,1.006-0.818,1.512c-0.619,1.158-1.263,2.287-1.974,3.344
		c-0.329,0.487-0.672,0.956-1.018,1.424c-0.773,1.052-1.575,2.071-2.416,3.044c-0.29,0.334-0.575,0.671-0.873,0.998
		c-4.533,4.999-9.751,9.143-14.189,13.782c-0.003,0.003-0.005,0.005-0.008,0.008c7.103,8.933,8.957,20.66,8.676,32.325
		c1.331,8.026,1.294,16.373,0.506,23.698c-0.119,1.114-0.26,2.25-0.034,3.348c2.054,10.023,25.629,3.876,31.337,2.244
		c12.571-3.593,24.279-9.672,35.562-16.172c13.917-8.019,27.272-17.064,39.522-27.474c11.616-9.872,20.383-20.679,28.674-33.45
		c2.233-3.44,3.902-5.981,4.155-9.4c-0.689-3.609-1.484-7.192-2.361-10.76c-0.731-1.983-1.48-3.96-2.015-5.998
		c-10.73-40.951-26.021-81.688-55.822-112.764C959.559,56.666,922.949,52.543,883.789,70.2
		c-17.131,7.725-32.396,18.195-46.286,30.853c-29.826,27.178-62.112,51.02-96.245,72.617
		c-44.354,28.065-80.777,66.226-122.141,98.187c-31.744,24.527-64.215,46.332-105.161,52.08
		c-14.216,1.996-28.191,5.792-42.222,9.006c-42.856,9.819-81.015,29.487-116.413,55.179c-23.889,17.339-49.118,32.434-77.17,42.279
		c1.24,9.012,4.284,17.551,8.062,25.683c4.682,10.08,11.456,18.34,23.659,19.726c45.3-23.64,91.832-44.561,139.563-62.775
		C486.636,398.839,525.347,389.899,564.523,383.961z"/>
	<path fill="#93A1E5" d="M897.055,247.49c-0.008-0.001-0.18,1.555-0.18,1.555l1.291,0.888c0.184,0.169,0.313,0.382,0.492,0.555
		c-0.079-1.565-0.104-3.123-0.225-4.693C897.979,246.363,897.476,246.896,897.055,247.49z"/>
	<path fill="#93A1E5" d="M1055.813,450.704c7.223-7.903,14.669-12,22.798-14.822c-3.715-24.381-7.43-48.763-11.147-73.144
		c-0.721-5.984-1.589-11.961-2.411-17.941c-33.228,3.434-66.456,6.89-99.689,10.291c-23.158,2.371-46.002,6.218-68.032,14.034
		c1.041,9.557,1.611,19.063,1.791,28.546c1.209,25.764-0.8,51.288-6.69,76.998c-1.548,6.757-2.315,13.262-2.386,19.528
		c0.379,31.75,16.315,52.965,39.785,69.513c4.406-8.772,3.585-25.301,5.991-34.561c12.828-49.348,42.24-73.019,92.603-74.882
		c10.527-0.389,18.054,2.84,25.339,10.282c13.944,14.243,25.267,34.013,37.032,49.839c0.067-0.207-0.358-5.721-0.296-5.928
		c-0.359-4.629-1.236-6.917-1.802-11.516C1078.374,481.45,1073.393,462.432,1055.813,450.704z"/>
	<path fill="#3F3E40" d="M388.152,645.783c-4.919-1.138-9.677-2.404-15.868,0.491c2.88,2.43,3.99,4.046,5.463,4.51
		c50.876,16.017,100.608,53.124,132.071,95.948c65.552,89.221,62.411,213.371-12.13,296.576
		c-53.669,59.908-142.618,89.541-221.458,80.604c-57.784-6.55-132.22-35.293-164.444-86.798
		c-20.984-33.54-38.637-69.955-44.403-109.456c-14.927-102.266,46.407-211.479,132.385-264.334
		c7.503-4.613,15.582-9.235,20.396-16.474c0.469-0.706,0.908-1.437,1.312-2.195c-80.212,34.23-143.023,108.037-161.333,193.304
		c-9.352,43.553-6.671,89.453,6.631,131.901c15.923,50.81,46.473,96.418,91.515,125.361c46.731,30.028,102.969,40.744,157.76,42.302
		c79.472,2.261,160.172-43.43,207.804-105.497c33.594-43.775,45.874-102.791,43.863-157.17
		C564.021,774.989,488.338,668.964,388.152,645.783z"/>
	<path fill="#3F3E40" d="M1051.426,226.65c4.53,31.019,9.656,62.431,11.119,93.772c0.377,8.146,1.397,16.263,2.51,24.375
		c0.822,5.98,1.69,11.957,2.411,17.941c3.716,24.38,7.432,48.762,11.147,73.144c0.833,5.47,1.667,10.94,2.501,16.41
		c1.701,11.163,4.337,22.191,6.032,33.369c1.779,11.733,4.175,24.309,3.91,36.187c-0.322,14.459,1.768,28.123-0.901,42.598
		c-2.687,14.574-7.686,28.583-12.324,42.617c13.118-15.035,19.848-32.422,22.205-51.627c3.743-30.47-0.461-60.49-5.325-90.437
		c-8.858-54.538-19.6-108.824-24.308-163.932c-3.652-42.752-11.567-84.666-23.751-125.702
		c-10.373-34.935-23.654-68.978-50.706-95.112c-23.481-22.686-52.041-33.844-85.295-29.226
		c-31.491,4.374-58.058,19.655-80.075,41.407c-28.683,28.336-59.068,54.068-94.874,73.201c-5.272,2.817-10.155,6.353-15.181,9.612
		c-42.408,27.494-79.782,61.262-117.912,93.945c-24.924,21.363-52.871,34.837-84.757,40.745
		c-57.979,10.741-112.679,30.339-161.434,63.085c-38.25,25.691-78.821,45.132-122.987,57.921
		c-5.609,1.624-12.42,2.652-16.027,10.507c21.5-4.267,41.31-8.704,60.61-15.199c28.055-9.742,53.291-24.673,77.186-41.82
		c35.408-25.409,73.574-44.864,116.434-54.586c14.031-3.182,28.008-6.94,42.224-8.918c40.947-5.697,73.426-27.262,105.179-51.518
		c41.375-31.607,77.812-69.341,122.178-97.098c34.141-21.361,66.435-44.939,96.27-71.814c13.895-12.516,29.164-22.872,46.299-30.514
		c39.166-17.468,75.774-13.406,105.787,17.531c30.195,31.126,44.601,71.401,56.092,112.111c0.664,2.352,1.179,4.741,1.76,7.115
		c0.877,3.569,1.672,7.152,2.361,10.76C1050.364,220.544,1050.978,223.583,1051.426,226.65z"/>
	<path fill="#3F3E40" d="M980.943,619.314c2.051-2.909,3.803-6.065,5.337-9.274c1.526-3.196,3.3-6.898-0.422-9.663
		c-4.591-3.412-7.942-0.335-10.538,3.13c-5.162,6.889-8.257,15.324-15.433,22.111c-14.106-19.885-18.546-42.601-30.054-61.912
		c-25.729-17.93-40.101-41.202-39.785-69.513c0.07-6.266,0.837-12.77,2.386-19.528c5.89-25.71,7.899-51.233,6.69-76.998
		c-0.308-6.573-0.773-13.158-1.5-19.771c-6.604-18.67-3.938-38.019,2.071-56.456c2.922-8.967,6.748-17.355,8.251-26.583
		c1.025-6.295,1.947-13.214,2.115-20.154c0.281-11.665-1.573-23.393-8.676-32.325l0,0c0.003-0.003,0.005-0.005,0.008-0.008
		c4.439-4.639,9.656-8.784,14.189-13.782c0.297-0.326,0.583-0.663,0.873-0.998c0.841-0.973,1.643-1.991,2.416-3.044
		c0.345-0.469,0.69-0.937,1.018-1.424c0.711-1.057,1.355-2.186,1.974-3.344c0.271-0.506,0.568-0.984,0.818-1.512
		c0.811-1.707,1.537-3.504,2.102-5.469c-8.737,2.139-11.606,7.816-15.523,12.058c-10.256,11.107-21.237,21.308-34.545,28.693
		c-17.859,9.912-35.887,19.526-53.66,29.59c-35.631,20.177-75.065,32.462-110.36,53.296c-45.216,26.69-94.661,39.718-146.173,47.526
		c-39.175,5.938-77.886,14.877-115.088,29.073c-47.732,18.214-94.263,39.136-139.563,62.775
		c-34.073,50.385-29.345,101.915-3.993,154.649c7.047-7.392,4.816-15.356,2.12-23.328c-8.442-24.96-8.548-50.693-8.053-76.664
		c0.554-29.066,16.633-46.139,41.329-57.331c6.469-2.932,10.095-0.051,9.228,7.123c-0.325,2.685-4.671,3.956-2.985,7.497
		c3.431,1.904,5.69-0.43,8.307-1.662c23.375-11.001,44.444-25.969,66.761-38.691c40.483-23.078,85.278-35.723,130.59-45.206
		c42.35-8.864,85.193-16.181,124.194-35.513c74.669-37.013,152.1-69.076,219.685-119.196c0.421-0.594,0.924-1.127,1.378-1.696v0
		c0.121,1.57,0.146,3.128,0.225,4.693c1.294,25.766-3.168,50.904-10.543,75.778c-3.401,11.465-5.932,23.551-3.764,35.249
		c6.945,37.465,4.561,74.091-3.173,111.412c-7.434,35.882,1.717,68.502,32.229,92.747c6.638,5.275,10.928,12.297,14.379,20.135
		c6.221,14.136,11.728,28.741,20.602,41.523c7.864,11.328,7.827,18.944-4.247,23.114c-20.332,7.021-26.382,21.351-28.401,40.666
		c-2.66,25.472-7.521,50.966,1.501,75.866c10.515,29.024,5.481,57.824-2.001,85.755c-4.813,17.966-9.072,35.75-9.662,54.087
		c-1.929,59.995-3.121,120.013-4.491,180.024c-0.272,11.908-0.299,23.967,4.108,35.232c3.838,9.81,7.997,19.932,20.059,22.391
		c2.889-3.358,1.574-5.899,0.041-8.629c-7.144-12.736-9.868-26.502-10.699-40.997c-3.682-64.209-2.364-128.378,2.281-192.452
		c1.143-15.754,4.11-31.524,11.097-46.543c5.739-12.338,7.619-26.344,6.593-40.174c-2.037-27.414-0.982-54.566,4.762-81.554
		C947.88,693.945,956.586,653.886,980.943,619.314z M924.834,752.102c-6.778-26.545-1.07-52.416,3.384-78.223
		c1.154-6.682,7.209-10.299,16.392-10.9C936.363,692.834,931.4,722.591,924.834,752.102z"/>
	<path fill="#3F3E40" d="M1087.819,1120.22c-13.38-5.185-26.286-11.702-41.075-12.589c-13.043-0.782-26.31-0.839-36.223-12.191
		c-3.467-3.97-9.601-4.789-15.167-4.609c-9.004,0.292-18.026,0.44-26.999,1.163c-14.866,1.198-14.923,1.349-13.831-14.06
		c1.792-25.283,8.397-49.771,13.417-74.439c10.285-50.54,25.537-100.169,26.29-152.324c0.109-7.529,3.711-9.21,10.221-8.233
		c3.56,0.535,7.176,0.852,10.775,0.948c27.273,0.726,54.915-19.611,61.974-47.452c-11.136,3.565-18.231,10.473-25.421,17.24
		c-15.505,14.592-33.737,21.122-56.077,19.917c3.468-28.905,9.806-55.727,15.699-82.633c6.07-27.71,17.065-53.736,27.545-79.902
		c6.121-15.283,9.563-30.952,9.976-47.305c0.087-3.423-0.249-7.714-5.476-7.501c-3.922,0.16-4.315,3.639-4.963,6.489
		c-0.662,2.92-1.119,5.908-1.402,8.891c-1.263,13.244-4.781,25.821-9.453,38.308c-9.878,26.406-19.058,53.015-24.803,80.789
		c-8.132,39.317-21.007,77.644-22.951,118.233c-0.973,20.353-1.076,40.997-6.346,60.824c-10.36,38.975-14.405,79.12-22.779,118.458
		c-2.363,11.092-3.362,22.614-3.651,33.972c-0.373,14.703,3.416,18.605,17.952,18.234c37.798-0.966,72.162,14.436,108.164,21.968
		c3.438,0.719,7.024,1.824,9.11,5.39c-6.235,7.653-16.3,1.72-24.843,7.627c11.231,2.762,20.868,2.5,30.368-1.637
		c2.712-1.18,5.753-2.435,6.131-5.955C1094.458,1123.395,1091.277,1121.56,1087.819,1120.22z"/>
	<path fill="#3F3E40" d="M196.213,468.99c-0.981,7.216-1.14,14.708,1.643,21.351c13.318,31.801,20.25,64.883,24.322,99.105
		c3.457,29.059,29.269,50.956,60.353,53.023c-8.28-6.51-13.546-11.346-19.464-15.175c-19.71-12.75-29.051-31.042-30.695-54.071
		c-1.16-16.232-6.138-31.678-10.395-47.322c-5.159-18.954-15.927-36.469-14.973-57.046c0.152-3.274-1.593-5.975-5.206-5.886
		C198.281,463.057,196.643,465.838,196.213,468.99z"/>
	<path fill="#3F3E40" d="M1113.361,804.779c-2.49-1.509-5.497-3.369-8.1-0.663c-2.608,2.711-0.799,5.78,1.057,7.992
		c3.058,3.643,6.304,7.262,10.022,10.194c15.334,12.096,19.946,28.055,16.523,46.51c-2.071,11.162-4.643,22.371-8.447,33.04
		c-5.637,15.814-7.708,31.324-1.477,47.336c5.421,13.926,2.039,27.077-3.761,39.959c-2.108,4.683-6.236,8.445-5.253,14.553
		c17.494-13.795,24.588-31.746,18.904-53.399c-4.127-15.718-3.895-30.322,2.499-45.579c6.01-14.338,9.711-29.726,10.05-45.431
		C1145.907,834.758,1133.816,817.183,1113.361,804.779z"/>
	<path fill="#3F3E40" d="M1098.77,689.825c-17.224-21.549-34.237-43.112-28.215-75.688c-9.955,4.979-10.015,10.79-10.04,16.727
		c-0.064,16.221,5.185,30.706,14.979,43.378c21.315,27.58,39.726,55.736,30.78,93.533c-1.993,8.417,0.148,17.736,12.985,22.467
		c-3.553-8.451-5.844-15.294-4.12-22.507C1121.965,739.178,1117.293,712.997,1098.77,689.825z"/>
	<path fill="#3F3E40" d="M339.86,619.673c-5.753,1.023-12.094-0.188-18.067,5.057c5.528,4.226,10.775,4.897,16.267,4.966
		c19.542,0.244,29.093-11.472,20.872-29.081c-13.21-28.294-21.493-57.112-19.411-88.534c0.226-3.408,0.35-8.093-4.191-8.737
		c-5.27-0.748-4.753,4.376-5.286,7.532c-4.123,24.385-0.965,47.78,10.369,69.862c3.004,5.854,6.943,11.226,9.982,17.065
		C357.979,612.371,355.706,616.855,339.86,619.673z"/>
	<path fill="#3F3E40" d="M944.274,1146.284c33.698,8.06,66.857,1.143,100.107-3.259
		C1010.606,1132.814,977.454,1139.933,944.274,1146.284z"/>
	<path fill="#3F3E40" d="M1066.58,680.698c-1.216-3.053-5.337-2.654-5.616-1.275c-2.673,13.25-16.345,22.258-13.652,37.699
		c2.621,15.035,2.002,29.696-15.802,39.955c19.317-0.654,27.428-7.916,27.42-23.155c-0.008-13.692-1.859-27.316,7.255-39.434
		C1069.06,690.665,1068.421,685.319,1066.58,680.698z"/>
	<path fill="#3F3E40" d="M1089.188,989.035c-10.106-12.182-12.47-25.332-6.658-40.214c5.445-13.94,10.924-27.921,15.254-42.228
		c5.252-17.346,5.028-35.304-6.423-49.837c-8.406-10.668-14.698-21.149-16.562-35.164c-7.066,12.148-10.116,23.969,1.046,35.498
		c14.091,14.552,15.369,31.769,9.25,50.173c-1.51,4.544-2.69,9.341-5.04,13.439c-18.834,32.855-17.028,62.229,12.552,88.564
		c11.029,9.818,13.635,23.582,9.813,38.136c-0.731,2.786-2.254,5.652,0.394,8.309c11.355-12.078,12.736-29.065,2.756-45.307
		C1100.895,1002.796,1094.919,995.943,1089.188,989.035z"/>
	<path fill="#3F3E40" d="M1077.071,1045.623c-0.903-0.272-1.807-0.537-2.713-0.795c-7.322-2.091-18.638-10.95-25.993-12.921
		c-3.62-0.97-15.139-4.816-17.368,0.361c-5.043,11.734-11.41,4.707-17.355,3.082c-11.257-3.078-21.434-10.41-37.783-8.801
		c17.425,9.538,31.184,18.331,47.833,21.13c3.752,0.631,9.426,0.843,9.519-2.188c0.339-10.975,6.987-7.077,11.819-5.541
		c9.647,3.067,18.98,7.105,28.527,10.503c3.063,1.091,7.005,3.059,10.26,1.719c1.727-0.711,3.052-2.414,3.109-4.267
		c0.234-0.437,0.382-0.903,0.398-1.352c0.082-1.54-0.711-2.896-1.57-3.959c-0.882-1.091-1.892-1.981-2.846-2.92
		c-1.927-1.87-3.889-3.706-5.887-5.502c-7.981-7.176-16.578-13.829-26.221-18.758c-4.84-2.402-9.919-4.352-15.169-5.671
		c-5.245-1.386-10.63-1.924-15.942-2.55c-5.314-0.622-10.63-1.283-15.715-2.847c-5.063-1.538-9.955-3.948-13.713-7.696l-0.518,0.513
		c2.891,4.882,7.908,8.387,13.09,10.853c5.272,2.4,10.874,3.793,16.161,4.857c10.716,2.028,19.623,4.303,28.527,9.04
		c4.474,2.13,8.766,4.78,13,7.61c4.338,2.703,8.399,5.896,12.678,8.936l6.307,4.775c1.021,0.764,2.033,1.481,2.692,2.026
		C1080.57,1045.669,1078.739,1046.125,1077.071,1045.623z"/>
</g>
</svg>
