<?xml version="1.0" encoding="utf-8"?>
<!-- Designed by Vexels.com - 2019 All Rights Reserved - https://vexels.com/terms-and-conditions/  -->
<svg version="1.1" id="Layer_1" xmlns="http://www.w3.org/2000/svg" xmlns:xlink="http://www.w3.org/1999/xlink" x="0px" y="0px"
	 viewBox="0 0 1200 1200" enable-background="new 0 0 1200 1200" xml:space="preserve">
<g>
	<path fill="none" d="M476.195,773.125c7.023-0.6,14.042-1.246,21.056-1.894c7.942-0.734,15.886-1.469,23.831-2.189
		c-7.945,0.719-15.888,1.455-23.831,2.189C490.237,771.879,483.218,772.524,476.195,773.125z"/>
	<path fill="none" d="M370.79,775.627c-14.06-0.295-28.123-0.673-42.178-1.079C342.667,774.954,356.729,775.332,370.79,775.627z"/>
	<path fill="none" d="M391.877,776.001c7.027,0.1,14.054,0.172,21.077,0.211c7.025,0.038,14.053-0.091,21.081-0.349
		c-7.028,0.257-14.056,0.387-21.081,0.348C405.931,776.173,398.904,776.101,391.877,776.001z"/>
	<path fill="none" d="M748.999,635.935c0.229,2.839,2.034,5.222,4.003,4.921c10.627-1.622,20.251-5.969,29.161-12.419
		C771.221,631.154,759.729,631.928,748.999,635.935z"/>
	<path fill="none" d="M455.119,774.752c-7.027,0.47-14.056,0.855-21.084,1.112C441.063,775.607,448.092,775.222,455.119,774.752z"/>
	<path fill="none" d="M714.34,745.441c-1.331,0.188-2.661,0.389-3.99,0.584C711.679,745.83,713.008,745.63,714.34,745.441z"/>
	<path fill="none" d="M628.636,584.618c4.217-6.25,8.749-12.231,13.472-18.047C637.385,572.388,632.853,578.368,628.636,584.618z"/>
	<path fill="none" d="M1003.93,632.432c-8.604,4.002-17.829,5.526-27.019,7.525c-15.408,3.353-26.776,15.377-27.693,27.569
		c-0.473,6.279,0.83,10.548,8.134,12.037c19.198,3.913,37.505,10.555,55.07,19.307c3.64,1.814,7.749,3.024,11.777,3.665
		c22.953,3.654,46.09,6.157,70.632,12.264c-16.266-37.511-41.171-66.912-68.684-95.22
		C1019.781,624.237,1012.039,628.66,1003.93,632.432z"/>
	<path fill="none" d="M265.387,730.081c5.217-1.185,10.445-2.377,15.687-3.497C275.832,727.704,270.604,728.896,265.387,730.081z"/>
	<path fill="none" d="M750.667,538.631c-9.071,12.195-18.144,24.407-26.416,37.159C732.523,563.038,741.596,550.826,750.667,538.631
		z"/>
	<path fill="none" d="M731.722,742.958c-3.378,0.515-6.761,0.994-10.145,1.466c3.908-0.55,7.789-1.053,11.659-1.51
		C732.701,742.889,732.186,742.887,731.722,742.958z"/>
	<path fill="none" d="M476.195,773.125c-7.023,0.601-14.049,1.157-21.076,1.627C462.146,774.281,469.172,773.726,476.195,773.125z"
		/>
	<path fill="none" d="M704.745,746.882c-1.068,0.169-2.136,0.339-3.203,0.518C702.609,747.222,703.677,747.051,704.745,746.882z"/>
	<path fill="none" d="M765.495,404.235c-0.786,0.298-1.554,0.627-2.3,0.999c-0.008,0.004-0.015,0.008-0.022,0.011
		c0.008-0.004,0.015-0.008,0.022-0.011C763.941,404.862,764.709,404.533,765.495,404.235z"/>
	<path fill="none" d="M691.846,622.751c-6.057,8.182-5.821,10.726,0.024,18.901c-7.486-10.471-2.642-16.287,5.274-23.946
		c-0.993,0.858-1.997,1.709-3.114,2.48C693.137,620.802,692.515,621.848,691.846,622.751z"/>
	<path fill="none" d="M784.792,401.526c-3.549-0.76-7.594-0.595-12.001,0.561c-1.627,0.427-3.28,0.842-4.901,1.336
		c1.62-0.494,3.273-0.909,4.901-1.336C777.198,400.931,781.243,400.766,784.792,401.526z"/>
	<path fill="none" d="M705.35,491.465c0.529-0.299,1.069-0.577,1.597-0.879c6.688-3.834,13.268-7.97,19.774-12.151
		c-5.454,3.435-10.979,6.746-16.469,10.095C708.636,489.515,706.997,490.493,705.35,491.465z"/>
	<path fill="none" d="M644.419,480.18c-0.104-0.766-0.012-1.389,0.185-1.934c-2.457,1.608-4.935,3.183-7.44,4.714
		c-2.79,1.711-5.045,4.214-7.693,6.111c-30.687,21.985-62.718,41.22-99.836,50.464c-6.555,1.633-13.163,3.168-19.556,5.314
		c-16.219,5.444-31.196,13.038-42.456,26.478c-1.343,1.603-3.565,3.378-1.746,5.693c1.238,1.576,3.644,1.362,5.275,0.563
		c12.856-6.296,27.445-4.18,40.641-8.43c16.405-5.283,31.682-2.979,46.829,4.557c11.718,5.83,15.65,4.438,19.965-8.357
		c4.016-11.909,11.858-19.557,22.183-25.693c12.67-7.53,26.554-12.259,39.935-18.162c8.282-3.654,16.617-7.178,24.908-10.787
		c-1.535,0.546-3.069,1.097-4.612,1.59C654.74,502.34,648.834,491.165,644.419,480.18z"/>
	<path fill="none" d="M709.594,497.981c5.876-3.256,11.442-7.175,16.794-11.332C721.036,490.806,715.471,494.725,709.594,497.981
		c-11.43,6.332-20.46,15.156-28.895,24.711C689.135,513.137,698.165,504.313,709.594,497.981z"/>
	<path fill="none" d="M628.636,584.618c-2.109,3.125-4.138,6.318-6.074,9.591c-4.81,8.134-8.962,16.294-11.957,24.756
		c2.995-8.462,7.146-16.622,11.957-24.756C624.498,590.936,626.527,587.743,628.636,584.618z"/>
	<path fill="none" d="M728,477.619c0.901-0.581,1.819-1.149,2.716-1.732c6.273-4.073,19.423-10.47,23.031-17.204
		c0.005-0.011,0.012-0.02,0.018-0.031C745.728,465.853,736.973,471.921,728,477.619z"/>
	<path fill="none" d="M740.359,738.882c-0.174,1.809-0.745,2.85-1.533,3.449c10.313-1.08,20.571-1.798,30.951-1.858
		c5.407-0.031,10.815,0.004,16.22,0.141c2.277,0.058,13.706-0.951,15.021,0.65c-17.118-20.823-39.122-35.076-61.7-48.611
		C741.791,708.015,743.332,723.398,740.359,738.882z"/>
	<path fill="none" d="M801.614,621.34c-1.871,1.077-3.717,2.193-5.543,3.34C797.901,623.537,799.749,622.424,801.614,621.34z"/>
	<path fill="none" d="M806.958,618.311c-1.692,0.939-3.373,1.896-5.053,2.859C803.578,620.201,805.267,619.254,806.958,618.311z"/>
	<path fill="none" d="M791.196,692.813c4.186,5.97,9.552,10.951,14.915,15.839c2.74,2.496,5.496,4.975,8.128,7.586
		c2.886,2.864,5.064,6.692,9.063,8.165c0.422,0.155,0.861,0.223,1.291,0.338c-1.755-1.236-1.122-2.685-1.052-4.608
		c0.049-1.347-0.479-2.639-0.997-3.883c-3.519-8.442-6.931-16.939-10.753-25.25c-4.721-10.264-9.925-20.308-15.692-30.025
		c-4.894-8.247-12.066-15.298-14.154-25.139c0.596-0.798,1.091-1.72,1.799-2.382c-8.186,5.842-18.265,10.941-28.224,10.928
		C768.212,661.54,780.058,676.929,791.196,692.813z"/>
	<path fill="none" d="M887.399,731.932c0.305,0.217,0.73,0.487,1.23,0.794C888.226,732.452,887.796,732.214,887.399,731.932z"/>
	<path fill="none" d="M844.71,725.337c0.983-0.104,1.964-0.213,2.938-0.372C846.673,725.119,845.693,725.239,844.71,725.337z"/>
	<path fill="none" d="M795.016,625.352c-1.075,0.69-2.14,1.391-3.188,2.12C792.886,626.758,793.939,626.036,795.016,625.352z"/>
	<path fill="none" d="M844.26,725.389c-2.312,0.211-4.637,0.282-6.957,0.252c-0.226-0.003-0.452,0.012-0.678,0.014
		C839.172,725.712,841.723,725.636,844.26,725.389z"/>
	<path fill="none" d="M605.863,653.679c-0.232-2.768-0.317-5.483-0.266-8.151C605.546,648.196,605.631,650.911,605.863,653.679
		c0.173,2.069,0.25,3.949,0.221,5.663C606.114,657.628,606.036,655.747,605.863,653.679z"/>
	<path fill="#93A1E5" d="M328.612,774.548c14.055,0.406,28.118,0.784,42.178,1.079c7.03,0.148,14.059,0.275,21.087,0.374
		c7.027,0.1,14.054,0.172,21.077,0.211c7.025,0.039,14.053-0.091,21.081-0.348c7.028-0.257,14.057-0.642,21.084-1.112
		c7.027-0.47,14.053-1.026,21.076-1.627c7.023-0.6,14.042-1.246,21.056-1.894c7.942-0.734,15.886-1.469,23.831-2.189
		c15.89-1.439,31.787-2.813,47.695-3.986c7.954-0.586,15.911-1.122,23.871-1.59c8.461-0.497,16.883-1.231,25.274-2.156
		c25.17-2.776,50.058-7.278,74.886-12.317c2.902-0.589,5.816-1.105,8.735-1.594c1.067-0.179,2.135-0.349,3.203-0.518
		c1.867-0.295,3.734-0.583,5.604-0.857c1.33-0.195,2.659-0.396,3.99-0.584c2.403-0.341,4.807-0.675,7.21-1.013
		c0.009-0.001,0.019-0.002,0.028-0.004c3.384-0.472,6.767-0.951,10.145-1.466c0.464-0.071,0.979-0.069,1.514-0.044
		c1.867-0.22,3.727-0.388,5.59-0.583c0.788-0.599,1.359-1.64,1.533-3.449c2.973-15.484,1.432-30.867-1.04-46.229
		c-16.38-16.474-33.822-31.94-47.449-51.001c-5.845-8.174-6.081-10.719-0.024-18.901c0.669-0.904,1.29-1.949,2.183-2.566
		c1.117-0.771,2.122-1.621,3.114-2.48c0.411-0.398,0.824-0.796,1.25-1.205c8.176-7.835,12.311-18.163,17.885-27.761
		c2.549-4.39,5.217-8.7,7.973-12.951c8.271-12.751,17.345-24.964,26.416-37.159c12.984-17.455,24.35-35.72,33.462-55.155
		c3.645-7.774,6.929-15.736,9.813-23.908c1.442-4.086,2.783-8.225,4.018-12.419c2.717-9.223,3.06-18.57,1.603-27.857
		c-1.561-9.941-6.964-16.094-14.772-17.767c-3.549-0.76-7.594-0.595-12.001,0.562c-1.627,0.427-3.28,0.842-4.901,1.336
		c-0.81,0.247-1.611,0.514-2.396,0.812c-0.786,0.298-1.554,0.627-2.3,0.999c-0.008,0.004-0.015,0.008-0.022,0.011
		c-23.005,11.473-45.417,24.116-67.253,37.679c-17.661,10.969-33.966,23.97-51.316,35.322c-0.196,0.545-0.289,1.168-0.185,1.934
		c4.415,10.985,10.321,22.16,16.581,32.122c1.543-0.493,3.077-1.044,4.612-1.59c13.499-5.874,26.874-11.995,39.738-19.247
		c1.646-0.973,3.286-1.95,4.902-2.936c5.49-3.349,11.015-6.66,16.469-10.095c0.425-0.273,0.854-0.542,1.279-0.816
		c8.972-5.698,17.727-11.767,25.765-18.967c-0.005,0.011-0.012,0.02-0.018,0.031c0.005-0.01,0.013-0.02,0.019-0.031
		c-3.295,6.204-7.828,11.264-12.81,15.859c-2.989,2.757-6.141,5.347-9.284,7.918c-1.74,1.423-3.5,2.835-5.284,4.22
		c-5.352,4.157-10.917,8.076-16.794,11.332c-11.43,6.332-20.46,15.156-28.895,24.711c-0.494,0.56-0.994,1.112-1.484,1.677
		c-7.373,8.487-15.005,16.748-22.482,25.14c-4.985,5.594-9.901,11.247-14.624,17.063c-4.724,5.816-9.256,11.797-13.472,18.047
		c-2.109,3.125-4.138,6.318-6.074,9.591c-4.81,8.133-8.962,16.294-11.957,24.756c-1.284,3.627-2.354,7.308-3.173,11.067
		c-0.545,2.506-0.979,5.046-1.289,7.626s-0.496,5.201-0.546,7.87c-0.051,2.668,0.034,5.383,0.266,8.151
		c0.173,2.069,0.25,3.949,0.221,5.663c-0.206,11.996-5.63,15.813-19.76,18.681c-33.468,6.793-66.694,14.771-99.503,24.181
		c-25.056,7.186-50.682,10.174-76.29,13.878c-27.184,3.932-54.403,4.819-81.853,4.583c-8.013-0.069-15.983,0.571-23.915,1.649
		c-7.931,1.077-15.826,2.592-23.689,4.271c-5.242,1.119-10.47,2.312-15.687,3.497c0.16,12.34,0.318,24.68,0.475,37.02
		c-1.279,6.882,3.958,5.623,7.566,5.755c0.352,0.013,0.705,0.022,1.057,0.034l0,0C292.524,773.544,310.568,774.026,328.612,774.548z
		"/>
	<path fill="#93A1E5" d="M913.886,709.527c-6.166-6.732-11.714-12.297-16.703-18.326c-17.404-21.03-24.018-46.06-26.616-72.59
		c-0.516-5.273,1.537-7.35,6.452-8.393c9.497-2.016,18.884-4.55,27.714-8.752c-2.155-1.781-4.01-4.01-6.94-4.628
		c-20.984,9.586-43.192,6.655-65.141,6.375l0,0c-0.001,0.002-0.001,0.003-0.002,0.005c-1.787,4.875-18.645,11.176-23.195,13.703
		c-0.832,0.462-1.664,0.928-2.497,1.391c-1.69,0.943-3.379,1.89-5.053,2.859c-0.097,0.056-0.193,0.113-0.29,0.169
		c-1.866,1.084-3.714,2.197-5.543,3.34c-0.353,0.222-0.704,0.447-1.055,0.672c-1.077,0.684-2.13,1.406-3.188,2.12
		c-1.45,1.008-2.892,2.027-4.278,3.128c-1.211,0.961-2.49,1.915-3.807,2.855c-0.708,0.662-1.202,1.584-1.799,2.382
		c2.088,9.84,9.26,16.892,14.154,25.139c5.767,9.716,10.972,19.76,15.692,30.025c3.822,8.311,7.234,16.808,10.753,25.25
		c0.518,1.244,1.047,2.536,0.997,3.883c-0.07,1.924-0.702,3.373,1.052,4.608c3.362,0.901,6.942,0.737,10.391,0.887
		c0.546,0.024,1.094,0.015,1.641,0.027c0.226-0.003,0.452-0.017,0.678-0.014c2.32,0.029,4.646-0.041,6.957-0.252
		c0.151-0.015,0.3-0.036,0.45-0.052c0.983-0.098,1.963-0.217,2.938-0.372c1.218-0.199,2.431-0.427,3.631-0.72
		c13.494-3.299,25.151-0.117,36.119,7.687c0.397,0.283,0.827,0.52,1.23,0.794c2.172,1.332,5.944,3.458,9.45,5.895
		c0.573,0.345,1.151,0.681,1.719,1.032c3.389-2.487,5.706-5.924,8.083-9.281c4.32-6.101,7.228-13.171,12.722-18.471
		c9.73-9.387,18.368-19.74,26.747-30.32c-0.961-2.026-0.691-4.573-2.622-6.188C934.584,686.619,924.441,697.846,913.886,709.527z"/>
	<path fill="#3F3E40" d="M112.674,748.883c10.427-2.019,19.265-8.296,29.472-10.94c4.727-1.225,9.731-3.699,14.199-0.963
		c15.09,9.239,31.2,7.329,47.038,4.172c20.605-4.108,41.372-7.192,62.003-11.07c5.217-1.185,10.445-2.377,15.687-3.497
		c7.863-1.679,15.758-3.193,23.689-4.271c7.932-1.077,15.901-1.718,23.915-1.649c27.449,0.237,54.669-0.651,81.853-4.583
		c25.608-3.703,51.234-6.691,76.29-13.878c32.809-9.41,66.035-17.388,99.503-24.181c14.131-2.868,19.554-6.685,19.76-18.681
		c0.029-1.714-0.048-3.594-0.221-5.663c-0.232-2.768-0.317-5.483-0.266-8.151c0.05-2.668,0.236-5.289,0.546-7.87
		s0.743-5.12,1.289-7.626c0.819-3.759,1.889-7.44,3.173-11.067c2.995-8.462,7.146-16.622,11.957-24.756
		c1.936-3.273,3.965-6.466,6.074-9.591c4.217-6.25,8.749-12.231,13.472-18.047c4.724-5.816,9.64-11.469,14.624-17.063
		c7.477-8.391,15.11-16.652,22.482-25.14c0.491-0.564,0.99-1.117,1.484-1.677c8.434-9.555,17.465-18.379,28.894-24.711
		c5.877-3.256,11.443-7.175,16.795-11.332c1.784-1.386,3.544-2.798,5.284-4.22c3.144-2.57,6.295-5.16,9.284-7.918
		c4.982-4.595,9.515-9.655,12.81-15.859c-0.005,0.01-0.014,0.02-0.019,0.031c-3.608,6.734-16.758,13.131-23.031,17.204
		c-0.898,0.583-1.816,1.151-2.716,1.732c-0.425,0.274-0.854,0.543-1.279,0.816c-6.506,4.181-13.085,8.318-19.774,12.151
		c-0.528,0.303-1.068,0.581-1.597,0.879c-12.864,7.252-26.239,13.373-39.738,19.247c-8.291,3.608-16.626,7.132-24.908,10.787
		c-13.381,5.904-27.266,10.632-39.935,18.162c-10.325,6.136-18.167,13.784-22.183,25.693c-4.314,12.795-8.247,14.187-19.965,8.357
		c-15.147-7.536-30.424-9.841-46.829-4.557c-13.196,4.25-27.785,2.134-40.641,8.43c-1.632,0.799-4.038,1.012-5.275-0.563
		c-1.819-2.315,0.403-4.09,1.746-5.693c11.26-13.44,26.237-21.035,42.456-26.478c6.393-2.146,13-3.682,19.556-5.314
		c37.118-9.244,69.149-28.479,99.836-50.464c2.648-1.897,4.904-4.4,7.693-6.111c2.506-1.531,4.983-3.106,7.44-4.714
		c17.35-11.352,33.656-24.353,51.316-35.322c21.836-13.562,44.248-26.205,67.253-37.679c0.008-0.004,0.015-0.008,0.022-0.011
		c0.746-0.372,1.514-0.701,2.3-0.999c0.785-0.298,1.586-0.565,2.396-0.812c1.62-0.494,3.273-0.909,4.901-1.336
		c4.407-1.156,8.452-1.322,12.001-0.561c7.808,1.672,13.211,7.825,14.772,17.767c1.457,9.287,1.114,18.634-1.603,27.857
		c-1.235,4.194-2.577,8.333-4.018,12.419c-2.883,8.172-6.168,16.133-9.813,23.908c-9.112,19.435-20.478,37.7-33.462,55.155
		c-9.071,12.195-18.144,24.407-26.416,37.159c-2.757,4.25-5.424,8.561-7.973,12.951c-5.573,9.599-9.709,19.926-17.885,27.761
		c-0.427,0.409-0.839,0.807-1.25,1.205c-7.916,7.66-12.76,13.475-5.274,23.946c13.627,19.061,31.069,34.527,47.449,51.001
		c22.577,13.535,44.582,27.788,61.7,48.611c-1.316-1.6-12.745-0.592-15.021-0.65c-5.405-0.137-10.813-0.172-16.22-0.141
		c-10.38,0.06-20.638,0.778-30.951,1.858c-1.863,0.195-3.722,0.363-5.59,0.583c-3.87,0.457-7.751,0.96-11.659,1.51
		c-0.009,0.001-0.019,0.002-0.028,0.004c-2.403,0.338-4.807,0.672-7.21,1.013c-1.331,0.189-2.661,0.389-3.99,0.584
		c-1.87,0.274-3.737,0.562-5.604,0.857c-1.068,0.169-2.137,0.34-3.203,0.518c-2.919,0.489-5.833,1.005-8.735,1.594
		c-24.828,5.039-49.715,9.541-74.886,12.317c-8.39,0.925-16.812,1.658-25.274,2.156c-7.961,0.468-15.918,1.004-23.871,1.59
		c-15.908,1.173-31.805,2.547-47.695,3.986c-7.945,0.719-15.888,1.455-23.831,2.189c-7.014,0.648-14.033,1.294-21.056,1.894
		c-7.023,0.601-14.049,1.157-21.076,1.627c-7.027,0.47-14.056,0.855-21.084,1.112c-7.028,0.257-14.056,0.387-21.081,0.349
		c-7.023-0.039-14.05-0.111-21.077-0.211c-7.028-0.1-14.057-0.227-21.087-0.374c-14.06-0.295-28.123-0.673-42.178-1.079
		c-18.043-0.522-36.088-1.003-54.126-1.657l0,0c-0.678,0.525-1.565,0.805-2.489,0.814c-2.613,0.025-5.127,0.173-7.722-0.4
		c-0.233-0.053-0.467-0.093-0.702-0.149c-1.497,0.131-3.197-0.123-4.711-0.2c-22.908-1.172-45.806-1.145-68.705,0.126
		c-20.035,1.112-39.605,1.943-59.032,7.424c-19.715,5.562-38.592,13.698-58.297,19.293c-5.164,1.466-16.244,3.212-15.629-4.537
		c0.433-5.453,7.062-11.11,9.951-15.467c2.356-3.553,4.761-7.162,8.049-9.875c5.516-4.552,13.29-6.407,17.44-12.231
		c-4.473-2.021-9.789-0.793-14.15,1.46c-14.464,7.473-20.714,23.403-27.689,37.094c-2.308,4.532,0.596,7.803,5.886,8.386
		c9.942,1.096,19.213-1.454,28.7-4.11c24.164-6.765,47.942-15.31,73.165-17.68c24.64-2.315,49.154-7.096,74.06-4.783
		c21.337,1.982,42.727,2.501,64.116,3.392c48.801,2.034,97.57-1.152,146.365-0.474c25.525,0.355,51.089-0.381,76.566-2.289
		c23.216-1.739,46.384-4.11,69.579-6.142c27.693-2.425,55.427-4.444,83.081-7.25c47.078-4.778,93.051-17.545,143.545-18.794
		c-10.782-8.372-17.002-17.453-25.146-24.389c-16.287-13.872-33.707-26.41-50.034-40.237c-15.16-12.838-30.376-25.76-42.398-41.837
		c-6.073-8.121-6.069-8.824,1.835-15.326c7.019-5.774,15.144-9.558,23.506-13.095c22.427-9.488,46.35-15.175,67.85-27.025
		c12.157-6.701,24.42-13.252,36.911-19.301c19.683-9.531,29.898-7.736,45.445,7.794c8.493,8.483,16.559,17.596,26.347,24.644
		c11.135,8.017,21.942,8.496,34.26,12.877c6.64,2.366,10.505,30.224,20.681,21.493c-2.862,2.456-12.791-19.553-13.099-22.271
		c-1.125-9.935,4.271-17.934,6.603-27.197c2.665-10.586,5.628-16.742,12.594-25.29c1.079-1.324,2.849-1.678,3.223-4.028
		c1.844-11.576,6.148-16.638,16.797-18.11c12.857-1.777,23.747-10.395,37.308-9.704c-10.362-6.373-19.946,0.81-30.619,1.487
		c3.642-8.456,9.366-13.471,16.743-16.74c5.134-2.275,10.802-2.684,14.855,1.309c8.368,8.245,21.075,6.029,29.393,13.896
		c-2.733-8.203-3.453-8.99-11.723-11.253c-4.697-1.285-9.113-2.561-13.18-5.726c-8.548-6.653-16.801-6.338-25.93-0.391
		c-6.538,4.259-10.143,10.964-14.626,16.925c-1.274,1.694-1.474,3.943-4.167,4.661c-10.217,2.724-17.401,10.443-21.809,19.676
		c-3.847,8.061-7.599,16.18-10.81,24.52c-2.94,7.639-7.296,16.17-9.181,24.009c-0.356,1.484-0.532,3.063-1.361,4.346
		c-4.113,6.365-22.236-1.933-26.671-4.658c-11.608-7.134-21.2-16.514-31.014-25.873c-22.708-21.655-31.654-20.311-53.325-11.339
		c-5.186,2.147-10.461,4.144-15.452,6.688c-28.777,14.669-58.57,26.756-89.624,35.693c-0.88,0.489-1.915,1.263-2.699,0.207
		c-0.746-1.005-0.003-1.914,0.901-2.567c6.154-12.514,14.002-23.978,22.104-35.26c14.68-20.443,29.419-40.857,40.986-63.288
		c9.979-19.35,19.432-38.962,24.493-60.324c1.75-7.388,3.025-15.159,0.319-22.257c-9.353-24.524-25.631-30.197-49.008-17.733
		c-1.325,0.707-2.687,1.376-3.91,2.236c-7.731,5.437-16.587,8.739-24.83,13.192c-18.14,9.799-36.126,19.862-52.937,31.904
		c-25.335,18.148-49.752,37.599-76.102,54.302c-20.69,13.115-42.197,24.136-66.795,28.67c-20.447,3.769-39.698,11.307-56.255,24.527
		c-5.938,4.742-10.924,10.291-14.753,16.859c-2.811,4.823-1.072,7.967,3.959,9.236c2.477,0.625,5.405,0.999,7.766,0.286
		c11.97-3.612,24.613-3.313,36.581-6.311c14.07-3.526,27.49-2.739,40.882,2.28c24.367,9.132,27.663,1.155,33.602-15.85
		c2.62-7.501,7.38-11.34,14.135-14.589c13.648-6.566,28.03-11.396,42.149-16.812c7.055-2.706,14.073-5.532,20.891-8.797
		c2.82-1.35,5.667-2.642,8.51-3.947c2.445-1.123,5.554-3.794,8.291-3.579c-1.031,4.013-4.904,6.817-7.892,9.374
		c-10.395,8.896-20.381,18.403-28.987,29.088c-25.724,31.937-49.128,64.94-44.099,109.34c0.546,4.819-2.438,6.578-6.524,7.413
		c-6.241,1.275-12.532,2.373-18.686,3.987c-54.383,14.264-108.535,29.534-164.552,36.44c-11.111,1.37-22.053,3.152-33.417,3.194
		c-25.832,0.095-51.692-1.021-77.465,3.696c-31.712,5.805-63.104,13.469-95.211,17.084c-14.258,1.605-28.424,2.731-41.803-4.366
		c-4.141-2.196-8.712-2.226-13.195-1.111c-15.052,3.747-26.541,14.502-40.675,20.19
		C108.368,749.845,110.509,749.302,112.674,748.883z"/>
	<path fill="#3F3E40" d="M1052.33,547.215c-1.83,7.762-4.526,15.555-3.742,23.804c0.4,4.217-0.618,8.109-2.572,11.914
		c-14.125,27.514-34.548,46.843-66.306,51.847c-4.412,0.696-8.733,2.18-12.993,3.605c-18.711,6.255-25.475,17.718-21.989,37.009
		c1.931,1.615,1.661,4.162,2.622,6.188c4.776,3.093,10.016,5.553,15.446,6.675c19.615,4.051,37.433,13.814,56.672,18.321
		c24.072,5.64,48.755,8.903,73.325,11.988c5.195,0.652,7.828,2.278,10.793,5.699c3.5,4.038,6.969,8.54,13.682,7.984
		c-9.082-9.712-16.493-20.473-22.96-31.763c-14.435-25.2-30.928-48.822-50.724-70.126c-4.573-4.921-11.145-9.518-12.127-15.853
		c-1.16-7.489,7.252-11.495,11.323-17.106c8.142-11.224,15.452-22.498,10.478-37.26c-1.354-4.018,1.516-5.89,3.266-8.644
		c5.206-8.196,4.22-13.01-4.455-19.293C1055.134,538.05,1053.461,542.417,1052.33,547.215z M1094.831,714.798
		c-24.542-6.107-47.679-8.61-70.632-12.264c-4.028-0.641-8.138-1.851-11.777-3.665c-17.565-8.752-35.872-15.393-55.07-19.307
		c-7.304-1.489-8.607-5.758-8.134-12.037c0.918-12.191,12.286-24.216,27.693-27.569c9.19-2,18.415-3.523,27.019-7.525
		c8.108-3.772,15.85-8.195,22.217-12.853C1053.66,647.887,1078.565,677.287,1094.831,714.798z"/>
	<path fill="#3F3E40" d="M1141.304,714.688c-11.245-19.292-25.301-36.341-41.146-51.984c-11.774-11.626-22.725-23.986-33.36-36.665
		c-6.062-7.227-7.629-15.37-6.691-24.196c0.43-4.045,2.203-7.932,3.135-11.944c1.613-6.934,2.421-13.789-4.75-21.091
		c2.355,10.963,0.52,19.486-3.05,28.023c-3.314,7.928-2.63,16.014,1.723,23.841c6.843,12.307,15.943,22.7,26.049,32.315
		c14.174,13.484,27.829,27.452,39.648,43.085c7.015,9.278,13.911,18.685,18.708,29.371c4.538,10.111,2.63,15.703-6.788,21.637
		c-6.583,4.148-13.666,5.823-21.436,5.493c-10.883-0.463-21.782-0.588-32.677-0.797c-13.918-0.268-27.703-1.471-41.323-4.61
		c-25.968-5.986-51.934-12.134-78.637-13.905c-13.664-0.906-27.473-3.256-40.892,1.968c0.539,1.635,1.694,1.644,2.798,1.766
		c23.124,2.558,46.34,4.484,69.352,7.818c39.384,5.707,78.589,12.484,118.612,12.256c12.573-0.072,23.663-3.328,33.881-10.195
		c4.851-3.26,6.792-7.559,4.721-13.597C1146.981,726.873,1144.731,720.566,1141.304,714.688z"/>
	<path fill="#3F3E40" d="M887.399,731.932c-10.968-7.804-22.625-10.986-36.119-7.687c-1.2,0.293-2.413,0.522-3.631,0.72
		c-0.974,0.159-1.955,0.268-2.938,0.372c-0.151,0.016-0.3,0.037-0.45,0.052c-2.537,0.247-5.088,0.323-7.635,0.267
		c-0.547-0.012-1.095-0.003-1.641-0.027c-3.449-0.15-7.028,0.013-10.391-0.887c-0.43-0.115-0.869-0.183-1.291-0.338
		c-4-1.473-6.177-5.301-9.063-8.165c-2.631-2.611-5.388-5.09-8.128-7.586c-5.363-4.887-10.729-9.869-14.915-15.839
		c-11.138-15.884-22.984-31.273-35.677-48.43c9.959,0.013,20.039-5.086,28.224-10.928c1.317-0.94,2.597-1.895,3.807-2.855
		c1.386-1.101,2.828-2.12,4.278-3.128c1.048-0.729,2.114-1.43,3.188-2.12c0.351-0.225,0.701-0.45,1.055-0.672
		c1.826-1.147,3.672-2.263,5.543-3.34c0.097-0.056,0.193-0.113,0.29-0.169c1.68-0.963,3.361-1.92,5.053-2.859
		c0.833-0.463,1.665-0.929,2.497-1.391c4.551-2.526,21.408-8.828,23.195-13.703c0.001-0.002,0.001-0.003,0.002-0.005
		c3.717-10.148-7.35-2.55-12.297,0.379c-13.424,7.949-26.508,14.985-41.71,18.889c-10.629,2.729-21.662,6.31-32.044,9.78
		c-4.581,1.531-5.179,1.645-3.076,6.553c1.394,3.253,4.101,6.059,6.195,8.874c3.731,5.016,7.824,9.728,11.709,14.619
		c10.402,13.097,20.993,26.053,32.112,38.55c14.163,15.917,27.861,33.285,51.586,29.226c10.106-1.729,20.417-0.898,30.157,2.273
		c4.785,1.558,9.392,3.628,13.819,6.017c2.503,1.351,5.111,2.486,7.541,3.98c1.818,1.119,4.818,4.129,1.107,5.896
		c-0.802,0.382-1.735,0.345-2.62,0.258c-7.353-0.721-12.073-1.027-19.519-1.503c-8.094-0.517-16.241-0.134-24.238,1.223
		c-4.409,0.748-8.847,1.798-12.717,4.038c11.23,2.008,22.727-0.831,34.135-0.696c9.148,0.108,18.3,2.13,27.384,1.046
		c1.598-0.191,3.267-0.514,4.502-1.547c2.839-2.374,0.474-6.397-1.566-8.41c-1.41-1.391-3.187-2.753-5.034-4.037
		c-3.505-2.437-7.277-4.564-9.45-5.895C888.129,732.419,887.704,732.149,887.399,731.932z M748.999,635.935
		c10.73-4.008,22.222-4.781,33.164-7.498c-8.91,6.451-18.534,10.797-29.161,12.419C751.034,641.157,749.229,638.774,748.999,635.935
		z"/>
	<path fill="#3F3E40" d="M1039.396,541.594c3.874-1.446,7.137-3.938,6.667-10.071c-5.552,1.571-9.427,4.836-14.475,5.096
		c-3.31,0.17-4.954,2.858-3.308,5.493c5.343,8.552,3.828,18.046,4.564,27.391c3.83-6.718,5.203-13.819,3.375-21.182
		C1035.329,544.735,1035.735,542.96,1039.396,541.594z"/>
	<path fill="#3F3E40" d="M1017.054,534.209c-12.376,1.105-23.501,4.913-32.851,12.721c0.47,0.612,0.939,1.225,1.408,1.837
		c5.351-2.379,10.732-4.693,16.044-7.156C1006.817,539.218,1013.19,539.14,1017.054,534.209z"/>
</g>
</svg>
