<?xml version="1.0" encoding="utf-8"?>
<!-- Designed by Vexels.com - 2019 All Rights Reserved - https://vexels.com/terms-and-conditions/  -->
<svg version="1.1" id="Layer_1" xmlns="http://www.w3.org/2000/svg" xmlns:xlink="http://www.w3.org/1999/xlink" x="0px" y="0px"
	 viewBox="0 0 1200 1200" enable-background="new 0 0 1200 1200" xml:space="preserve">
<g>
	<path fill="none" d="M691.877,411.931c-3.804-1.001-7.563-2.133-11.292-3.35C684.315,409.798,688.073,410.93,691.877,411.931z"/>
	<path fill="none" d="M744.379,511.576c-1.011,0.222-2.04,0.46-3.051,0.547C742.339,512.036,743.368,511.798,744.379,511.576z"/>
	<path fill="none" d="M155.33,461.773c5.121-0.512,10.319-0.549,15.523-0.727c9.816-0.336,19.653-0.295,29.446,0.5
		c16.055,1.304,31.988,3.74,47.913,6.107c8.442,1.255,16.916,2.3,25.394,3.299c-8.476-0.999-16.952-2.044-25.394-3.299
		C217.391,463.07,186.632,457.484,155.33,461.773z"/>
	<path fill="none" d="M830.978,527.368c-4.061-0.402-8.092-0.916-12.087-1.585C822.885,526.452,826.917,526.966,830.978,527.368z"/>
	<path fill="none" d="M789.444,400.26c2.107-0.483,4.223-0.934,6.348-1.345C793.667,399.326,791.551,399.777,789.444,400.26z"/>
	<path fill="none" d="M783.134,401.796c1.522-0.39,3.05-0.752,4.577-1.115C786.184,401.044,784.655,401.406,783.134,401.796z"/>
	<path fill="none" d="M776.861,403.467c1.326-0.364,2.656-0.711,3.985-1.061C779.517,402.756,778.187,403.103,776.861,403.467z"/>
	<path fill="none" d="M843.55,399.891c24.33-3.785,48.55-3.619,72.787,0.462c1.214-0.229,2.258-0.197,3.235-0.062
		c-3.274-2.039-7.28-3.999-12.25-5.641c-34.81-11.502-70.314-7.458-105.041,3.145c-0.034,0.01-0.068,0.018-0.102,0.023
		c-1.585,0.237-3.156,0.526-4.729,0.813c1.589-0.29,3.178-0.582,4.78-0.821C815.857,401.433,829.727,402.042,843.55,399.891z"/>
	<path fill="none" d="M735.743,509.486c-4.307-6.168-6.79-12.944-6.76-20.531c0.113-28.338,5.807-55.063,22.758-78.523
		c0.081-0.021,0.161-0.044,0.242-0.064c-0.16,0.04-0.326,0.04-0.482-0.012c-1.368-0.456-2.821-1.346-4.05-1.103
		c-18.29,3.627-36.791,2.675-55.244,2.739c-0.072,0-0.144-0.01-0.213-0.027c0.033,0.009,0.066,0.019,0.099,0.028
		c-1.588,3.514-2.899,7.188-4.809,10.519c-15.83,27.609-20.093,57.223-15.609,88.399c20.581,5.238,41.285,3.19,61.992,1.04
		C735.157,511.795,735.193,510.427,735.743,509.486c1.607,2.378,3.561,2.81,5.584,2.637
		C739.304,512.297,737.35,511.865,735.743,509.486z"/>
	<path fill="none" d="M510.139,415.664c-0.034-0.095-0.055-0.144-0.082-0.217c0.026,0.543,0.051,1.087,0.077,1.63
		C510.313,416.696,510.343,416.236,510.139,415.664z"/>
	<path fill="none" d="M504.804,414.489c-2.791,0.116-5.564,0.533-8.351,0.652c4.224-0.173,8.451-0.391,12.672-0.521
		c-0.021-0.008-0.029-0.012-0.052-0.02C507.857,414.157,506.065,414.436,504.804,414.489z"/>
	<path fill="none" d="M754.292,409.756c1.307-0.345,2.615-0.684,3.919-1.042C756.907,409.071,755.599,409.411,754.292,409.756z"/>
	<path fill="none" d="M508.693,418.086c0.25-0.062,0.447-0.158,0.642-0.254c-2.043,0.276-4.091,0.499-6.14,0.704
		c0.747-0.074,1.495-0.121,2.241-0.204C506.508,418.212,507.647,418.345,508.693,418.086z"/>
	<path fill="none" d="M192.166,408.249c-3.822,0.327-7.639,0.69-11.468,0.932C184.527,408.939,188.344,408.576,192.166,408.249z"/>
	<path fill="none" d="M759.718,408.293c4.933-1.368,9.855-2.789,14.785-4.166C769.573,405.504,764.652,406.925,759.718,408.293z"/>
	<path fill="none" d="M173.177,424.642c-3.764,0.544-7.529,1.071-11.301,1.558C165.646,425.697,169.415,425.191,173.177,424.642z"/>
	<path fill="none" d="M315.347,425.771c0.557,0.046,1.12,0.125,1.688,0.22c-12.275-2.114-21.156-2.627-35.329-5.797
		C292.681,423.294,303.98,424.837,315.347,425.771z"/>
	<path fill="none" d="M317.099,426.002c0.607,0.103,1.218,0.223,1.833,0.345c-0.584-0.115-1.168-0.23-1.746-0.33
		C317.156,426.012,317.129,426.007,317.099,426.002z"/>
	<path fill="none" d="M215.494,418.507c19.579-2.488,39.409-4.191,59.194,0.002c-0.376-0.096-0.733-0.183-1.116-0.282
		C254.41,413.234,234.705,416.066,215.494,418.507z"/>
	<path fill="none" d="M320.905,426.699c-0.186-0.029-0.373-0.053-0.559-0.086C320.532,426.646,320.718,426.669,320.905,426.699z"/>
	<path fill="none" d="M322.653,426.896c-0.213-0.014-0.427-0.025-0.641-0.048C322.227,426.871,322.44,426.882,322.653,426.896z"/>
	<path fill="none" d="M175.388,418.838c6.601-0.688,13.139-2.056,19.672-3.141C188.526,416.782,181.99,418.122,175.388,418.838z"/>
	<path fill="none" d="M327.548,425.97c-0.176,0.095-0.355,0.154-0.532,0.233C327.193,426.123,327.371,426.065,327.548,425.97z"/>
	<path fill="none" d="M324.33,426.889c-0.219,0.017-0.437,0.028-0.656,0.031C323.893,426.917,324.111,426.906,324.33,426.889z"/>
	<path fill="none" d="M325.963,426.606c-0.21,0.059-0.421,0.096-0.631,0.137C325.542,426.702,325.753,426.665,325.963,426.606z"/>
	<path fill="none" d="M405.264,431.655c-1.009,0.023-2.019,0.043-3.027,0.051C403.245,431.697,404.254,431.677,405.264,431.655z"/>
	<path fill="none" d="M391.839,431.396c-0.833-0.061-1.666-0.133-2.497-0.216C390.173,431.263,391.005,431.335,391.839,431.396z"/>
	<path fill="none" d="M387.518,430.98c-0.83-0.1-1.659-0.219-2.487-0.345C385.86,430.76,386.689,430.879,387.518,430.98z"/>
	<path fill="none" d="M383.233,430.346c-0.848-0.15-1.694-0.328-2.54-0.509C381.539,430.018,382.385,430.196,383.233,430.346z"/>
	<path fill="none" d="M396.204,431.626c-0.856-0.028-1.711-0.064-2.566-0.111C394.493,431.562,395.348,431.598,396.204,431.626z"/>
	<path fill="none" d="M378.435,429.343c0.18,0.045,0.359,0.074,0.539,0.118c-0.231-0.056-0.462-0.13-0.694-0.188
		C378.335,429.293,378.374,429.328,378.435,429.343z"/>
	<path fill="none" d="M668.993,404.562c-3.563-1.289-7.117-2.603-10.678-3.9C661.875,401.958,665.43,403.273,668.993,404.562z"/>
	<path fill="none" d="M386.551,426.136c2.143-0.131,4.291-0.226,6.433-0.385C390.843,425.91,388.694,426.005,386.551,426.136z"/>
	<path fill="none" d="M658.136,400.596c-0.004-0.001-0.006-0.002-0.01-0.004C658.129,400.594,658.132,400.595,658.136,400.596z"/>
	<path fill="none" d="M680.458,408.538c-3.732-1.22-7.436-2.521-11.129-3.854C673.022,406.017,676.726,407.318,680.458,408.538z"/>
	<path fill="none" d="M400.645,431.703c-0.902-0.001-1.804-0.006-2.705-0.024C398.841,431.697,399.743,431.702,400.645,431.703z"/>
	<path fill="none" d="M410.818,431.484c-1.427,0.056-2.853,0.105-4.28,0.145C407.965,431.59,409.391,431.541,410.818,431.484z"/>
	<path fill="none" d="M422.171,423.049c5.984-0.612,11.967-1.22,17.955-1.768C434.138,421.828,428.155,422.436,422.171,423.049z"/>
	<path fill="none" d="M486.128,419.636c1.545-0.054,3.089-0.117,4.633-0.192C489.217,419.518,487.674,419.582,486.128,419.636z"/>
	<path fill="none" d="M496.193,415.152c-1.571,0.063-3.142,0.095-4.714,0.135C493.051,415.248,494.62,415.216,496.193,415.152z"/>
	<path fill="none" d="M494.704,419.22c1.539-0.095,3.079-0.207,4.617-0.332C497.783,419.013,496.244,419.125,494.704,419.22z"/>
	<path fill="none" d="M488.709,415.361c-2.467,0.028-4.933,0.008-7.399-0.097C483.773,415.369,486.24,415.388,488.709,415.361z"/>
	<path fill="none" d="M236.988,402.816c-6.221,0.972-12.454,1.869-18.696,2.68C224.534,404.685,230.767,403.788,236.988,402.816z"/>
	<path fill="none" d="M403.2,424.882c1.898-0.172,3.799-0.319,5.696-0.502C407,424.564,405.099,424.71,403.2,424.882z"/>
	<path fill="none" d="M477.385,419.879c1.58-0.032,3.162-0.068,4.741-0.11C480.546,419.811,478.966,419.847,477.385,419.879z"/>
	<path fill="none" d="M212.033,406.214c-4.164,0.5-8.326,1.02-12.499,1.432C203.707,407.234,207.869,406.714,212.033,406.214z"/>
	<path fill="none" d="M448.632,420.667c0.954-0.053,1.91-0.082,2.865-0.126C450.542,420.585,449.586,420.614,448.632,420.667z"/>
	<path fill="none" d="M457.223,420.303c1.126-0.035,2.253-0.058,3.379-0.086C459.476,420.244,458.349,420.267,457.223,420.303z"/>
	<path fill="none" d="M466.137,420.087c1.889-0.035,3.777-0.067,5.666-0.099C469.914,420.02,468.026,420.052,466.137,420.087z"/>
	<path fill="none" d="M401.922,788.989c31.17-13.781,54.949-45.39,71.675-74.338c18.246-31.583,22.973-85.059,19.205-121.395
		c-2.221-21.421-6.756-42.137-16.918-61.455c-5.631-10.704-12.918-17.549-25.656-18.894c-33.304-3.518-65.891-11.258-98.657-17.92
		c-35.775-7.273-71.099-16.962-107.629-20.222c-4.534-0.404-9.287-2.494-13.388,1.177c-13.893,12.434-29.224,23.487-40.476,38.541
		c-11.424,15.285-20.87,31.835-27.996,49.655c-7.678,19.196-14.422,38.065-14.447,58.963c-0.041,34.29,14.186,87.02,32.943,115.664
		c17.329,26.463,41.926,51.998,72.165,62.031c3.734,1.239,7.538,2.341,11.396,3.313c43.075,10.846,94.667,2.984,135.758-14.249
		C400.574,789.575,401.249,789.284,401.922,788.989z"/>
	<path fill="#93A1E5" d="M248.212,467.654c8.442,1.255,16.917,2.3,25.394,3.299c13.868,1.635,27.462,4.344,41.132,7.417
		c52.216,11.738,104.332,24.663,157.645,30.173c27.988,2.893,56.321,4.345,84.43,0.701c4.016-0.521,8.027-1.145,12.032-1.884
		c10.808-1.995,21.575-3.027,32.309-3.307c2.147-0.056,4.292-0.082,6.437-0.079c21.446,0.026,42.776,2.897,64.084,6.936l0.001,0
		c-4.484-31.176-0.221-60.791,15.609-88.399c1.909-3.331,3.22-7.004,4.809-10.519c-0.033-0.009-0.066-0.019-0.099-0.028
		c-0.004-0.001-0.008-0.001-0.012-0.002c-0.036-0.009-0.07-0.022-0.106-0.032c-3.804-1.001-7.562-2.133-11.292-3.35
		c-0.043-0.014-0.084-0.029-0.127-0.043c-3.732-1.22-7.436-2.521-11.129-3.854c-0.111-0.04-0.223-0.082-0.335-0.122
		c-3.563-1.289-7.117-2.603-10.678-3.9c-0.06-0.022-0.119-0.043-0.179-0.065c-0.004-0.001-0.006-0.002-0.01-0.004
		c-3.727-1.357-7.462-2.693-11.222-3.954c-36.875-12.368-71.146-5.494-103.822,14.1c-12.382,7.425-25.702,13.174-40.445,13.523
		c-30.75,0.726-61.122,6.014-91.819,7.223c-1.427,0.056-2.853,0.105-4.28,0.145c-0.425,0.012-0.849,0.016-1.274,0.026
		c-1.009,0.023-2.019,0.043-3.027,0.051c-0.531,0.004-1.061-0.002-1.591-0.003c-0.902-0.001-1.804-0.006-2.705-0.024
		c-0.58-0.011-1.158-0.034-1.736-0.053c-0.856-0.028-1.711-0.064-2.566-0.111c-0.6-0.033-1.2-0.076-1.799-0.119
		c-0.833-0.061-1.666-0.133-2.497-0.216c-0.608-0.061-1.217-0.126-1.823-0.2c-0.83-0.1-1.659-0.219-2.487-0.345
		c-0.599-0.092-1.2-0.183-1.798-0.289c-0.848-0.15-1.694-0.328-2.54-0.509c-0.573-0.123-1.147-0.238-1.72-0.376
		c-0.18-0.043-0.359-0.073-0.539-0.118c-0.06-0.015-0.1-0.05-0.155-0.07c-1.099-0.278-2.198-0.554-3.292-0.894
		c-0.909-0.282-0.72-1.62,0.233-1.649c3.785-0.115,7.557-0.364,11.33-0.594c2.143-0.131,4.292-0.226,6.433-0.385
		c3.409-0.254,6.813-0.56,10.217-0.868c1.899-0.172,3.799-0.319,5.696-0.502c4.427-0.428,8.851-0.879,13.274-1.332
		c5.984-0.612,11.967-1.22,17.955-1.768c2.833-0.259,5.668-0.455,8.506-0.613c0.954-0.053,1.91-0.082,2.865-0.126
		c1.909-0.088,3.817-0.179,5.727-0.238c1.126-0.035,2.253-0.058,3.379-0.086c1.845-0.046,3.69-0.095,5.535-0.129
		c1.889-0.035,3.777-0.068,5.666-0.099c1.861-0.031,3.721-0.072,5.582-0.109c1.581-0.032,3.162-0.068,4.741-0.11
		c1.335-0.036,2.669-0.086,4.002-0.133c1.546-0.054,3.09-0.118,4.633-0.192c1.315-0.063,2.629-0.142,3.943-0.224
		c1.54-0.095,3.079-0.207,4.617-0.332c1.293-0.105,2.584-0.224,3.875-0.353c2.049-0.205,4.097-0.428,6.14-0.704
		c0.38-0.187,0.649-0.438,0.798-0.755c-0.026-0.543-0.051-1.087-0.077-1.63c-0.202-0.545-0.288-0.595-0.931-0.828
		c-4.222,0.13-8.448,0.348-12.672,0.521c-0.027,0.001-0.054,0.005-0.082,0.006c-0.06,0.002-0.119,0.003-0.179,0.005
		c-1.572,0.064-3.142,0.095-4.714,0.135c-0.924,0.023-1.847,0.063-2.77,0.074c-2.469,0.028-4.936,0.008-7.399-0.097
		c-25.248-1.082-50.428,2.007-75.686,0.607c-29.423-1.63-58.772-1.964-87.666-9.994c-26.409-7.34-53.69-7.321-80.97-3.06
		c-6.221,0.972-12.454,1.869-18.696,2.68c-2.083,0.27-4.174,0.468-6.258,0.719c-4.164,0.5-8.326,1.019-12.499,1.432
		c-2.452,0.242-4.913,0.392-7.368,0.602c-3.822,0.327-7.639,0.69-11.468,0.932c-2.563,0.163-5.135,0.218-7.702,0.34
		c-3.673,0.175-7.343,0.399-11.024,0.486c-0.276,5.712-0.164,3.396-0.439,9.108c3.641,0.33,7.246,0.262,10.831-0.008
		c1.01-0.068,2.018-0.165,3.026-0.27c6.602-0.716,13.138-2.056,19.672-3.141c31.726-5.271,63.352-6.715,95.097-0.129
		c10.269,2.131,20.741,3.287,31.113,4.926c2.892,0.457,6.33-0.064,7.809,4.408c-0.502,0.444-1.014,0.786-1.532,1.068
		c-0.176,0.096-0.355,0.154-0.532,0.233c-0.349,0.156-0.699,0.304-1.053,0.403c-0.21,0.059-0.421,0.096-0.631,0.137
		c-0.333,0.065-0.665,0.12-1.001,0.146c-0.219,0.017-0.437,0.028-0.656,0.031c-0.339,0.005-0.679-0.002-1.02-0.024
		c-0.213-0.014-0.427-0.025-0.641-0.048c-0.369-0.039-0.738-0.09-1.107-0.149c-0.187-0.03-0.373-0.053-0.559-0.086
		c-0.472-0.083-0.944-0.174-1.414-0.266c-0.615-0.121-1.226-0.241-1.833-0.345c-0.022-0.004-0.043-0.007-0.064-0.011
		c-0.568-0.095-1.131-0.175-1.688-0.22c-11.368-0.934-22.666-2.477-33.642-5.576c-2.2-0.492-4.529-1.049-7.018-1.686
		c-19.785-4.193-39.615-2.49-59.194-0.002c-12.446,1.582-25.15,3.634-37.681,5.496c-1.542,0.229-3.091,0.416-4.635,0.639
		c-3.763,0.549-7.531,1.056-11.301,1.558c-1.057,0.136-2.111,0.307-3.17,0.437c-0.152,0.019-0.292,0.014-0.443,0.031
		c-2.086,0.266-4.168,0.569-6.258,0.811c-6.971,10.937-7.816,22.435-3.153,34.438c0.67,0.161,1.369,0.5,2.005,0.465
		c1.483-0.248,2.972-0.458,4.472-0.608C186.632,457.484,217.391,463.07,248.212,467.654z"/>
	<path fill="#93A1E5" d="M919.573,400.291c-0.977-0.135-2.022-0.167-3.235,0.062c-24.238-4.081-48.457-4.246-72.787-0.462
		c-13.823,2.15-27.694,1.542-41.319-2.082c-1.603,0.239-3.191,0.531-4.78,0.821c-0.551,0.101-1.109,0.179-1.659,0.285
		c-2.126,0.411-4.241,0.862-6.348,1.345c-0.579,0.133-1.154,0.284-1.732,0.422c-1.528,0.363-3.056,0.725-4.577,1.115
		c-0.765,0.196-1.525,0.408-2.288,0.609c-1.33,0.351-2.659,0.697-3.985,1.061c-0.786,0.216-1.571,0.44-2.357,0.66
		c-4.931,1.377-9.852,2.798-14.785,4.166c-0.503,0.139-1.004,0.283-1.507,0.421c-1.305,0.358-2.613,0.697-3.919,1.042
		c-0.768,0.203-1.534,0.415-2.303,0.612c-0.002,0-0.004-0.001-0.005,0c-0.081,0.021-0.161,0.044-0.242,0.064
		c-16.951,23.46-22.646,50.185-22.758,78.523c-0.03,7.587,2.453,14.363,6.76,20.531c1.607,2.378,3.561,2.81,5.584,2.637
		c1.011-0.087,2.04-0.325,3.051-0.547c1.012-0.222,2.007-0.428,2.95-0.45c1.813-0.042,3.624-0.073,5.432-0.083
		c3.617-0.019,7.221,0.046,10.798,0.272c8.942,0.565,17.716,2.136,26.097,5.901c9.478,4.259,19.246,6.894,29.235,8.565
		c3.995,0.669,8.026,1.183,12.087,1.585c2.031,0.201,4.07,0.374,6.115,0.524c2.118,0.156,4.29,0.156,6.437,0.303
		c3.578,0.246,7.086,0.902,10.162,3.372v0l0,0c1.475-0.565,2.951-1.131,4.426-1.696c-0.774-5.767-1.547-11.535-2.321-17.303
		c-36.53,1.227-65.72-34.549-58.131-71.362c2.55-12.366,8.222-23.083,20.46-27.886c17.064-6.698,34.963-11.388,53.38-10.339
		c23.417,1.334,47.082,19.881,43.176,48.712c-0.774,5.719-2.636,11.29-3.997,16.929c-0.016,0.97,0.229,1.775,0.666,2.46
		c0.298,0.338,0.594,0.679,0.893,1.029c0.331,0.283,0.707,0.538,1.124,0.768c15.81-16.908,14.795-31.817-4.344-63.67
		c6.64-3.434,13.535,3.835,20.142-0.477c-0.009-0.012-0.016-0.025-0.026-0.038C927.244,406.148,924.147,403.14,919.573,400.291z"/>
	<path fill="#3F3E40" d="M192.166,408.249c2.456-0.21,4.916-0.36,7.368-0.602c4.173-0.413,8.335-0.933,12.499-1.432
		c2.085-0.25,4.176-0.448,6.258-0.719c6.242-0.81,12.475-1.708,18.696-2.68c27.28-4.261,54.561-4.28,80.97,3.06
		c28.894,8.03,58.243,8.364,87.666,9.994c25.258,1.4,50.439-1.69,75.686-0.607c2.465,0.106,4.931,0.125,7.399,0.097
		c0.923-0.01,1.846-0.05,2.77-0.074c1.572-0.039,3.143-0.071,4.714-0.135c0.06-0.002,0.119-0.003,0.179-0.005
		c0.028-0.001,0.055-0.005,0.082-0.006c2.787-0.119,5.56-0.536,8.351-0.652c1.261-0.052,3.052-0.332,4.269,0.111
		c0.023,0.008,0.031,0.012,0.052,0.02c0.643,0.233,0.729,0.283,0.931,0.828c0.027,0.073,0.048,0.122,0.082,0.217
		c0.205,0.571,0.174,1.031-0.005,1.413c-0.149,0.317-0.418,0.568-0.798,0.755c-0.195,0.096-0.392,0.192-0.642,0.254
		c-1.047,0.259-2.185,0.126-3.257,0.246c-0.746,0.083-1.494,0.13-2.241,0.204c-1.29,0.129-2.582,0.248-3.875,0.353
		c-1.538,0.125-3.077,0.237-4.617,0.332c-1.314,0.081-2.628,0.161-3.943,0.224c-1.544,0.074-3.088,0.137-4.633,0.192
		c-1.333,0.047-2.667,0.097-4.002,0.133c-1.579,0.042-3.161,0.078-4.741,0.11c-1.861,0.037-3.721,0.078-5.582,0.109
		c-1.889,0.032-3.777,0.064-5.666,0.099c-1.845,0.034-3.691,0.083-5.535,0.129c-1.126,0.028-2.253,0.051-3.379,0.086
		c-1.909,0.06-3.818,0.15-5.727,0.238c-0.954,0.044-1.91,0.073-2.865,0.126c-2.838,0.158-5.673,0.354-8.506,0.613
		c-5.988,0.548-11.972,1.156-17.955,1.768c-4.424,0.453-8.847,0.904-13.274,1.332c-1.897,0.183-3.798,0.33-5.696,0.502
		c-3.404,0.308-6.808,0.615-10.217,0.868c-2.142,0.159-4.289,0.255-6.433,0.385c-3.773,0.229-7.545,0.478-11.33,0.594
		c-0.953,0.029-1.142,1.366-0.233,1.649c1.095,0.34,2.193,0.616,3.292,0.894c0.231,0.059,0.462,0.132,0.694,0.188
		c0.573,0.138,1.147,0.253,1.72,0.376c0.846,0.181,1.692,0.359,2.54,0.509c0.599,0.106,1.199,0.197,1.798,0.289
		c0.828,0.126,1.657,0.245,2.487,0.345c0.607,0.073,1.215,0.139,1.823,0.2c0.832,0.083,1.664,0.155,2.497,0.216
		c0.599,0.044,1.199,0.086,1.799,0.119c0.855,0.047,1.71,0.083,2.566,0.111c0.578,0.019,1.156,0.042,1.736,0.053
		c0.901,0.018,1.804,0.023,2.705,0.024c0.53,0.001,1.06,0.007,1.591,0.003c1.009-0.008,2.018-0.028,3.027-0.051
		c0.425-0.01,0.849-0.014,1.274-0.026c1.427-0.039,2.853-0.088,4.28-0.145c30.697-1.209,61.069-6.496,91.819-7.223
		c14.743-0.348,28.063-6.098,40.445-13.523c32.677-19.595,66.947-26.469,103.822-14.1c3.76,1.261,7.495,2.597,11.222,3.954
		c0.004,0.001,0.006,0.002,0.01,0.004c0.06,0.022,0.119,0.043,0.179,0.065c3.561,1.297,7.116,2.612,10.678,3.9
		c0.112,0.04,0.224,0.082,0.335,0.122c3.693,1.333,7.398,2.634,11.129,3.854c0.043,0.014,0.084,0.029,0.127,0.043
		c3.729,1.218,7.488,2.349,11.292,3.35c0.036,0.009,0.07,0.022,0.106,0.032c0.004,0.001,0.008,0.001,0.012,0.002
		c0.069,0.018,0.141,0.027,0.213,0.027c18.453-0.064,36.953,0.888,55.244-2.739c1.229-0.243,2.682,0.647,4.05,1.103
		c0.156,0.052,0.322,0.052,0.482,0.012c0.002,0,0.004,0.001,0.005,0c0.769-0.197,1.535-0.41,2.303-0.612
		c1.307-0.345,2.615-0.685,3.919-1.042c0.502-0.138,1.004-0.282,1.507-0.421c4.934-1.368,9.855-2.789,14.785-4.166
		c0.786-0.219,1.571-0.444,2.357-0.66c1.326-0.364,2.656-0.711,3.985-1.061c0.763-0.202,1.523-0.413,2.288-0.609
		c1.521-0.39,3.05-0.752,4.577-1.115c0.578-0.137,1.154-0.289,1.732-0.422c2.107-0.483,4.223-0.934,6.348-1.345
		c0.55-0.106,1.107-0.184,1.659-0.285c1.572-0.287,3.144-0.576,4.729-0.813c0.035-0.005,0.068-0.013,0.102-0.023
		c34.727-10.602,70.231-14.646,105.041-3.145c4.97,1.642,8.976,3.602,12.25,5.641c4.574,2.849,7.671,5.857,9.567,8.403
		c0.01,0.013,0.017,0.026,0.026,0.038c0.008,0.012,0.017,0.024,0.025,0.036c2.885,4.591,5.607,9.298,8.708,13.741
		c4.014,5.75,8.098,11.674,15.136,14.064c8.826,2.998,17.77,5.654,26.699,8.337c2.584,0.777,5.424,1.497,6.436-2.372
		c-0.533-0.594-0.94-1.421-1.584-1.698c-2.126-0.916-4.33-1.654-6.518-2.424c-17.542-6.17-33.622-14.118-42.826-31.752
		c-3.927-7.526-11.112-11.799-18.774-15.086c-8.606-3.691-17.618-6.084-26.67-8.369c-27.281-6.888-54.087-3.101-80.815,3.378
		c-29.055,7.043-57.427,17.071-87.72,18.656c-14.607,0.764-28.623-0.247-42.353-5.522c-12.337-4.74-24.643-9.817-37.368-13.236
		c-20.428-5.49-41.221-8.598-62.033-1.232c-14.352,5.08-27.954,11.852-41.11,19.404c-7.108,4.08-13.869,5.721-22.115,3.996
		c-11.034-2.309-22.356-2.421-33.698-2.393c-28.066,0.069-55.975,3.059-83.991,3.87c-24.215,0.701-47.957-0.895-71.328-8.753
		c-28.529-9.593-58.07-9.758-87.754-5.792c-20.438,2.731-40.681,6.845-61.319,8.207c-16.256,1.073-31.796-0.386-46.158-9.008
		c-4.983-2.991-10.547-5.114-16.361-6.006c-10.394-1.595-20.45,5.968-20.613,15.645c-0.011,0.645,0.733,1.032,1.285,0.698
		c8.108-4.913,16.039-9.931,26.009-5.247c12.391,5.821,25.557,8.902,39.17,10.141c0.038,0.004,0.076,0.005,0.115,0.004
		c3.792-0.088,7.573-0.314,11.357-0.494c2.567-0.122,5.139-0.177,7.702-0.34C184.527,408.939,188.344,408.576,192.166,408.249z"/>
	<path fill="#3F3E40" d="M905.93,469.346c-0.436,5.252,2.595,9.738,5.194,14.006c7.357,12.084,9.697,25.045,9.073,39.087
		c-0.535,12.01,0.286,24.057,1.712,36.083c2.827,23.853,12.905,45.509,19.663,68.168c4.348,14.581,11.508,27.782,19.72,40.401
		c4.965,7.63,9.771,15.364,14.159,23.34c13.825,25.131,26.793,50.752,42.146,75.019c4.253,6.724,9.24,12.894,16.621,16.724
		c-7.568-14.528-17.633-27.247-24.125-42.233c-9.63-22.23-21.535-43.351-35.409-63.211c-10.97-15.704-20.142-32.615-27.603-50.25
		c-3.698-8.74-6.662-17.65-10.084-26.476c-3.983-10.278-10.726-24.786-8.493-36.024c-0.217,1.093,3.717,6.607,4.228,7.864
		c1.923,4.724,3.847,9.448,5.771,14.172c10.166,24.965,19.511,50.661,38.625,70.418c20.259,20.974,40.935,41.577,59.623,64.034
		c3.963,4.763,8.414,9.869,14.17,11.884c14.441,5.056,29.261,9.033,43.946,13.383c3.86,1.144,7.819,1.939,11.866,0.904
		c3.134-0.802,4.435-3.677,2.859-6.502c-2.495-4.471-4.967-9.599-11.805-9.85c-0.015,5.277,6.707,5.254,5.766,10.407
		c-4.285,0.889-8.209-0.983-12.215-1.917c-8.322-1.94-16.558-5.464-24.914-5.735c-11.033-0.359-17.799-6.639-24.817-13.266
		c-1.281-1.209-2.514-2.466-3.692-3.776c-17.936-19.954-35.539-40.217-53.793-59.876c-12.545-13.511-23.756-27.795-30.823-44.933
		c-8.141-19.74-15.92-39.63-24.046-59.378c-1.685-4.097-2.15-8.219-2.204-12.516c-0.122-9.811,0.723-19.643-0.104-29.44
		c-0.719-8.51-3.388-15.332-6.531-22.594c-0.98-2.268,1.089-4.666,3.476-4.026c0.912,0.245,1.63,0.451,1.857,0.55
		c3.064,1.334,5.85,3.177,8.528,5.157c5.469,4.045,10.334,8.869,16.2,12.377c1.652-1.509,1.97-4.085,1.312-6.224
		c-0.659-2.139-2.125-3.926-3.64-5.573c-6.82-7.408-16.313-13.45-26.33-12.427c-1.492,0.153-3.003,0.459-4.479,0.189
		c-0.971-0.178-3.006-2.728-5.092-5.174c-0.299-0.35-0.595-0.691-0.893-1.029C908.714,468.086,906.222,465.822,905.93,469.346z"/>
	<path fill="#3F3E40" d="M1149.995,732.977c0.109-1.813-1.697-3.085-3.29-3.955c-22.333-12.201-47.505-20.719-72.888-18.896
		c-4.83,0.347-9.442,0.73-13.074-2.954c-17.348-17.598-31.745-37.543-42.588-59.475c-12.031-24.335-23.105-49.16-35.483-73.354
		c-1.801-3.519-2.885-8.098-2.721-11.838c21.609-5.935,43.289-0.031,64.275-7.463c-14.973,1.58-29.7-4.523-44.683-0.413
		c-11.554,3.169-23.03,3.385-33.937-2.937c-3.335-1.933-7.088-3.146-10.657-4.672c-12.44-5.319-12.307-5.283-8.984-18.889
		c1.672-6.848,4.812-13.596,3.142-23.469c-5.216,7.188-8.108,12.996-10.299,18.993c-4.832,13.229-0.923,21.17,12.528,26.091
		c13.302,4.866,25.807,10.063,26.979,27.261c0.3,4.394,3.174,8.692,5.195,12.875c9.623,19.919,18.978,39.982,29.167,59.609
		c9.333,17.976,21.361,34.289,33.802,50.238c3.917,5.022,7.518,8.944,13.576,11.289c5.324,2.061,11.089,2.935,16.721,3.67
		c3.107,0.406,6.242,0.512,9.364,0.753c17.845,1.379,35.12,7.258,51.131,15.258c-6.275,3.383-14.683-2.611-20.922,0.837
		c9.127,4.511,19.635,7.239,29.528,4.833C1147.733,735.916,1149.88,734.883,1149.995,732.977z"/>
	<path fill="#3F3E40" d="M896.268,632.121c4.413,7.357,8.533,15.241,9.867,23.558c4.319,26.957,19.82,47.873,35.748,68.504
		c11.559,14.971,24.353,28.927,37.312,42.685c7.009,7.441,14.072,14.83,21.034,22.315c3.48,3.741,6.935,7.506,10.344,11.312
		c1.705,1.903,3.398,3.816,5.077,5.741c0.95,1.089,2.948,4.54,4.456,4.709c1.504,0.169,1.314-0.917,0.981-1.826
		c-0.363-0.996-0.816-2.032-1.331-2.959c-0.893-1.611-1.858-3.181-2.883-4.71c-1.951-2.908-4.123-5.664-6.426-8.301
		c-21.229-24.317-43.351-47.888-63.266-73.311c-15.581-19.891-30.698-40.102-36.103-65.826c-1.898-9.031-6.488-17.411-10.751-25.746
		c-17.619-34.446-29.33-70.952-37.257-108.734c-0.639-3.048-0.778-6.434-3.018-8.669c-1.715-1.712-3.494-0.564-4.256,1.706
		c0.774,5.769,1.547,11.536,2.321,17.303C867.658,565.139,877.232,600.384,896.268,632.121z"/>
	<path fill="#3F3E40" d="M1098.868,444.836c-2.12-1.701-4.676-4.302-8.43-1.115c7.093,8.88,14.128,17.585,20.084,27.065
		c6.854,10.91,10.86,22.924,8.022,35.51c-3.629,16.086-2.59,31.732,1.17,47.338c4.099,17.013,1.107,32.22-9.185,46.299
		c-5.296,7.244-9.487,15.209-11.74,23.962c-1.612,6.264-3.018,12.719,3.412,20.472c2.855-10.34,2.89-19.159,7.214-26.71
		c4.44-7.751,8.665-15.63,13.294-23.266c6.658-10.981,7.077-22.83,5.325-34.996c-0.776-5.381-1.953-10.712-3.128-16.026
		c-2.049-9.272-2.223-18.42,0.462-27.66C1134.139,485.522,1118.014,460.193,1098.868,444.836z"/>
	<path fill="#3F3E40" d="M161.876,426.199c3.772-0.486,7.537-1.013,11.301-1.558c1.544-0.223,3.093-0.41,4.635-0.639
		c12.531-1.862,25.234-3.914,37.681-5.496c19.211-2.441,38.916-5.273,58.078-0.28c0.383,0.1,0.74,0.186,1.116,0.282
		c2.488,0.636,4.818,1.194,7.018,1.686c14.174,3.17,23.055,3.683,35.329,5.797c0.021,0.004,0.042,0.007,0.064,0.011
		c0.029,0.005,0.057,0.01,0.087,0.015c0.578,0.1,1.161,0.215,1.746,0.33c0.47,0.093,0.942,0.183,1.414,0.266
		c0.186,0.033,0.373,0.057,0.559,0.086c0.369,0.059,0.738,0.11,1.107,0.149c0.214,0.023,0.428,0.034,0.641,0.048
		c0.342,0.022,0.681,0.03,1.02,0.024c0.22-0.003,0.438-0.014,0.656-0.031c0.336-0.026,0.669-0.082,1.001-0.146
		c0.211-0.041,0.422-0.078,0.631-0.137c0.354-0.099,0.704-0.247,1.053-0.403c0.177-0.079,0.356-0.138,0.532-0.233
		c0.518-0.283,1.031-0.625,1.532-1.068c-1.479-4.472-4.917-3.951-7.809-4.408c-10.373-1.639-20.844-2.795-31.113-4.926
		c-31.745-6.586-63.371-5.142-95.097,0.129c-6.533,1.085-13.072,2.453-19.672,3.141c-1.008,0.105-2.015,0.202-3.026,0.27
		c-0.389,0.026-0.774,0.084-1.163,0.104c-3.192,0.161-6.388,0.437-9.587,0.722c-4.103,0.365-8.21,0.746-12.314,0.921
		c-3.712,0.159-7.429,0.096-11.142,0.183c-1.78,0.042-3.559,0.107-5.334,0.247c-0.8,0.063-4.28,0.963-4.833,0.571
		c3.895,2.76,8.539,3.665,13.195,4.162c5.947,0.635,11.136,1.316,17.079,0.651c0.151-0.017,0.291-0.012,0.443-0.031
		C159.765,426.506,160.819,426.336,161.876,426.199z"/>
	<path fill="#3F3E40" d="M1061.245,819.819c11.918-1.816,24.1-3.766,35.957-1.609c14.319,2.604,27.701,0.822,41.153-3.816
		c3.376-1.164,7.262-1.301,7.585-5.744c0.298-4.106-3.065-6.018-6.122-7.717c-10.961-6.09-22.684-10.011-35.096-11.752
		c-1.146-0.161-3.238-0.623-3.61,3.218c11.734,6.654,27.221,6.342,39.336,16.972c-12.926,2.152-24.016,6.913-36.506,3.391
		c-6.994-1.972-14.454-3.027-21.921-2.118c-16.44,2.001-32.604,6.105-49.476,6.655
		C1042.005,820.086,1051.487,821.307,1061.245,819.819z"/>
	<path fill="#3F3E40" d="M1098.175,664.249c-0.239-6.243-1.898-12.185-4.26-18.033c-6.719-16.634-8.406-33.916-4.914-51.489
		c2.269-11.412,5.321-22.671,8.131-33.972c0.596-2.4,1.799-4.695,0.144-6.915c-2.494,0.577-3.346,1.953-3.936,3.323
		c-12.689,29.456-18.62,59.348-5.151,90.265c4.336,9.952,6.103,19.935,0.976,32.094
		C1097.396,675.932,1098.405,670.27,1098.175,664.249z"/>
	<path fill="#3F3E40" d="M1074.558,437.058c-8.067,3.935-13.825-0.652-20.106-4.651c-10.842-6.903-23.007-9.125-35.655-7.839
		c-10.207,1.038-18.862,5.566-27.418,14.447c10.71-1.667,18.613-6.435,27.684-6.037c12.931,0.568,25.361,2.92,36.897,9.018
		c6.708,3.546,13.358,3.275,20.074,0.044c1.474-0.71,2.865-1.363,2.276-3.315C1077.734,436.813,1075.729,436.487,1074.558,437.058z"
		/>
	<path fill="#3F3E40" d="M981.235,455.221c-3.355,3.937-5.555,7.5-3.702,11.77c1.853,4.27,6.247,4.023,10.129,3.743
		c3.463-0.25,6.884-1.068,10.347-1.36c6.262-0.529,10.347,1.463,13.98,7.574c5.047,8.489,6.65,16.824,4.062,26.517
		c9.604-3.213,13.423-10.608,10.314-18.411c-5.874-14.742-17.706-21.78-33.995-20.222
		C982.084,465.816,982.084,465.816,981.235,455.221z"/>
	<path fill="#3F3E40" d="M1083.92,505.696c-1.978,5.038-4.065,10.105-5.296,15.351c-3.509,14.952-11.379,26.677-25.13,34.737
		c5.998,2.157,9.344-1.718,13.29-3.876c1.973-1.079,3.758-2.747,5.438-4.224c6.817-5.992,11.823-12.378,14.638-21.113
		c2.813-8.731,3.521-17.959,4.783-26.995C1086.341,498.916,1085.158,502.542,1083.92,505.696z"/>
	<path fill="#3F3E40" d="M69.072,432.219c1.757-1.401,2.589-1.74,2.876-2.341c7.227-15.091,10.693-16.758,26.894-12.631
		c4.125,1.051,8.147,2.536,12.3,3.44c3.975,0.866,8.152,2.282,12.491-0.826c-9.537-5.807-18.953-10.147-29.502-11.512
		C79.802,406.497,69.2,416.184,69.072,432.219z"/>
	<path fill="#3F3E40" d="M1058.955,522.492c6.208-6.033,8.412-13.557,9.493-21.021c1.193-8.236,3.839-15.618,7.828-22.795
		c3.325-5.982,5.477-12.4,4.005-21.966C1067.753,478.044,1059.059,505.428,1058.955,522.492z"/>
	<path fill="#3F3E40" d="M1079.491,552.798c-0.8-1.002-3.027-1.434-4.21-1.527c-1.402-0.11-2.053,0.075-2.431,0.704
		c-1.675,2.788-1.785,7.849-2.359,11.033c-0.752,4.18-1.294,8.425-1.061,12.68c0.342,6.225,1.583,13.048,5.252,18.243
		c-0.74-12.177,0.437-23.531,4.133-34.707C1079.343,557.552,1080.809,554.447,1079.491,552.798z"/>
	<path fill="#3F3E40" d="M1085.704,782.892c0.646-2.351-1.254-3.54-2.805-4.526c-8.174-5.198-27.781-3.221-38.769,5.281
		c14.005-1.233,25.513-2.697,36.834,0.892C1082.595,785.057,1084.98,785.531,1085.704,782.892z"/>
	<path fill="#3F3E40" d="M364.036,811.663c0.836-0.167,1.672-0.339,2.506-0.518c31.154-6.664,60.494-26.109,83.819-47.908
		c52.471-49.095,68.152-150.04,41.601-217.121c-1.047-2.646-2.168-5.263-3.364-7.846c-3.111-6.723-6.82-13.168-10.672-20.545
		c11.342,0.545,21.433,0.845,31.496,1.55c28.28,1.981,55.911-2.771,83.223-8.941c8.251-1.864,16.015-2.495,24.082-1.363
		c7.312,1.026,14.589,2.423,21.8,4.023c34.003,7.542,68.212,10.978,103.047,6.984c17.269-1.98,34.032,0.693,50.084,7.994
		c17.496,7.959,36.076,8.734,54.905,6.768c2.754-0.288,5.469-0.498,7.128-3.172v0c-3.075-2.47-6.584-3.125-10.162-3.372
		c-2.147-0.148-4.319-0.148-6.437-0.303c-2.046-0.15-4.084-0.323-6.115-0.524c-4.061-0.402-8.092-0.916-12.087-1.585
		c-9.989-1.671-19.757-4.307-29.235-8.565c-8.381-3.766-17.155-5.336-26.097-5.901c-3.577-0.226-7.181-0.292-10.798-0.272
		c-1.808,0.01-3.62,0.04-5.432,0.083c-0.943,0.022-1.938,0.228-2.95,0.45c-1.011,0.222-2.04,0.46-3.051,0.547
		c-2.023,0.173-3.977-0.259-5.584-2.637c-0.55,0.94-0.586,2.309-2.076,2.463c-20.707,2.15-41.411,4.198-61.992-1.04l-0.001,0
		c-21.308-4.039-42.638-6.91-64.084-6.936c-2.145-0.003-4.29,0.023-6.437,0.079c-10.734,0.28-21.501,1.312-32.309,3.307
		c-4.005,0.739-8.016,1.364-12.032,1.884c-28.109,3.644-56.442,2.191-84.43-0.701c-53.313-5.511-105.429-18.436-157.645-30.173
		c-13.669-3.073-27.264-5.782-41.132-7.417c-8.477-0.999-16.952-2.044-25.394-3.299c-15.925-2.368-31.858-4.803-47.913-6.107
		c-9.794-0.796-19.631-0.837-29.446-0.5c-5.204,0.179-10.402,0.215-15.523,0.727c-1.499,0.15-2.988,0.359-4.472,0.608
		c-3.424,0.573-6.804,1.426-10.11,2.8c-3.47,1.443-6.915,2.958-10.267,4.661c-6.858,3.483-12.229,7.943-18.063,12.822
		c-0.727,0.608-1.396,1.248-2.022,1.939c-3.638,2.53-7.064,5.315-9.815,8.772c-3.595,4.516-5.901,9.898-8.164,15.207
		c-3.175,7.444-6.349,14.889-9.523,22.333c-2.681,6.286-4.585,13.265-8.241,19.22c-2.189,3.565-8.861,12.635-13.696,7.956
		c-3.878-3.752-4.292-10.419-5.093-15.402c-0.792-4.923-2.468-11.476-1.516-16.438c1.09-5.683,2.597-11.231,4.48-16.742
		c3.618-10.585,8.415-20.891,9.644-32.14c1.346-12.314,4.285-24.632,0.23-37.366c-3.316,26.97-9.795,53.147-16.557,79.259
		c-4.531,13.339-1.129,26.02,3.242,38.626c2.432,6.272,6.563,9.654,13.47,7.084c0.105-0.039,0.203-0.1,0.307-0.144
		c0.708,0.041,1.599-0.39,2.293-1.388c0.033-0.047,0.065-0.095,0.099-0.143c2.579-2.266,3.938-5.978,5.732-8.873
		c2.283-3.684,4.476-7.424,6.576-11.215c4.125-7.447,7.891-15.093,11.281-22.902c5.032-11.589,9.51-23.954,18.66-32.666
		c4.462-4.248,9.786-7.376,15.118-10.51c27.599-11.305,56.885-10.283,88.603-4.878c-6.252,5.798-10.669,10.007-15.204,14.082
		c-31.896,28.657-50.977,65.051-58.753,106.362c-8.064,42.842,2.6,102.756,24.779,141.254c17.993,31.23,45.208,59.518,79.534,70.739
		C285.151,816.872,325.575,819.331,364.036,811.663z M264.139,804.11c-3.858-0.972-7.662-2.074-11.396-3.313
		c-30.239-10.033-54.836-35.568-72.165-62.031c-18.757-28.644-32.984-81.374-32.943-115.664
		c0.025-20.898,6.769-39.768,14.447-58.963c7.126-17.82,16.572-34.371,27.996-49.655c11.252-15.054,26.584-26.107,40.476-38.541
		c4.102-3.671,8.854-1.582,13.388-1.177c36.53,3.26,71.854,12.949,107.629,20.222c32.766,6.662,65.353,14.402,98.657,17.92
		c12.738,1.345,20.025,8.19,25.656,18.894c10.163,19.318,14.697,40.034,16.918,61.455c3.768,36.335-0.959,89.812-19.205,121.395
		c-16.725,28.949-40.505,60.558-71.675,74.338c-0.673,0.296-1.348,0.587-2.026,0.872
		C358.806,807.094,307.213,814.956,264.139,804.11z"/>
</g>
</svg>
