<?xml version="1.0" encoding="utf-8"?>
<!-- Designed by Vexels.com - 2019 All Rights Reserved - https://vexels.com/terms-and-conditions/  -->
<svg version="1.1" id="Layer_1" xmlns="http://www.w3.org/2000/svg" xmlns:xlink="http://www.w3.org/1999/xlink" x="0px" y="0px"
	 viewBox="0 0 1200 1200" enable-background="new 0 0 1200 1200" xml:space="preserve">
<g>
	<path fill="none" d="M230.447,468.521c-3.636,3.839-7.438,7.536-10.865,11.553C223.009,476.057,226.812,472.36,230.447,468.521z"/>
	<path fill="none" d="M477.113,695.446c-1.105,0.556-2.114,1.459-2.66,2.552C475.001,696.905,476.008,696.002,477.113,695.446z"/>
	<path fill="none" d="M210.616,782.472c0.006,0,0.013,0.001,0.019,0.002l0,0C210.629,782.473,210.622,782.472,210.616,782.472z"/>
	<path fill="none" d="M214.537,792.067c0,0,0-0.001-0.001-0.001C214.537,792.066,214.537,792.067,214.537,792.067
		c0.649,1.314,1.595,2.477,2.384,3.724c9.001,14.209,17.174,28.831,24.376,43.949c-7.202-15.117-15.376-29.74-24.376-43.949
		C216.133,794.544,215.187,793.381,214.537,792.067z"/>
	<path fill="none" d="M461.567,742.085c11.227-9.3,18.739-21.059,22.695-35.096c0.163-0.577,0.306-1.155,0.424-1.734
		c-0.118,0.579-0.261,1.157-0.424,1.734C480.306,721.026,472.793,732.785,461.567,742.085z"/>
	<path fill="none" d="M448.033,752.893c0.743-0.421,1.436-0.929,2.145-1.41C449.469,751.963,448.775,752.472,448.033,752.893
		L448.033,752.893z"/>
	<path fill="none" d="M449.405,755.285c0.339,0.281,0.702,0.519,1.099,0.726C450.107,755.804,449.744,755.566,449.405,755.285z"/>
	<path fill="none" d="M698.086,782.395c10.839-16.893,21.902-33.647,32.448-50.72C719.988,748.748,708.924,765.501,698.086,782.395z
		"/>
	<path fill="none" d="M809.998,635.368c1.516-1.239,3.044-2.461,4.602-3.647C813.041,632.907,811.513,634.129,809.998,635.368z"/>
	<path fill="none" d="M477.548,695.303c0.418-0.172,0.84-0.348,1.251-0.411C478.387,694.955,477.966,695.131,477.548,695.303z"/>
	<path fill="none" d="M801.487,642.704c2.092-1.922,4.232-3.79,6.404-5.621C805.716,638.915,803.576,640.785,801.487,642.704z"/>
	<path fill="none" d="M238.115,553.069c-0.821-1.426-1.591-2.731-2.05-3.42C236.81,550.766,237.449,551.922,238.115,553.069z"/>
	<path fill="none" d="M214.464,536.119c-1.224-0.116-2.443-0.315-3.659-0.545C212.021,535.804,213.24,536.002,214.464,536.119z"/>
	<path fill="none" d="M188.681,523.174c0.146-0.675,0.575-1.486,1.134-2.387C189.256,521.689,188.826,522.499,188.681,523.174z"/>
	<path fill="none" d="M207.55,495.264c3.773-5.237,7.842-10.278,12.032-15.19C215.392,484.985,211.323,490.027,207.55,495.264z"/>
	<path fill="none" d="M197.62,509.929c2.083-3.053,4.108-6.151,6.168-9.224C201.729,503.778,199.703,506.876,197.62,509.929z"/>
	<path fill="none" d="M152.867,701.665c7.202-3.383,14.657-6.223,21.886-9.549C167.523,695.442,160.068,698.282,152.867,701.665z"/>
	<path fill="none" d="M245.915,775.757c3.484,0.239,6.961,0.602,10.434,0.992C252.876,776.359,249.399,775.996,245.915,775.757z"/>
	<path fill="none" d="M120.101,772.156c3.607,8.045,7.776,15.826,12.31,23.386c-6.554-11.803-12.172-24.143-17.691-36.49
		C116.426,763.458,118.172,767.854,120.101,772.156z"/>
	<path fill="none" d="M226.773,917.256c5.653,8.212,10.908,16.666,15.604,25.45c-3.998-7.756-8.486-15.246-13.448-22.454
		C228.23,919.239,227.481,918.264,226.773,917.256z"/>
	<path fill="none" d="M162.165,837.277c4.626,5.742,9.313,11.436,14.074,17.057c4.849,5.725,9.748,11.439,14.621,17.181
		c-1.339-1.586-2.665-3.182-4.007-4.764C178.56,856.978,170.332,847.152,162.165,837.277z"/>
	<path fill="none" d="M161.029,774.825c3.502-0.451,7.025-1.04,10.539-1.026C168.054,773.785,164.53,774.373,161.029,774.825z"/>
	<path fill="none" d="M274.219,920.042c-3.947-8.575-7.529-17.301-10.964-26.088C266.69,902.74,270.272,911.467,274.219,920.042z"/>
	<path fill="none" d="M113.469,725.741c4.506-4.002,9.897-7.098,14.838-10.537c5.732-3.99,11.881-7.353,18.147-10.455
		c-7.035,3.468-13.936,7.226-20.369,11.719c-6.835,4.774-18.803,11.276-19.369,20.747c-0.061,1.029,0.069,2.053,0.271,3.074
		c-0.057-0.352-0.138-0.7-0.164-1.057C106.44,734.05,109.584,729.192,113.469,725.741z"/>
	<path fill="none" d="M321.89,651.384c0.015,0,0.029,0,0.044,0C321.919,651.385,321.904,651.384,321.89,651.384z"/>
	<path fill="none" d="M340.417,653.186c0.519,0.348,1.024,0.726,1.509,1.093c0.571,0.432,0.824,1.224,0.783,1.991
		c0.042-0.768-0.211-1.56-0.782-1.991C341.441,653.912,340.936,653.534,340.417,653.186z"/>
	<path fill="none" d="M410.271,578.18c5.205,1.015,10.468,1.755,15.724,2.48c-10.024-1.383-19.415-4.061-29.181-6.182
		c0.782,0.277,1.564,0.565,2.351,0.78C402.859,576.266,406.522,577.449,410.271,578.18z"/>
	<path fill="none" d="M290.958,621.889c-0.916-0.74-1.596-1.728-1.107-3.058c0.449-1.841,1.893-2.878,3.192-4.063
		c1.942-1.772,4.021-3.456,5.665-5.484c5.055-6.238,11.268-11.094,18.029-15.24c8.986-5.51,17.922-11.163,27.261-16.02
		c10.654-5.542,21.77-10.151,33.867-11.712c0.945-0.349,1.721,0.012,2.328,0.683c3.487,3.854,7.535,6.416,12.962,6.616
		c-5.578-1.321-10.862-4.072-14.731-8.347c-4.671-5.162-6.354-12.097-9.467-18.169c-4.734-9.234-8.913-18.83-12.831-28.496
		c-1.432-3.535-2.813-7.078-4.189-10.617c1.05,2.764,2.122,5.52,3.159,8.289c0.439,1.174,1.411,2.854-1.153,3.016
		c-3.887,3.648-8.313,6.575-13.117,8.765c-16.484,7.513-33.267,14.446-50.555,19.898c-5.647,1.781-23.246,8.414-36.373,10.081
		c-7.002,0.889-10.643,4.06-12.607,0.632c-0.337-0.588-0.904-1.596-1.542-2.725c2.759,5.223,5.021,10.651,7.658,16.022
		c2.131,4.341,4.402,8.617,6.916,12.749c1.835,3.015,3.405,6.286,5.701,8.91c5.428,6.202,11.088,12.252,17.399,17.57
		c3.683,3.104,7.687,5.895,11.439,8.942c8.5,6.902,13.894,15.702,16.251,26.558C302.993,636.914,298.917,628.317,290.958,621.889z"
		/>
	<path fill="none" d="M337.417,651.964c0.254,0.053,0.52,0.067,0.77,0.131c0.526,0.134,1.029,0.379,1.523,0.66
		c-0.493-0.281-0.997-0.526-1.522-0.66C337.937,652.031,337.671,652.017,337.417,651.964z"/>
	<path fill="#93A1E5" d="M740.556,647.556c-8.887,6.339-17.53,13.027-26.196,19.669c-13.265,10.167-24.14,22.427-32.903,36.721
		c-8.475,13.824-17.598,27.251-26.341,40.914c-1.873,2.928-4.228,3.744-7.514,3.063c-4.769-0.989-8.898-3.298-12.539-6.312
		c-12.99-10.755-27.024-20.04-41.096-29.25c-7.647-5.005-15.739-9.329-23.617-13.984c-7.629-4.508-14.982-9.427-22.152-14.641
		c-5.483-3.989-10.861-8.195-17.122-10.962c-5.473-2.419-9.007-6.289-10.656-12.166c-3.963-14.13-11.367-26.408-20.154-38.102
		c-12.082-16.081-27.672-27.176-46.02-34.821c-9.07-3.779-18.579-5.693-28.251-7.028c-5.256-0.725-10.519-1.465-15.724-2.48
		c-3.749-0.731-7.412-1.914-11.106-2.922c-0.787-0.215-1.569-0.503-2.351-0.78c-0.886-0.192-1.758-0.406-2.652-0.588
		c-0.342-0.069-0.669-0.2-1.009-0.28c-5.427-0.2-9.475-2.761-12.962-6.616c-0.607-0.671-1.383-1.032-2.328-0.683
		c-12.097,1.561-23.213,6.171-33.867,11.712c-9.339,4.858-18.275,10.51-27.261,16.02c-6.76,4.146-12.973,9.002-18.029,15.24
		c-1.644,2.028-3.723,3.711-5.665,5.484c-1.299,1.185-2.744,2.222-3.192,4.063c-0.488,1.329,0.191,2.318,1.107,3.058
		c7.959,6.428,12.035,15.025,14.154,24.798c0.003,0.015,0.008,0.028,0.011,0.043c0.345,1.594,0.499,2.688,0.879,3.425
		c0.634,1.227,1.895,1.461,5.715,1.36c3.389-0.09,6.781-0.125,10.173-0.13c0.015,0,0.029,0,0.044,0
		c3.377-0.005,6.755,0.018,10.131,0.044c1.788,0.014,3.605,0.172,5.352,0.536c0.254,0.053,0.52,0.067,0.77,0.131
		c0.525,0.134,1.029,0.379,1.522,0.66c0.239,0.136,0.475,0.276,0.708,0.432c0.519,0.348,1.024,0.726,1.51,1.093
		c0.571,0.432,0.824,1.224,0.782,1.991c-0.041,0.768-0.378,1.513-0.985,1.85c-1.266,0.703-2.611,1.426-4.006,1.691
		c-1.717,0.326-3.524,0.285-5.287,0.232c-10.965-0.328-21.754,1.262-32.537,2.911c-17.463,2.67-34.915,5.405-52.387,8.019
		c-25.209,3.772-49.55,10.463-72.755,21.141c-7.229,3.327-14.684,6.167-21.886,9.549c-2.144,1.007-4.284,2.035-6.412,3.085
		c-6.266,3.102-12.415,6.465-18.147,10.455c-4.94,3.438-10.331,6.534-14.838,10.537c-3.885,3.451-7.029,8.309-6.647,13.491
		c0.026,0.358,0.107,0.705,0.164,1.057c0.907,4.574,4,9.042,5.584,13.207c0.704,1.852,1.431,3.703,2.148,5.556
		c5.519,12.346,11.138,24.687,17.691,36.49c1.141,1.901,2.288,3.799,3.474,5.671c7.971,12.58,16.94,24.471,26.28,36.064
		c8.167,9.875,16.396,19.701,24.687,29.473c1.343,1.582,2.669,3.178,4.007,4.764c12.577,14.818,24.966,29.839,35.913,45.742
		c0.708,1.007,1.458,1.982,2.156,2.997c4.962,7.207,9.45,14.698,13.448,22.454c1.89,3.535,3.715,7.109,5.41,10.759
		c1.317,2.836,2.553,5.812,3.431,8.841c0.517,1.074,1.056,2.141,1.566,3.219c2.318,0.382,4.692,1.285,6.945,1.045
		c7.617-0.812,15.231-1.816,22.767-3.183c3.726-0.676,7.279-2.306,10.91-3.503c-1.05-2.174-2.116-4.342-3.174-6.513
		c-5.401-11.08-10.859-22.135-16.012-33.329c-3.947-8.575-7.529-17.301-10.964-26.088c-3.434-8.787-6.72-17.635-10.073-26.452
		c-3.592-9.444-7.564-18.692-11.885-27.762c-7.202-15.117-15.376-29.74-24.376-43.949c-0.789-1.246-1.735-2.41-2.384-3.723
		c0,0,0-0.001-0.001-0.001c-1.03-2.086-3.488-6.417-3.902-9.592c-0.006,0-0.013-0.001-0.019-0.002
		c-5.877-0.563-11.753-1.135-17.637-1.598c-10.293-0.811-20.601-1.448-30.895-2.245c-1.1-0.085-2.211-0.641-3.215-1.173
		c-0.649-0.344-0.648-1.058-0.119-1.414c0.717-0.482,1.477-1.114,2.279-1.217c3.501-0.451,7.025-1.04,10.539-1.026
		c15.653,0.06,31.308,0.181,46.957,0.538c9.136,0.209,18.27,0.795,27.39,1.42c3.484,0.239,6.961,0.602,10.434,0.992
		c2.386,0.268,4.771,0.545,7.156,0.816c3.953,0.449,7.9,0.945,11.849,1.427s7.899,0.949,11.857,1.339
		c5.282,0.52,10.601,0.767,15.91,0.915c5.312,0.148,10.632,0.007,15.948,0.018c5.526,0.012,10.014,0.016,13.845-0.034
		c2.554-0.034,4.816-0.092,6.899-0.188c2.082-0.096,3.986-0.231,5.822-0.418c8.264-0.841,15.178-2.741,31.013-6.97
		c7.158-1.912,14.137-4.282,21.025-6.883c6.889-2.602,13.688-5.435,20.488-8.275c3.782-1.58,7.305-3.873,10.761-6.124
		c3.212-2.092,6.411-4.205,9.587-6.352c3.176-2.147,6.328-4.329,9.444-6.559c12.446-8.906,21.029-20.525,24.493-35.653
		c0.455-1.99,1.097-3.991,2.008-5.809c0.546-1.093,1.555-1.995,2.66-2.552c0.142-0.072,0.289-0.083,0.434-0.143
		c0.418-0.172,0.84-0.349,1.251-0.411c0.557-0.085,1.093-0.063,1.561,0.085c1.212,0.382,2.215,1.001,2.973,1.841
		c0.38,0.42,0.697,0.896,0.949,1.426c0.252,0.53,0.438,1.113,0.554,1.748c0.108,0.591,0.167,1.18,0.183,1.766
		c0.034,1.173-0.098,2.338-0.334,3.497c-0.118,0.579-0.261,1.157-0.424,1.734c-3.956,14.037-11.468,25.796-22.695,35.096
		c-3.847,3.186-7.399,6.69-11.39,9.397c-0.709,0.481-1.402,0.99-2.145,1.41c0.29,1.231,0.783,1.902,1.372,2.392
		c0.339,0.282,0.702,0.519,1.099,0.726c11.776,6.134,23.426,12.502,35.622,17.816c6.213,2.707,12.209,5.935,18.217,9.09
		c11.013,5.784,22.456,10.54,34.12,14.706c3.889,1.389,7.801,2.712,11.731,3.986c13.174,4.271,26.45,8.286,40.046,11.12
		c3.754,0.783,7.517,1.513,11.286,2.201c11.306,2.065,22.674,3.749,34.064,5.327c5.286,0.733,10.565,1.024,15.862,1.231
		c1.765,0.069,3.533,0.128,5.303,0.192c7.897,0.283,13.853-3.407,18.413-8.9c8.099-9.755,16.049-19.678,22.919-30.387
		c10.838-16.893,21.902-33.647,32.448-50.72c2.018-3.266,4.034-6.532,6.067-9.785c4.066-6.507,8.199-12.966,12.544-19.287
		c2.173-3.161,4.4-6.287,6.697-9.368c13.631-18.282,28.881-35.13,45.645-50.53c2.089-1.919,4.229-3.788,6.404-5.621
		c0.692-0.584,1.405-1.142,2.107-1.715c1.515-1.239,3.043-2.46,4.602-3.647c0.351-0.268,0.685-0.558,1.038-0.822
		c0.286-0.215,0.595-0.398,0.889-0.603c3.079-2.275,6.213-4.477,9.469-6.512c1.941-1.213,4.358-2.013,5.111-4.598
		c-0.327-3.977-3.539-5.679-6.216-7.749c-3.414-2.64-6.912-5.171-10.396-7.72c-2.527-1.85-4.101-4.909-7.371-5.817
		c-1.05,0.482-2.267,0.762-3.127,1.474c-0.777,0.643-1.574,1.259-2.353,1.899c-2.338,2.082-4.636,4.212-7.043,6.214
		C777.346,621.838,758.811,634.535,740.556,647.556z"/>
	<path fill="#93A1E5" d="M207.55,495.264c-1.288,1.788-2.534,3.608-3.762,5.441c-2.06,3.073-4.085,6.171-6.168,9.224
		c-1.643,2.409-3.316,4.794-5.106,7.089c-1.202,1.54-2.051,2.725-2.699,3.77c-0.559,0.901-0.989,1.712-1.134,2.387
		c-0.315,1.457,0.334,2.541,1.951,3.916c1.078,0.916,2.587,1.961,4.527,3.332c1.054,0.744,2.241,1.339,3.481,1.835
		c1.24,0.496,2.532,0.894,3.795,1.247c2.759,0.771,5.553,1.538,8.37,2.07c1.216,0.23,2.435,0.428,3.659,0.545
		c9.559,0.91,16.436,5.789,21.599,13.526c0.001,0.001,0.002,0.003,0.003,0.004c0.459,0.688,1.228,1.993,2.05,3.42
		c0.553,0.952,1.122,1.898,1.633,2.866c0.638,1.128,1.205,2.136,1.542,2.725c1.964,3.429,5.605,0.257,12.607-0.632
		c13.127-1.666,30.726-8.3,36.373-10.081c17.288-5.453,34.071-12.385,50.555-19.898c4.805-2.19,9.231-5.116,13.117-8.765
		c2.564-0.161,1.592-1.842,1.153-3.016c-1.037-2.769-2.109-5.525-3.159-8.289c-0.317-0.815-0.65-1.631-0.965-2.445
		c-1.364-3.527-4.906-9.202-4.906-12.957c-2.196-5.699-3.747-11.655-6.781-17.022c-2.804,0.149-4.942,1.797-7.115,3.279
		c-2.446,1.667-4.987,3.069-7.771,4.12c-20.203,7.628-40.868,10.587-62.375,7.005c-11.55-1.924-21.397-6.238-27.893-16.507
		c-1.095-1.729-2.448-3.293-3.683-4.932c-3.636,3.839-7.438,7.536-10.865,11.553C215.392,484.985,211.323,490.027,207.55,495.264z"
		/>
	<path fill="#93A1E5" d="M270.2,326.591c-0.208,3.641-3.178,4.667-5.78,5.868c-8.79,4.057-17.081,9.045-25.056,14.425
		c-6.965,4.7-14.596,8.656-20.15,15.27c6.243,0.188,12.489,0.375,18.735,0.562v0c3.062-2.956,7.089-3.985,10.944-5.162
		c13.312-4.062,26.051-9.86,39.649-13.034c-0.714-1.234-1.177-2.742-2.18-3.656C281.05,336.025,275.603,331.336,270.2,326.591z"/>
	<path fill="#3F3E40" d="M814.6,631.72c-1.557,1.186-3.086,2.409-4.602,3.647c-0.701,0.573-1.414,1.131-2.107,1.715
		c-2.172,1.831-4.312,3.699-6.404,5.621c-16.764,15.401-32.014,32.248-45.645,50.53c-2.297,3.081-4.523,6.208-6.697,9.368
		c-4.345,6.322-8.478,12.78-12.544,19.287c-2.033,3.253-4.049,6.519-6.067,9.785c-10.546,17.073-21.609,33.827-32.448,50.72
		c-6.869,10.708-14.819,20.632-22.919,30.387c-4.56,5.493-10.516,9.182-18.413,8.9c-1.77-0.063-3.538-0.123-5.303-0.192
		c-5.297-0.207-10.576-0.498-15.862-1.231c-11.391-1.579-22.758-3.263-34.064-5.327c-3.769-0.688-7.531-1.418-11.286-2.201
		c-13.595-2.834-26.872-6.849-40.046-11.12c-3.93-1.274-7.842-2.597-11.731-3.986c-11.664-4.167-23.107-8.922-34.12-14.706
		c-6.008-3.155-12.004-6.382-18.217-9.09c-12.196-5.315-23.845-11.683-35.622-17.816c-0.397-0.207-0.76-0.445-1.099-0.726
		c-0.589-0.49-1.082-1.161-1.372-2.392v0c0.743-0.421,1.436-0.929,2.145-1.41c3.991-2.708,7.543-6.211,11.39-9.397
		c11.226-9.3,18.739-21.059,22.695-35.096c0.163-0.577,0.306-1.154,0.424-1.734c0.236-1.159,0.369-2.323,0.334-3.497
		c-0.017-0.586-0.076-1.175-0.183-1.766c-0.116-0.635-0.302-1.219-0.554-1.748c-0.252-0.53-0.57-1.006-0.949-1.426
		c-0.758-0.841-1.76-1.46-2.973-1.841c-0.469-0.148-1.004-0.169-1.561-0.085c-0.412,0.063-0.834,0.239-1.251,0.411
		c-0.145,0.06-0.292,0.071-0.434,0.143c-1.105,0.556-2.113,1.459-2.66,2.552c-0.91,1.818-1.553,3.819-2.008,5.809
		c-3.464,15.128-12.047,26.747-24.493,35.653c-3.116,2.23-6.269,4.412-9.444,6.559c-3.176,2.147-6.376,4.26-9.587,6.352
		c-3.456,2.251-6.978,4.545-10.761,6.124c-6.8,2.84-13.599,5.673-20.488,8.275c-6.888,2.602-13.867,4.971-21.025,6.883
		c-15.835,4.23-22.749,6.129-31.013,6.97c-1.836,0.187-3.74,0.321-5.822,0.418c-2.083,0.096-4.345,0.154-6.899,0.188
		c-3.831,0.051-8.319,0.046-13.845,0.034c-5.317-0.012-10.636,0.13-15.948-0.018c-5.309-0.148-10.628-0.395-15.91-0.915
		c-3.958-0.39-7.908-0.857-11.857-1.339s-7.896-0.978-11.849-1.427c-2.385-0.271-4.77-0.548-7.156-0.816
		c-3.474-0.39-6.95-0.753-10.434-0.992c-9.12-0.625-18.254-1.211-27.39-1.42c-15.649-0.357-31.304-0.479-46.957-0.538
		c-3.514-0.013-7.037,0.575-10.539,1.026c-0.802,0.103-1.562,0.735-2.279,1.217c-0.53,0.356-0.53,1.07,0.119,1.414
		c1.004,0.531,2.115,1.087,3.215,1.173c10.295,0.798,20.602,1.435,30.895,2.245c5.885,0.463,11.76,1.035,17.637,1.598
		c0.006,0,0.013,0.001,0.019,0.002l0,0c0.414,3.175,2.872,7.507,3.902,9.592c0,0,0.001,0.001,0.001,0.001
		c0.649,1.314,1.595,2.477,2.385,3.724c9,14.208,17.173,28.831,24.376,43.949c4.321,9.07,8.293,18.319,11.885,27.762
		c3.353,8.817,6.639,17.665,10.073,26.452c3.434,8.787,7.017,17.513,10.964,26.088c5.153,11.195,10.611,22.249,16.012,33.329
		c1.058,2.171,2.123,4.338,3.174,6.513c6.132,9.735,12.329,19.429,18.373,29.218c5.167,8.369,8.602,17.432,10.314,27.14
		c0.209,1.187,0.368,3.79,0.149,6.049c-0.195,2.011-1.78,3.578-3.78,3.863c-0.009,0.001-0.018,0.002-0.026,0.004
		c-5.007,0.718-17.32,0.284-22.326-0.409c-15.08-2.086-29.941-1.271-44.37,4.151c-14.905,5.6-30.084,10.16-46.057,11.534
		c-0.506,0.044-0.979,0.459-2.64,1.283c4.358,1.723,8.162,1.625,11.984,1.429c13.016-0.668,25.669-3.544,38.059-7.229
		c13.822-4.111,27.582-5.807,41.814-2.851c4.912,1.02,17.337,1.175,22.353,0.718c1.744-0.159,3.513-0.42,5.185-0.918
		c1-0.298,1.798-0.853,2.367-1.527c2.504-2.164,2.839-9.237,2.92-10.17c0.204-2.345,0.267-4.711,0.225-7.066
		c-0.242-13.336-5.665-25.092-12.361-36.088c-10.692-17.56-20.75-35.504-29.567-54.077c-3.517-7.409-7.299-14.667-10.446-22.272
		c-5.081-12.278-9.612-24.741-14.082-37.244c-6.373-17.82-14.847-34.723-23.305-51.608c-4.098-8.179-8.838-16.032-14.314-23.394
		c-1.225-1.647-3.927-4.916-6.752-7.477c7.252-0.198,14.508-0.198,21.703,0.797c11.115,1.538,22.196,3.317,33.298,4.955
		c18.425,2.718,36.899,4.769,55.576,3.96c8.844-0.383,17.663-0.575,26.365-2.764c21.179-5.327,42.436-10.294,62.648-18.879
		c5.452-2.316,10.83-4.66,15.841-7.814c1.999-1.258,4.132-2.346,5.966-3.81c2.669-2.13,4.815-2.191,7.835-0.176
		c6.865,4.582,14.008,8.772,21.197,12.841c7.704,4.361,15.786,8.073,23.351,12.652c13.44,8.133,27.554,14.784,42.213,20.3
		c18.791,7.07,37.8,13.479,57.479,17.674c15.024,3.202,30.201,5.524,45.433,7.437c6.444,0.809,12.956,1.106,19.457,0.609
		c2.036-0.155,4.148-0.383,6.044-1.074c3.581-1.305,7.012-3.022,10.543-4.472c5.037-2.066,9.147-5.267,12.569-9.504
		c7.062-8.745,13.601-17.857,19.257-27.565c12.935-22.2,27.469-43.384,41.184-65.089c12.504-19.789,27.343-37.755,43.357-54.802
		c13.205-14.056,27.5-26.77,43.824-37.107c2.739-1.734,5.542-3.401,8.446-4.832c8.374-4.126,16.422-2.936,24.372,1.498
		c7.765,4.332,14.907,9.545,21.947,14.912c4.222,3.219,8.254,6.691,12.397,10.016c2.994,2.403,4.046,5.593,4.314,9.316
		c0.177,2.466-1.037,3.826-2.54,5.007c-1.107-0.127-2.238,0.017-3.331,0.331c-3.387,0.972-19.67,7.731-22.85,9.244
		c-10.409,4.951-20.343,10.666-29.773,17.391c-25.56,18.228-45.552,41.261-58.937,69.534
		c-27.216,57.488-23.506,133.278,19.83,182.376c22.02,24.948,53.723,44.089,83.326,58.771
		c30.881,15.315,64.772,23.707,99.337,20.179c65.016-6.635,121.817-54.99,146.793-115.383
		c10.547-25.503,16.035-53.394,13.976-80.852c-0.263-3.517-0.651-7.027-1.167-10.525c-5.063-34.271-22.209-65.841-43.902-92.851
		c-18.443-22.962-40.664-43.378-67.038-56.486c-26.374-13.109-57.182-18.49-85.784-11.471c14.794,1.535,29.633,3.078,44.13,6.405
		c54.939,12.609,103.009,52.176,125.945,103.666c22.935,51.49,20.195,113.69-7.179,162.963
		c-17.081,30.747-43.566,56.571-75.7,70.873c-54.883,24.429-121.174,12.757-171.949-19.352
		c-30.569-19.331-56.964-46.065-72.786-78.588c-19.224-39.515-20.019-85.111-3.263-125.596
		c9.677-23.382,24.613-44.399,42.745-61.983c8.497-8.241,17.458-15.975,27.836-21.385c2.784-1.452,35.168-18.886,35.525-18.122
		c0.737,1.575,4.131,4.73,6.442,5.459c2.774,0.875,2.81-1.94,3.713-5.305c0.409-1.521,1.025-2.672,2.065-3.733
		c3.487-3.563,3.53-7.888,2.787-12.423c-1.053-6.431-4.335-11.585-9.184-15.733c-4.032-3.449-8.288-6.61-12.679-9.632
		c-10.516-7.237-22.458-11.767-33.44-18.102c-2.831-1.633-6.108-2.091-9.45-1.631c-7.608,0.951-14.167,3.786-20.165,8.445
		c-3.302,2.566-7.121,4.386-10.548,6.781c-0.293,0.205-0.602,0.388-0.889,0.603C815.284,631.162,814.951,631.453,814.6,631.72z"/>
	<path fill="#3F3E40" d="M350.971,505.535c0.315,0.814,0.648,1.63,0.965,2.445c1.377,3.539,2.757,7.083,4.189,10.617
		c3.918,9.666,8.097,19.262,12.831,28.496c3.112,6.073,4.796,13.007,9.467,18.169c3.869,4.275,9.153,7.026,14.731,8.347
		c0.34,0.08,0.667,0.211,1.009,0.28c0.893,0.181,1.765,0.395,2.652,0.588c9.766,2.121,19.157,4.799,29.181,6.182
		c9.672,1.335,19.181,3.249,28.251,7.028c18.347,7.645,33.938,18.74,46.02,34.821c8.787,11.694,16.191,23.972,20.154,38.102
		c1.649,5.877,5.183,9.747,10.656,12.166c6.261,2.767,11.639,6.973,17.122,10.962c7.169,5.215,14.522,10.134,22.152,14.641
		c7.878,4.655,15.97,8.979,23.617,13.984c14.072,9.21,28.106,18.494,41.096,29.25c3.642,3.014,7.77,5.323,12.539,6.312
		c3.286,0.681,5.64-0.135,7.514-3.063c8.743-13.662,17.866-27.089,26.341-40.914c8.763-14.294,19.638-26.554,32.903-36.721
		c8.666-6.643,17.31-13.33,26.196-19.669c18.255-13.022,36.79-25.718,54.044-40.07c2.407-2.002,4.705-4.132,7.043-6.214
		c14.09-12.548,27.121-26.327,40.338-39.751c1.863-1.893,3.915-3.586,5.081-6.06c0.949-2.012-0.643-4.268-2.928-4.178
		c-3.114,0.122-5.762,1.488-8.008,3.41c-3.357,2.873-6.568,5.938-9.655,9.104c-9.686,9.936-18.957,20.297-29.824,29.014
		c-4.607,3.695-9.263,7.328-13.943,10.929c-10.528,8.103-20.651,16.712-31.49,24.434c-12.264,8.737-24.271,17.837-36.276,26.929
		c-17.141,12.982-31.609,28.372-42.098,47.31c-1.856,3.349-4.018,6.54-6.198,9.693c-3.874,5.6-7.232,11.455-10.018,17.686
		c-1.538,3.441-2.875,7.11-5.894,10.084c-1.271-0.954-2.413-1.832-3.574-2.68c-10.247-7.487-19.908-15.772-30.793-22.392
		c-5.799-3.527-11.468-7.272-17.146-10.994c-19.745-12.944-39.1-26.533-60.973-35.882c-4.177-1.785-7.205-5.116-9.065-9.273
		c-1.687-3.768-3.452-7.573-4.49-11.543c-1.37-5.246-3.719-9.956-6.574-14.438c-3.33-5.227-6.933-10.28-10.381-15.433
		c-7.515-11.231-17.327-20.096-28.497-27.519c-11.659-7.749-24.179-13.894-38.008-16.242c-13.356-2.268-26.72-5.266-40.38-4.89
		c-7.258,0.199-12.352-3.364-16.918-8.117c-2.222-2.314-4.26-5.018-5.624-7.903c-4.159-8.8-8.14-17.695-11.841-26.696
		c-6.846-16.647-12.632-33.688-18.271-50.775c-5.919-17.936-11.845-35.861-15.84-54.371c-2.738-12.686-5.472-25.376-9.462-37.773
		c-7.857-24.411-22.161-44.202-42.589-59.471c-5.349-3.998-9.677-8.605-13.178-14.115c-3.163-4.978-6.108-10.093-9.183-15.127
		c-0.497-0.814-1.351-1.225-2.2-0.621c-0.372,0.264-0.639,1.049-0.555,1.527c2.103,11.863,6.681,22.556,15.015,31.449
		c5.4,4.742,10.847,9.431,16.158,14.27c1.003,0.914,1.466,2.422,2.18,3.656c10.218,9.684,17.928,21.043,22.891,34.24
		c3.427,9.113,6.517,18.314,8.642,27.847c4.367,19.586,9.45,38.981,16.23,57.897c1.289,3.595,2.714,7.171,2.979,11.052
		c3.035,5.366,4.585,11.323,6.781,17.022C346.065,496.333,349.606,502.007,350.971,505.535z"/>
	<path fill="#3F3E40" d="M129.62,268.02c0.485,4.627,5.232,6.958,8.964,8.74c1.806,0.862,3.117,1.983,3.328,3.752
		c0.388,3.263,1.086,6.519,2.474,9.513c1.333,2.876,3.136,5.355,2.83,8.695c-0.16,1.751-1.399,3.562-0.896,5.324
		c1.5,5.26,4.755,8.811,10.449,9.448c2.927,0.327,5.89,0.584,8.827,0.503c7.37-0.203,14.788-0.188,22.088-1.073
		c6.414-0.778,11.815,2.174,14.459,7.275c0.815,1.571,1.639,3.155,2.252,4.81c2.998,8.101,4.894,16.41,4.285,26.895
		c0,0.88-0.07,3.533,0.032,6.179c0.007,0.195,0.002,0.301-0.005,0.374c0.053-0.131,0.226-0.305,0.721-0.044
		c0.226,0.119,0.651,0.203,0.788,0.082c0.429-0.38,0.928-0.808,1.111-1.32c5.587-15.674,2.473-30.205-5.904-44.002
		c-2.293-3.809-6.966-3.845-10.907-4.418c-5.159-0.75-9.003-0.886-14.212-1.103c-6.407-0.267-8.209,0.854-14.581,0.627
		c-2.821-0.1-12.899,0.097-14.111-2.665c-2.464-5.62,1.725-10.348-4.195-19.697c-0.618-0.977-0.893-2.14-0.982-3.292
		c-0.698-9.091-7.292-11.088-10.145-13.457c-0.801-0.666-1.552-1.519-1.461-2.632c0.053-0.652,0.322-1.264,0.595-1.859
		c3.462-7.533,9.173-13.96,12.008-21.775c1.839-5.071,0.166-10.073-2.763-14.457c-3.042-4.554-2.571-8.842-0.775-13.395
		c1.84-4.667,4.168-9.176,5.622-13.956c2.664-8.758,8.1-15.688,13.953-22.34c7.852-8.922,17.426-13.996,29.753-12.139
		c0.584,0.088,1.179,0.104,1.76,0.206c3.311,0.582,6.478-0.156,9.585-1.143c2.529-0.803,4.975-1.866,7.5-2.684
		c9.875-3.2,19.173-2.305,27.732,3.944c1.116,0.815,1.889,2.384,3.684,2.014c1.027-0.212,1.01-2.655-0.001-4.849
		c-1.804-3.913-4.49-7.175-8.586-8.499c-8.003-2.587-16.271-4.012-24.415-1.186c-7.442,2.582-15.134,4.296-23.004,4.636
		c-7.282,0.315-13.898,2.931-19.515,7.869c-6.517,5.729-11.972,12.325-15.513,20.24c-1.937,4.331-4.349,8.301-6.711,12.375
		c-5.212,8.991-9.444,18.292-7.252,29.31c1.102,5.537,4.85,9.153,2.902,14.523C138.277,251.93,128.563,257.926,129.62,268.02z"/>
	<path fill="#3F3E40" d="M930.639,666.676c-2.906,2.928-11.34,9.585-13.072,13.414c-0.184,0.407,0.008,1.208,0.325,1.55
		c0.276,0.299,1.151,0.466,1.457,0.253c5.079-3.525,15.969-10.447,20.599-14.497c4.486-3.924,7.75-8.938,7.691-15.979
		c0.058-3.711-1.959-11.273-4.898-17.168c-6.379-12.793-14.664-24.17-25.053-34.046c-11.561-10.989-22.509-22.573-32.87-34.709
		c-3.639-4.262-7.348-8.471-11.181-12.557c-2.62-2.793-5.42-5.456-9.273-6.575c-2.273-0.66-4.629,0.137-5.23,1.939
		c-0.641,1.921-0.048,3.64,1.775,4.464c5.894,2.664,9.648,7.579,13.615,12.357c6.03,7.261,11.622,14.9,18.361,21.56
		c6.505,6.428,12.867,13.008,19.526,19.272c7.581,7.13,14.182,15.008,19.529,23.925c3.51,5.854,6.034,12.03,7.377,18.828
		c1.106,5.597-0.761,9.831-4.125,13.781C933.866,664.046,932.091,665.213,930.639,666.676z"/>
	<path fill="#3F3E40" d="M162.76,1026.493c3.332-1.626,6.951-0.841,10.434-0.885c11.448-0.142,22.282-2.816,32.067-8.614
		c12.93-7.662,25.289-16.235,36.994-25.697c1.582-1.279,2.931-2.865,4.279-4.404c0.292-0.333,0.339-1.225,0.096-1.591
		c-0.266-0.401-0.982-0.611-1.533-0.693c-1.885-0.281-3.424,0.727-4.948,1.577c-8.226,4.584-16.787,8.682-24.553,13.95
		c-14.414,9.776-29.654,16.866-47.248,18.185c-3.837,0.288-7.503,1.418-10.913,3.292c-2.887,1.587-4.181,4.08-4.114,7.271
		c0.086,4.151,1.781,7.458,5.673,9.236c5.891,2.692,11.8,5.362,17.805,7.783c2.137,0.861,4.578,0.969,5.742,1.197
		c3.838,0.072,6.514,0.208,8.825-1.478c0.95-0.693,2.005-1.395,2.074-2.694c0.08-1.529-1.351-1.767-2.331-2.074
		c-1.67-0.524-3.426-0.876-5.171-1.045c-8.781-0.85-15.952-5.815-23.727-9.222c-0.763-0.334-1.428-1.252-1.029-2.192
		C161.496,1027.658,162.076,1026.827,162.76,1026.493z"/>
	<path fill="#3F3E40" d="M306.759,214.642c-0.208-5.357-1.299-10.408-3.7-15.33c-3.867-7.925-9.557-14.115-16.48-19.345
		c-2.582-1.951-5.461-3.647-6.734-6.846c-2.373-5.97-7.152-9.974-11.375-14.508c-4.982-5.349-10.581-5.873-16.909-3.343
		c-0.706,0.282-1.478,1.057-1.695,1.764c-0.36,1.172,0.825,1.308,1.588,1.374c3.245,0.28,6.738,0.204,9.263,2.447
		c4.393,3.902,9.167,7.671,11.632,13.167c2.28,5.085,5.788,8.734,10.377,11.684c7.535,4.845,11.981,12.128,14.967,20.31
		c2.087,5.718,2.461,11.565-1.031,17.025c-3.583,5.602-4.155,11.511-2.224,17.809c1.421,4.636,1.669,9.231-0.714,13.751
		c-0.655,1.243-0.717,2.836-0.867,4.288c-0.046,0.441,0.429,1.186,0.844,1.356c0.429,0.176,1.239,0.001,1.601-0.329
		c5.128-4.676,8.11-10.347,6.267-17.35c-1.703-6.472-0.734-12.187,2.851-17.706C306.412,221.791,306.801,218.238,306.759,214.642z"
		/>
	<path fill="#3F3E40" d="M274.046,291.876c0.38,5.449,2.167,10.396,6.082,14.343c2.18,2.198,4.836,3.438,8.023,2.524
		c1.127-0.324,2.378-1.139,1.801-2.466c-0.69-1.585-1.828-3.001-2.903-4.388c-3.408-4.397-4.975-9.303-4.451-14.879
		c0.165-1.758,0.176-3.541,0.123-5.308c-0.296-9.807-4.554-17.549-12.358-23.388c-1.176-0.88-2.577-1.474-3.701-2.408
		c-3.542-2.944-6.024-6.399-5.483-11.393c0.476-4.39,0.425-8.853,1.135-13.198c1.015-6.203,0.828-12.371,0.037-18.514
		c-0.217-1.691-0.514-4.38-3.977-4.055c2.123,7.986,0.998,15.779-1.272,23.498c-1.428,4.856-1.573,9.874-1.811,14.882
		c-0.207,4.356,1.206,8,4.094,11.32c1.95,2.241,4.021,4.247,6.292,6.149c6.261,5.242,9.698,11.738,8.524,20.21
		C273.878,287.126,273.883,289.531,274.046,291.876z"/>
	<path fill="#3F3E40" d="M102.337,424.708c-2.628,6.426-1.837,12.775,1.643,18.693c7.191,12.232,15.622,23.563,25.281,33.962
		c1.602,1.724,3.312,3.396,5.705,4.004c0.531,0.135,1.443,0.185,1.649-0.104c0.469-0.658,0.925-1.592,0.828-2.341
		c-0.359-2.768-2.297-4.708-3.966-6.757c-7.64-9.376-14.666-19.193-21.297-29.305c-3.798-5.79-5.368-11.6-1.979-18.266
		c2.397-4.714,4.12-9.768,6.213-14.64c1.18-2.747,1.937-5.559,1.89-9.015c0.325-4.503-2.398-7.917-5.9-10.836
		c-1.705-1.422-3.23-3.735-6.015-2.487c-1.495,0.67-0.932,2.861,1.509,6.063c0.535,0.702,1.115,1.376,1.715,2.024
		c2.999,3.24,3.077,6.528,1.05,10.491C107.587,412.214,104.898,418.446,102.337,424.708z"/>
	<path fill="#3F3E40" d="M224.199,236.834c-2.083-12.101-16.404-18.331-25.821-11.864c-0.955,0.656-1.992,1.491-1.725,2.785
		c0.356,1.73,1.682,1.035,2.758,0.81c1.147-0.24,2.294-0.473,2.867-0.591c1.187,0,1.777-0.012,2.365,0.002
		c9.126,0.219,13.321,5.026,12.242,14.129c-0.31,2.625-1.136,5.244-0.372,7.873c1.728,5.948,1.363,11.604-1.861,17.01
		c-0.759,1.272-1.218,2.991,0.236,3.889c0.619,0.382,2.257-0.385,3.146-1.026c4.384-3.16,6.729-7.647,6.246-12.926
		c-0.509-5.563-1.006-11.036,0.052-16.572C224.549,239.227,224.397,237.985,224.199,236.834z"/>
	<path fill="#3F3E40" d="M275.534,233.82c0.272,0.486,0.825,1.269,1.102,1.212c0.772-0.159,1.885-0.512,2.133-1.097
		c4.948-11.663,6.112-23.174-1.45-34.361c-5.212-7.711-12.517-12.834-20.215-17.525c-0.39,0.493-0.779,0.985-1.169,1.478
		c2.997,3.133,6.084,6.185,8.975,9.413c7.585,8.471,12.09,17.9,9.451,29.722C273.532,226.381,273.55,230.277,275.534,233.82z"/>
	<path fill="#3F3E40" d="M219.213,362.154c-6.39,1.569-12.115,4.738-17.621,8.109c-6.879,4.212-12.54,9.867-16.121,17.26
		c-1.926,3.976-3.708,8.034-5.325,12.145c-6.475,16.472-12.751,33.023-19.313,49.46c-5.267,13.193-11.593,25.858-20.379,37.131
		c-8.888,11.403-17.847,22.753-26.809,34.099c-0.856,1.084-1.232,3.809-2.957,1.771c-2.064-12.278-6.96-23.628-10.235-35.772
		c-3.539-13.12-5.934-26.497-8.003-39.907c-0.655-4.241-1.087-8.513-1.464-12.787c-0.27-3.06-0.902-6.067-0.868-9.149
		c0.05-4.395,1.353-8.617,2.18-12.893c0.286-1.601,0.355-3.611,1.03-5.112c2.539-5.63,5.165-11.231,7.434-16.972
		c2.853-7.216,1.803-10.871-4.805-14.946c-3.351-2.067-6.307-4.148-8.163-7.698c-1.206-2.307-3.369-3.217-5.94-2.961
		c-0.854,0.085-2.146,0.205-2.424,0.736c-0.631,1.201,0.203,2.132,1.409,2.621c1.453,0.587,2.464,1.658,2.971,3.087
		c1.582,4.456,4.928,7.081,8.861,9.406c3.88,2.294,4.061,3.819,1.909,8.034c-0.936,1.832-2.19,3.514-3.017,5.388
		c-6.523,14.79-9.12,31.525-8.429,47.626c0.207,4.841,0.742,9.668,1.623,14.433c4.358,23.564,10.532,46.591,20.498,68.479
		c1.524,3.346,2.584,6.583-0.765,9.592c-0.844,0.758-1.376,1.917-1.898,2.968c-0.497,0.998-1.28,2.263,0.064,3.05
		c0.5,0.293,1.732-0.153,2.339-0.631c4.419-3.479,8.486-7.349,12.03-11.721c8.361-10.318,16.712-20.644,24.971-31.043
		c5.33-6.712,10.29-13.707,14.034-21.448c2.955-6.107,5.754-12.296,8.386-18.549c8.694-20.655,17.256-41.366,25.933-62.028
		c1.253-2.985,2.692-5.923,4.357-8.697c1.198-1.995,2.595-4.137,4.451-5.423c8.738-6.057,17.495-12.161,29.131-10.463
		c2.859,0.417,5.888-0.036,8.803-0.384c2.221-0.265,2.674-1.786,1.669-4.676c-0.191-0.552-0.537-1.049-0.812-1.572v0
		C231.702,362.53,225.456,362.343,219.213,362.154z"/>
	<path fill="#3F3E40" d="M169.5,210.03c-5.088-1.748-9.919-3.602-13.699-7.585c-0.237-0.25-1.18-0.22-1.44,0.038
		c-0.348,0.346-0.609,1.126-0.462,1.573c1.374,4.173,4.419,7.092,8.208,8.775c5.007,2.224,8.886,5.649,12.505,9.553
		c0.998,1.077,2.012,2.156,3.129,3.103c1.188,1.006,2.634,1.237,4.146,0.823c0.899-0.246,1.591-0.734,1.795-2.133
		c-0.089-0.483,0.025-1.543-0.446-2.146C179.433,217.149,175.548,212.108,169.5,210.03z"/>
	<path fill="#3F3E40" d="M93.602,593.403c6.098,1.535,11.65,0.712,17.213-1.741c8.719-3.843,16.573-9.033,23.838-15.15
		c16.06-13.52,31.374-27.81,45.171-43.674c1.438-1.653,2.642-3.706,5.141-4.588c3.526,6.415,8.809,10.583,14.971,13.925
		c-13.429,7.858-27.564,13.639-41.155,20.513c-1.558,0.788-3.046,1.743-4.463,2.763c-0.299,0.216-0.211,1.066-0.165,1.612
		c0.016,0.188,0.447,0.479,0.692,0.484c1.145,0.022,2.345,0.171,3.428-0.105c13.823-3.53,26.766-9.154,39.079-16.333
		c1.788-1.043,3.293-2.302,4.497-3.777c1.689-2.069,4.335-3.092,6.911-2.387c2.098,0.573,4.082,1.127,6.044,1.75
		c6.117,1.943,11.125,5.283,14.123,11.248c2.383,4.741,4.868,9.42,7.151,14.223c5.583,11.745,11.708,23.213,21.618,32.091
		c8.356,7.487,16.606,15.094,25.037,22.496c6.463,5.674,9.923,13.116,12.737,20.92c1.48,4.106,0.613,5.355-3.608,5.949
		c-12.276,1.729-24.544,3.559-36.86,4.962c-26.619,3.032-52.017,10.433-76.555,20.956c-10.848,4.652-21.62,9.492-32.332,14.45
		c-11.598,5.367-22.068,12.512-31.705,20.89c-15.158,13.177-14.753,29.826-7.883,47.461
		c24.493,62.873,77.135,109.782,115.876,165.027c10.153,14.479,19.527,29.925,23.704,47.108c0.376,1.544,1.047,3.423,2.626,3.605
		c1.643,0.189,2.738-1.658,3.145-3.261c1.05-4.138,0.538-8.374-0.661-12.509c-0.878-3.029-2.115-6.005-3.431-8.841
		c-1.695-3.65-3.52-7.224-5.41-10.759c-4.696-8.784-9.951-17.239-15.604-25.45c-10.947-15.902-23.336-30.924-35.913-45.742
		c-4.873-5.742-9.772-11.456-14.621-17.181c-4.761-5.621-9.448-11.314-14.074-17.057c-9.34-11.594-18.31-23.484-26.28-36.064
		c-1.186-1.872-2.333-3.77-3.474-5.671c-4.534-7.56-8.702-15.341-12.31-23.386c-1.929-4.301-3.675-8.697-5.381-13.104
		c-0.717-1.852-1.444-3.703-2.148-5.556c-1.584-4.165-4.677-8.633-5.584-13.207c-0.202-1.021-0.332-2.045-0.271-3.074
		c0.566-9.471,12.534-15.972,19.369-20.747c6.433-4.493,13.334-8.251,20.369-11.719c2.129-1.049,4.268-2.077,6.412-3.085
		c7.201-3.383,14.657-6.223,21.886-9.549c23.205-10.678,47.546-17.369,72.755-21.141c17.471-2.614,34.924-5.349,52.387-8.019
		c10.784-1.649,21.573-3.239,32.537-2.911c1.763,0.053,3.57,0.093,5.287-0.232c1.396-0.265,2.741-0.988,4.006-1.691
		c0.607-0.337,0.944-1.082,0.985-1.85c0.042-0.768-0.212-1.56-0.783-1.991c-0.485-0.367-0.991-0.745-1.509-1.093
		c-0.232-0.156-0.469-0.295-0.708-0.432c-0.493-0.281-0.997-0.526-1.523-0.66c-0.25-0.064-0.516-0.078-0.77-0.131
		c-1.747-0.364-3.564-0.522-5.352-0.536c-3.377-0.026-6.755-0.049-10.131-0.044c-0.015,0-0.029,0-0.044,0
		c-3.392,0.005-6.784,0.04-10.173,0.13c-3.82,0.102-5.081-0.132-5.715-1.36c-0.38-0.737-0.534-1.831-0.879-3.425
		c-0.003-0.015-0.008-0.028-0.011-0.043c-2.357-10.857-7.751-19.656-16.251-26.558c-3.752-3.047-7.756-5.838-11.439-8.942
		c-6.311-5.319-11.971-11.368-17.399-17.57c-2.296-2.624-3.866-5.894-5.701-8.91c-2.514-4.132-4.785-8.408-6.916-12.749
		c-2.637-5.371-4.899-10.799-7.658-16.022c-0.511-0.968-1.08-1.915-1.633-2.866c-0.666-1.146-1.305-2.303-2.05-3.42
		c-0.001-0.002-0.002-0.003-0.003-0.004c-5.163-7.737-12.039-12.616-21.599-13.526c-1.224-0.116-2.443-0.315-3.659-0.545
		c-2.817-0.533-5.611-1.299-8.37-2.07c-1.263-0.353-2.555-0.751-3.795-1.247c-1.24-0.496-2.427-1.09-3.481-1.835
		c-1.94-1.371-3.449-2.416-4.527-3.332c-1.617-1.374-2.266-2.458-1.951-3.916c0.146-0.675,0.575-1.485,1.134-2.387
		c0.648-1.044,1.497-2.23,2.699-3.77c1.791-2.294,3.464-4.68,5.106-7.089c2.083-3.053,4.108-6.151,6.168-9.224
		c1.228-1.833,2.474-3.653,3.762-5.441c3.773-5.237,7.841-10.278,12.032-15.19c3.427-4.017,7.229-7.714,10.865-11.553
		c4.427-3.484,5.984-3.597,8.743-0.345c1.325,1.561,2.326,3.391,3.591,5.009c0.269,0.346,1.093,0.5,1.563,0.376
		c0.416-0.11,0.877-0.677,1.012-1.134c1.461-4.929-0.624-8.794-4.26-11.7c-3.445-2.753-7.466-3.27-11.643-1.191
		c-2.98,1.483-5.347,3.621-7.474,6.123c-2.867,3.372-5.879,6.623-8.699,10.033c-5.264,6.366-10.489,12.736-15,19.715
		c-9.625,14.892-20.033,29.17-32.555,41.885c-11.851,12.032-24.822,22.722-37.86,33.361c-5.125,4.182-10.659,7.837-16.543,10.859
		c-2.78,1.428-5.653,2.776-8.627,3.68c-6.134,1.864-14.046-0.616-17.322-5.934c-6.186-10.038-12.037-20.264-16.055-31.469
		c-7.248-20.218-10.673-41.109-11.452-62.469c-0.77-21.104-2.247-42.189-1.64-63.336c0.348-12.127-2.434-23.911-3.091-35.969
		c-0.218-3.993-0.168-8.045,0.801-11.924c0.624-2.497,1.78-5.079,4.032-6.325c2.329-1.288,5.177-0.828,7.838-0.762
		c1.792,0.044,3.589-0.109,5.349-0.457c0.989-0.195,2.094-0.555,2.5-1.479c0.343-0.782,0.028-1.735-0.568-2.346
		c-0.596-0.612-1.421-0.942-2.24-1.186c-3.404-1.014-7.069-0.798-10.544-0.062c-2.103,0.445-4.221,1.105-5.903,2.443
		c-2.742,2.179-3.902,5.822-4.192,9.313c-0.595,7.179,0.31,14.408,0.211,21.6c0,11.507,1.166,15.918,1.166,27.426
		c-0.796,19.509-1.104,46.068-0.763,65.548c0.391,22.308,4.479,43.993,12.315,64.931c2.811,7.511,6.562,14.521,11.259,21.011
		c3.108,4.293,6.602,8.283,9.301,12.903C85.852,590.342,89.269,592.311,93.602,593.403z"/>
</g>
</svg>
